<?xml version="1.0" standalone="no"?><!DOCTYPE svg PUBLIC "-//W3C//DTD SVG 1.1//EN" "http://www.w3.org/Graphics/SVG/1.1/DTD/svg11.dtd" ><svg xmlns="http://www.w3.org/2000/svg"><metadata></metadata><defs><font id="Founder:FZYiHei-M20S	Regular" horiz-adv-x="256"><font-face font-family="FZYiHei-M20S" font-weight="400" font-stretch="normal" units-per-em="256" panose-1="3 0 5 9 0 0 0 0 0 0" ascent="243" descent="-58" x-height="0" bbox="-1 -37 256 218" underline-thickness="12" underline-position="-46" unicode-range="U+002c-ff1f" /><missing-glyph horiz-adv-x="256"  /><glyph glyph-name="" unicode="," d="M51 13 l-22 -37 q-5 -7 -14 -8 q-15 1 -16 17 q0 2 1 7 q1 2 1 3 l21 36 q5 8 15 9 q15 -2 17 -17 q0 -3 -2 -7 q-1 -2 -1 -3 Z" /><glyph glyph-name="" unicode="-" d="M24 80 l105 0 q15 -1 16 -15 q-1 -15 -16 -16 l-105 0 q-14 1 -15 16 q1 14 15 15 Z" /><glyph glyph-name="" unicode="0" d="M73 32 q28 0 28 59 q1 60 -28 60 q-28 0 -27 -60 q0 -59 27 -59 ZM73 -1 q-64 1 -67 92 q4 92 67 94 q65 -2 68 -94 q-3 -91 -68 -92 Z" /><glyph glyph-name="" unicode="1" d="M39 18 l0 129 l-15 0 q-17 1 -18 18 q1 16 18 17 l36 0 q16 -1 17 -18 l0 -146 q-1 -18 -19 -18 q-18 0 -19 18 Z" /><glyph glyph-name="" unicode="2" d="M69 34 l46 0 q20 0 20 -17 q0 -16 -18 -17 l-86 0 q-19 0 -19 17 q0 6 5 13 q5 6 16 18 q33 36 48 58 q9 13 9 24 q-2 18 -18 20 q-16 0 -23 -22 q-6 -19 -17 -19 q-18 1 -19 18 q6 52 60 58 q54 -3 57 -53 q0 -27 -45 -79 q-11 -13 -16 -19 Z" /><glyph glyph-name="" unicode="3" d="M69 185 q49 -3 55 -47 q0 -25 -21 -39 q30 -15 31 -45 q-5 -51 -64 -55 q-54 3 -62 46 q2 15 20 17 q7 0 15 -12 q11 -18 27 -18 q22 2 24 24 q0 19 -23 22 q-20 4 -20 18 q0 13 18 18 q18 4 18 19 q-1 16 -18 17 q-14 0 -23 -14 q-8 -11 -16 -11 q-15 1 -16 19 q7 36 55 41 Z" /><glyph glyph-name="" unicode="4" d="M84 40 l-62 0 q-16 1 -18 15 q0 6 4 12 l57 103 q8 16 26 15 q29 -2 30 -32 l0 -79 l4 0 q17 -1 18 -17 q-1 -16 -18 -17 l-4 0 l0 -22 q0 -18 -19 -18 q-19 -1 -18 18 l0 22 ZM84 74 l0 71 l-1 0 l-34 -71 l35 0 Z" /><glyph glyph-name="" unicode="5" d="M64 147 l-4 -27 q10 2 19 2 q49 -4 53 -54 q-2 -68 -67 -69 q-53 5 -57 32 q2 17 18 18 q4 0 14 -7 q15 -10 25 -10 q25 2 27 34 q-1 25 -24 26 q-8 0 -16 -5 q-8 -4 -14 -4 q-12 1 -15 12 q0 5 0 9 l7 54 q2 27 20 24 l61 0 q18 -1 19 -16 q0 -19 -18 -19 l-48 0 Z" /><glyph glyph-name="" unicode="6" d="M68 115 q8 3 16 3 q49 -5 54 -58 q-6 -57 -65 -61 q-59 3 -64 61 q4 54 65 117 q3 4 8 7 q5 1 8 1 q16 -4 18 -18 q0 -5 -5 -11 q-4 -4 -13 -14 q-17 -19 -22 -27 ZM73 87 q-23 -2 -24 -27 q2 -25 24 -26 q23 2 25 26 q-1 26 -25 27 Z" /><glyph glyph-name="" unicode="7" d="M24 26 l64 121 l-65 0 q-18 0 -19 18 q1 17 19 17 l92 0 q17 -1 19 -18 q0 -5 -6 -17 l-63 -129 q-1 -1 -1 -3 q-9 -17 -21 -15 q-19 0 -21 17 q0 2 1 6 q1 2 1 3 Z" /><glyph glyph-name="" unicode="8" d="M73 83 q-21 -1 -23 -25 q2 -25 23 -26 q22 2 24 26 q-1 24 -24 25 ZM73 -1 q-59 3 -63 56 q0 29 28 45 q-20 13 -20 36 q3 46 55 49 q53 -4 56 -49 q-1 -23 -20 -36 q28 -14 28 -45 q-4 -53 -64 -56 ZM73 152 q-17 -1 -18 -20 q1 -18 18 -19 q18 1 19 19 q-1 19 -19 20 Z" /><glyph glyph-name="" unicode="9" d="M79 67 l0 1 q-8 -3 -16 -3 q-49 5 -54 57 q6 58 64 63 q60 -4 65 -63 q-4 -54 -65 -117 q-3 -3 -8 -5 q-5 -2 -8 -1 q-16 2 -18 17 q0 4 5 10 q4 6 16 18 q15 16 19 23 ZM73 95 q23 2 25 27 q-2 25 -25 26 q-22 -2 -24 -26 q2 -26 24 -27 Z" /><glyph glyph-name="" unicode="a" d="M2 25 l52 139 q8 20 27 21 q19 0 28 -21 l50 -139 q2 -6 2 -10 q-1 -15 -18 -15 q-14 0 -19 12 l-7 24 l-71 0 l-8 -24 q-5 -12 -19 -12 q-17 0 -18 16 q0 3 1 7 q0 2 0 2 ZM81 145 l-24 -74 l48 0 l-24 74 Z" /><glyph glyph-name="" unicode="d" d="M12 19 l0 144 q1 18 19 19 l43 0 q87 -3 90 -93 q-4 -85 -88 -89 l-44 0 q-19 1 -20 19 ZM50 147 l0 -112 l26 0 q46 2 48 55 q-1 56 -51 57 l-23 0 Z" /><glyph glyph-name="" unicode="i" d="M12 18 l0 146 q1 19 19 20 q18 -1 19 -20 l0 -146 q-1 -18 -19 -18 q-18 0 -19 18 Z" /><glyph glyph-name="" unicode="[" d="M11 -19 l0 186 q1 17 19 18 l26 0 q13 0 13 -14 q0 -15 -13 -15 l-12 0 l0 -164 l12 0 q13 0 13 -15 q0 -14 -13 -14 l-26 0 q-18 1 -19 18 Z" /><glyph glyph-name="" unicode="]" d="M60 167 l0 -186 q-1 -17 -19 -18 l-25 0 q-14 0 -14 14 q0 15 14 15 l12 0 l0 164 l-12 0 q-14 0 -14 15 q0 14 14 14 l25 0 q18 -1 19 -18 Z" /><glyph glyph-name="" unicode="×" d="M96 118 l32 -32 l32 32 q4 4 10 4 q7 0 11 -4 q5 -4 5 -12 q0 -4 -5 -9 l-32 -32 l32 -32 q5 -4 5 -10 q0 -7 -5 -11 q-4 -5 -12 -5 q-6 0 -9 5 l-32 32 l-32 -32 q-3 -5 -9 -5 q-7 0 -12 5 q-5 4 -5 11 q0 6 5 10 l32 32 l-32 32 q-5 5 -5 9 q0 8 5 12 q4 4 11 4 q6 0 10 -4 Z" /><glyph glyph-name="" unicode="&#x201c;" d="M203 127 l0 37 q3 34 35 40 l0 -15 q-5 -3 -8 -6 q0 0 -1 -1 q-4 -6 -4 -9 l0 -6 l16 0 l0 -40 l-38 0 ZM144 127 l0 37 q6 36 35 40 l0 -15 q-11 -5 -13 -16 l0 -6 l16 0 l0 -40 l-38 0 Z" /><glyph glyph-name="" unicode="&#x201d;" d="M112 204 l0 -36 q-3 -35 -35 -41 l0 15 q5 3 8 6 q0 0 1 1 q4 6 4 9 l0 7 l-16 0 l0 39 l38 0 ZM54 204 l0 -36 q-3 -36 -35 -41 l0 15 q10 3 13 16 l0 7 l-16 0 l0 39 l38 0 Z" /><glyph glyph-name="" unicode="&#x2026;" d="M214 105 q18 -2 19 -17 q0 -18 -19 -19 q-18 1 -19 19 q1 16 19 17 ZM40 105 q17 -1 18 -17 q0 -18 -17 -19 q-19 1 -20 19 q1 16 19 17 ZM126 105 q17 -1 18 -17 q0 -18 -18 -19 q-18 1 -19 19 q1 16 19 17 Z" /><glyph glyph-name="" unicode="&#x3001;" d="M26 31 l20 15 q30 -20 56 -50 l-20 -21 q-20 28 -56 56 Z" /><glyph glyph-name="" unicode="&#x4e00;" d="M239 117 q0 -22 -9 -39 q-2 -4 -5 -1 q-4 5 -36 6 q-66 1 -120 -2 q-34 -1 -34 -6 q-4 -5 -7 0 q-6 16 -6 31 q-2 7 7 6 q6 -1 25 1 q4 0 6 0 q54 3 112 2 q39 0 48 1 q13 0 15 3 q3 1 3 0 q1 0 1 -2 Z" /><glyph glyph-name="" unicode="&#x4e07;" d="M246 180 q0 -10 -2 -14 q-2 -6 -2 -15 q0 -2 -4 -1 q-4 2 -32 2 q-10 -1 -40 -1 q-28 -1 -42 -1 q-2 -11 -5 -28 q-1 -5 -1 -7 q1 0 2 1 q1 0 1 0 q36 0 54 1 q5 0 15 -1 q7 0 10 0 q8 -2 6 -8 q-1 -3 -2 -17 q-1 -6 -1 -9 q-5 -50 -29 -88 q-1 -2 -5 -7 q-2 -2 -2 -3 q-1 -3 -2 -4 q-1 0 -2 2 q-21 20 -23 30 q-2 5 3 6 q5 -2 7 3 q11 18 17 57 q1 7 -6 7 q-20 1 -49 -1 q-9 -39 -54 -80 q-1 -1 -2 -2 q-8 -7 -10 -12 q-4 -6 -10 0 q-14 16 -15 34 q0 3 1 4 q1 0 4 -1 q5 -3 14 6 q48 39 48 115 q-31 0 -45 -2 q-10 -1 -9 -6 q0 -2 -1 -2 q-2 0 -3 2 q-4 14 -6 35 q-1 5 5 4 q18 0 41 2 q11 1 53 2 q51 0 71 -1 q38 0 48 2 q3 1 4 -3 q0 0 0 -1 Z" /><glyph glyph-name="" unicode="&#x4e09;" d="M248 35 q-1 -13 -6 -28 q-1 -2 -2 -4 q-3 -4 -7 -3 q-11 5 -43 7 q-31 1 -92 -3 q-14 -1 -21 -1 q-18 -3 -35 -3 q-10 -1 -11 -5 q0 -5 -2 -5 q-2 0 -4 5 q-7 14 -8 31 q0 5 5 3 q17 -2 58 3 q5 1 8 1 q36 5 108 3 q16 -1 24 -1 q13 0 19 3 q9 4 9 -3 ZM222 186 q7 4 7 -2 q0 -15 -4 -30 q-2 -4 -7 -2 q-6 2 -12 2 q-67 4 -151 -3 q-9 -2 -9 -4 q-1 -5 -2 -4 q-2 0 -3 5 q-3 15 -5 33 q0 3 4 2 q13 -1 50 1 q49 3 117 1 q12 0 15 1 ZM201 116 q7 3 7 -1 q0 -15 -4 -30 q-2 -5 -7 -3 q-3 2 -12 2 q-28 2 -52 1 q-22 0 -62 -4 q-9 0 -9 -3 q0 -5 -2 -5 q-1 0 -3 5 q-1 6 -2 17 q-2 11 -3 16 q0 4 5 2 q10 -1 39 1 q-22 -2 5 0 q40 3 85 2 q10 -1 15 0 Z" /><glyph glyph-name="" unicode="&#x4e0a;" d="M225 118 q0 -2 -1 -6 q-1 -4 -1 -7 q1 -4 -6 -2 q-10 4 -30 4 q-27 0 -54 -4 q0 -9 0 -26 q1 -34 0 -52 l4 0 q13 0 39 -1 q26 -1 39 -1 q16 0 18 2 q4 3 5 2 q2 -1 1 -5 q0 -16 -8 -37 q-1 -3 -4 0 q0 3 -6 3 q-27 6 -71 6 q-59 1 -116 -6 q-6 -1 -6 -4 q-1 -4 -2 -4 q-2 0 -4 4 q-6 9 -7 33 q1 7 7 3 q3 -2 11 -1 q9 0 29 2 q23 1 35 2 q1 5 2 15 q2 7 2 10 q2 26 0 92 q-1 33 -3 62 q0 4 5 4 q4 -1 11 0 q3 0 5 0 q7 2 13 -3 q6 -4 6 -15 q-4 -25 -5 -51 q2 0 6 1 q4 0 5 0 q29 3 63 1 q6 -1 14 1 q5 2 5 -2 q3 -9 -1 -20 Z" /><glyph glyph-name="" unicode="&#x4e0b;" d="M146 154 q0 -4 -1 -11 q-3 -20 -3 -32 q1 1 4 1 q3 1 4 1 q3 1 7 3 q5 1 7 2 q8 1 11 -4 q1 -3 7 -11 q1 -2 6 -7 q10 -10 12 -14 q4 -3 6 -9 q0 -1 0 -2 q2 -8 2 -13 q0 -6 -5 -6 q-7 2 -15 7 q-3 0 -6 3 q-9 9 -28 27 q-4 3 -6 5 q-1 1 -3 3 q-3 2 -4 3 q0 -12 0 -24 q0 -4 0 -11 q-1 -49 -5 -67 q-4 -21 -11 -28 q-2 -3 -5 1 q-2 3 -6 10 q-1 5 -8 13 q-3 5 -5 10 q0 3 2 5 q3 1 3 9 q0 12 2 21 q3 17 3 33 q1 17 0 48 q0 16 0 25 q0 6 -1 12 q-64 -2 -71 -2 q-4 -1 -4 -5 q0 -2 -2 -2 q-1 0 -2 2 q-5 10 -5 26 q0 0 0 2 q1 6 -1 7 q-1 1 2 2 q14 0 24 1 q11 1 96 0 q17 0 21 0 q31 0 49 1 q2 0 7 1 q9 0 12 2 q4 2 4 -2 q0 -10 -1 -15 q-3 -13 -7 -21 q-1 -2 -2 -2 q0 -1 -2 1 q-5 2 -18 4 q-1 0 -2 0 q-18 0 -33 0 q-5 0 -29 0 q0 -1 0 -3 Z" /><glyph glyph-name="" unicode="&#x4e0d;" d="M229 164 q-1 -6 -7 -3 q-8 4 -42 4 q-11 0 -26 0 q-2 -5 -7 -11 q-3 -3 -4 -6 q-3 -7 -6 -13 q3 -1 6 -3 q4 -3 2 -10 q0 -3 0 -6 q-1 -2 -1 -5 q11 5 17 8 q7 3 13 -4 q8 -11 32 -28 q14 -9 23 -30 q5 -11 -4 -15 q-17 2 -29 13 q-37 30 -54 42 q-3 -22 -1 -65 q2 -11 -1 -31 q-4 -11 -10 -24 q-3 -7 -8 -2 q-13 13 -14 18 q0 3 -2 7 q-1 0 -1 0 q-3 4 0 8 q0 0 1 1 q2 4 2 7 q3 27 3 79 q-16 -21 -50 -45 q-19 -14 -24 -20 q-6 -7 -7 -2 q-9 19 -12 38 q0 5 5 3 q5 -3 18 5 q55 33 78 90 q-10 -1 -34 -2 q-17 -2 -24 -2 q-29 -1 -26 -8 q-2 -4 -6 0 q-5 13 -6 35 q-1 2 0 3 q0 1 2 0 q5 -1 29 0 q12 1 20 1 q81 5 132 5 q20 0 22 1 q4 2 5 -1 q2 -7 -1 -15 q-1 -7 -3 -17 Z" /><glyph glyph-name="" unicode="&#x4e0e;" d="M226 173 q0 -25 -7 -38 q-1 -3 -4 0 q2 6 -48 7 q-35 -1 -66 -5 q-9 0 -9 -2 q-2 -12 -2 -24 q-1 -2 -1 -2 q13 0 26 1 q21 1 55 1 q19 0 37 1 q19 2 14 -16 q-9 -24 -13 -48 q-10 -58 -29 -79 q-3 -5 -6 0 q-13 13 -15 34 q0 2 1 2 q0 1 2 0 q1 -1 5 3 q8 11 16 69 q0 4 -4 5 q-48 4 -90 -3 q-8 -1 -11 -4 q0 0 -1 -1 q-2 -4 -3 -3 q-2 -1 -5 3 q-11 11 -15 20 q-2 6 2 6 q2 1 2 4 q2 23 5 45 q5 37 0 49 q-1 2 0 3 q0 0 2 0 q11 0 22 0 q16 1 12 -12 q-1 -6 -3 -20 q5 0 15 1 q42 2 49 1 q11 -1 40 0 q6 0 8 0 q11 0 15 3 q2 2 3 1 q1 0 1 -2 ZM172 55 q-1 -15 -5 -24 q-1 -8 -5 -5 q-2 2 -11 1 q-15 -2 -43 -2 q-21 0 -66 -6 q-8 -1 -8 -5 q0 -4 -2 -3 q-2 0 -5 5 q-10 19 -7 34 q1 3 3 2 q5 -2 31 0 q39 4 82 4 q17 -1 32 2 q5 1 4 -3 Z" /><glyph glyph-name="" unicode="&#x4e16;" d="M55 193 q6 0 14 0 q18 1 15 -16 q-2 -15 -2 -30 q4 1 11 1 q8 1 11 1 q0 30 -1 35 q0 8 -3 15 q-1 6 4 6 q1 0 6 0 q16 1 20 0 q6 -2 7 -8 q1 -2 1 -13 q-1 -10 -1 -17 q0 -8 -1 -17 q15 0 29 0 q0 14 0 22 q0 21 -1 31 q-1 5 4 4 q8 -2 15 -2 q11 -2 15 -5 q4 -4 2 -11 q-3 -9 -4 -19 q-1 -3 -1 -10 q-1 -7 -1 -10 q14 0 26 0 q12 0 18 3 q3 1 3 1 q1 0 1 -3 q0 -18 -6 -36 q-3 -4 -6 -2 q-8 6 -23 6 q-7 1 -15 1 q-4 -44 -8 -60 q-3 -7 -10 -4 q-4 2 -10 2 q-15 0 -32 -1 q-1 0 -1 0 q-9 -1 -11 -5 q-4 -4 -7 0 q-12 20 -8 61 l0 7 q-4 0 -12 0 q-8 -1 -12 -1 l0 -28 q0 -10 0 -18 q-1 -8 0 -23 q0 -10 0 -21 q17 2 40 3 q22 2 41 0 q11 -1 20 -1 q23 0 30 3 q4 2 5 2 q1 0 0 -4 q0 -18 -6 -33 q-1 -2 -2 -2 q0 0 -1 1 q-1 0 -4 1 q-3 1 -4 1 q-28 4 -57 3 q-8 0 -40 -2 q-16 -1 -23 -1 q-11 0 -14 -2 q-3 -4 -5 -4 q-2 0 -3 4 q-3 9 -5 21 q-2 6 -2 14 q0 16 1 25 q0 6 0 8 q1 3 1 10 q0 24 0 41 q-9 -1 -22 -3 q-5 -1 -7 -1 q-5 0 -5 -3 q-1 -3 -2 -4 q-2 0 -3 3 q-3 15 -5 30 q0 8 4 5 q2 -1 10 0 q4 0 14 0 q11 1 16 1 q0 3 0 10 q-1 8 -1 13 q0 4 0 11 q-1 8 -1 11 q-1 4 4 3 ZM162 90 q0 17 1 31 l-2 0 q-12 0 -26 0 q0 -7 -1 -20 q0 -8 0 -12 q0 -5 5 -5 q5 0 11 1 q7 0 12 1 q0 1 0 4 Z" /><glyph glyph-name="" unicode="&#x4e1a;" d="M236 119 q-7 -5 -13 -13 q-12 -20 -30 -41 q-5 -7 -10 -6 q-4 0 -10 2 q1 -1 -2 0 q0 -21 -1 -45 l8 0 q62 -2 62 2 q2 2 3 1 q1 0 1 -2 q1 -17 -9 -33 q-2 -3 -2 -3 q-1 0 -3 2 q-7 5 -36 5 q-72 1 -129 -2 q-34 -1 -35 -6 q-1 -3 -3 -3 q-2 1 -3 3 q-5 15 -7 26 q-1 7 8 6 q5 -1 26 1 q3 0 5 0 q4 0 12 0 q11 1 16 1 q2 77 1 114 q-1 40 -4 66 q-1 2 0 3 q1 1 3 0 q3 0 12 -1 q7 0 9 0 q14 -1 13 -16 q-2 -17 -3 -52 q-1 -33 -1 -113 q14 1 26 1 q6 120 1 181 q-1 9 5 8 q3 0 9 -1 q12 0 17 -2 q9 -1 7 -16 q-6 -45 -7 -111 q25 37 34 68 q2 5 6 2 q15 -7 25 -15 q6 -6 -1 -11 ZM69 56 q-17 11 -20 20 q-20 40 -30 47 q-3 3 2 6 q6 1 12 3 q4 2 8 3 q3 2 10 -1 q6 -3 7 -7 q1 -2 3 -8 q4 -14 10 -27 q5 -10 6 -29 q-1 -9 -8 -7 Z" /><glyph glyph-name="" unicode="&#x4e24;" d="M223 123 q0 -10 -3 -20 q0 -4 -1 -21 q-1 -18 -2 -22 q0 -51 -9 -72 q-1 -3 -4 -8 q-3 -5 -4 -8 q-1 -4 -2 -4 q-1 0 -3 2 q-14 15 -19 28 q0 3 -2 6 q-1 3 2 3 q6 1 9 22 q0 2 0 3 q-3 -6 -7 -9 q-5 -4 -8 3 q-2 4 -11 16 q-1 3 -4 5 q0 -4 -2 -7 q-9 -20 -20 -29 q-3 -3 -4 0 q-1 2 -2 4 q-10 18 -11 27 q0 2 0 2 q0 1 -1 3 q-1 1 -2 2 q-2 2 -4 5 q-2 2 -3 3 q-1 -1 -2 -5 q-2 -3 -3 -5 q-11 -19 -23 -30 q0 0 -1 0 q-3 -4 -4 0 q-1 3 -4 7 q-3 5 -4 8 q0 -8 0 -14 q2 -29 -6 -40 q-1 -2 -3 -4 q-3 -4 -4 -6 q-1 -3 -5 0 q-15 22 -19 32 q-1 2 1 3 q5 -1 4 4 q0 3 0 9 q1 6 1 10 q2 20 2 57 q0 35 -2 41 q-1 2 2 2 q4 0 13 -1 q9 0 12 -1 q1 1 1 1 q9 -1 30 0 q0 7 1 13 q0 10 0 19 l-20 -2 q-16 -1 -33 -4 q-7 -1 -9 -5 q-1 -3 -2 -3 q-1 0 -2 4 q-8 19 -7 38 q0 2 3 2 q4 1 8 -2 q6 0 11 0 q10 1 31 2 q41 4 68 5 q29 1 77 -3 q14 0 16 3 q3 3 5 2 q2 -1 2 -5 q0 -19 -8 -40 q-2 -2 -2 -2 q0 -1 -1 1 q-3 3 -6 4 q-24 5 -48 6 q-1 -15 -4 -30 q11 0 17 0 q15 -1 29 0 q5 0 5 -5 ZM147 159 q-16 0 -25 -1 q0 -16 -2 -31 q3 0 11 0 q9 1 14 1 q0 5 1 9 q0 4 1 13 q0 6 0 9 ZM180 98 q-6 0 -13 -1 q0 -3 -1 -9 q-1 -7 -2 -10 q16 -22 22 -27 q2 28 2 39 q0 9 -8 8 ZM68 89 q0 -2 0 -2 q-2 -24 -2 -36 q6 0 13 14 q6 13 9 30 q-7 0 -12 -1 q-7 0 -7 -1 q-1 -2 -1 -4 ZM141 97 q-5 0 -13 -1 q-8 0 -12 0 q0 -1 -1 -4 q0 -3 -1 -5 q11 -16 19 -24 q2 8 8 34 Z" /><glyph glyph-name="" unicode="&#x4e2a;" d="M148 189 q-1 0 -1 -1 q17 -16 60 -48 q24 -19 37 -17 q4 1 6 -1 q2 -2 0 -6 q-5 -14 -21 -30 q-3 -3 -6 0 q-13 13 -30 23 q-18 12 -40 35 q-15 13 -25 22 q-7 -9 -15 -18 q-24 -28 -57 -53 q-18 -13 -24 -22 q-4 -4 -6 -1 q-3 8 -8 16 q-5 9 -7 23 q-1 2 0 3 q1 1 3 0 q9 -8 34 13 q57 52 69 85 q1 6 6 3 q8 -1 23 -10 q8 -6 2 -16 ZM148 116 q-4 -27 -4 -83 q1 -43 -11 -64 q-2 -6 -8 -2 q-16 20 -20 31 q-2 4 1 5 q6 3 7 28 q3 76 -1 91 q-2 9 4 7 q9 -2 22 -2 q10 -1 10 -11 Z" /><glyph glyph-name="" unicode="&#x4e2d;" d="M148 203 q-1 -12 -3 -46 q46 0 51 -1 q3 0 7 -1 q15 -1 20 0 q13 2 11 -7 q-1 -12 -6 -26 q-1 -4 -3 -15 q-1 -5 -2 -8 q-4 -27 -9 -36 q-8 -9 -16 -6 q-2 3 -55 5 q0 -23 0 -37 q2 -34 -10 -57 q-3 -5 -7 -1 q-15 18 -20 28 q-1 4 2 5 q4 1 4 23 q1 18 1 38 l-5 0 q-44 0 -55 -8 q-3 -2 -4 -2 q-1 0 -2 3 q-11 23 -10 60 q0 13 -3 25 q-1 4 -1 6 q-3 9 5 8 q7 -1 27 0 q8 1 32 2 q11 1 17 1 q0 47 -1 50 q-2 7 3 6 q12 -1 22 0 q10 -1 10 -9 ZM189 129 q-5 0 -20 0 q-16 0 -25 -1 q0 -19 -1 -39 q18 1 41 1 q6 0 7 6 q3 18 3 27 q0 6 -5 6 ZM75 87 q5 1 19 1 q13 1 20 1 q0 20 0 39 q-21 0 -40 -2 q0 0 -1 0 q-4 -1 -4 -5 q0 -4 1 -16 q0 -10 0 -13 q0 -5 5 -5 Z" /><glyph glyph-name="" unicode="&#x4e38;" d="M132 197 q0 -15 -4 -27 q-3 -7 -4 -14 q12 1 22 1 q21 0 41 1 q10 0 9 -5 q0 -1 1 -3 q0 -3 0 -4 q0 -2 -1 -7 q-1 -2 -1 -4 q-22 -63 -16 -107 q0 -2 3 -2 q7 -1 15 -4 q27 -7 39 12 q2 2 2 1 q1 0 2 -2 q1 -2 2 -2 q1 -3 1 -6 q-2 -23 -13 -43 q-3 -8 -7 -3 q-1 3 -8 3 q-1 0 -3 1 q-3 0 -12 3 q-23 6 -41 2 q-2 -1 -3 2 q-10 19 -10 51 q0 13 3 38 q3 25 3 37 q0 5 -4 5 q-14 2 -29 0 q-3 -31 -14 -55 l7 -6 q3 -1 6 -3 q0 0 1 -1 q3 -2 5 -9 q1 -9 5 -18 q1 -4 0 -6 q-2 -1 -5 0 q-1 1 -5 2 q-20 8 -29 14 q-9 -15 -21 -30 q-1 -1 -2 -3 q-15 -18 -22 -24 q0 0 -1 -2 q-3 -4 -5 -6 q-1 -3 -2 -3 q-1 -1 -2 1 q-6 9 -6 15 q-2 7 -4 12 q-2 1 -2 7 q0 4 -1 7 q0 3 3 2 q5 -2 10 1 q1 1 3 3 q24 21 31 35 q-3 2 -9 7 q-13 9 -18 14 q-2 1 -2 3 q1 2 3 2 q6 2 11 6 q4 4 10 5 q-1 0 2 1 q6 2 8 -3 q2 -1 3 -3 l4 -3 q1 4 3 11 q2 8 3 11 q1 3 1 7 q1 4 1 6 q-5 -1 -15 -4 q-10 -2 -15 -4 q-10 -2 -11 -8 q-1 -3 -3 -3 q-1 0 -3 3 q-9 22 -8 33 q0 1 0 3 q1 4 0 5 q-1 2 0 2 q0 1 2 1 q27 2 43 5 q3 1 10 2 q3 1 5 1 q3 27 3 55 q0 3 2 2 q5 -1 10 -1 q8 0 13 -1 q8 -3 10 -12 Z" /><glyph glyph-name="" unicode="&#x4e3a;" d="M153 193 q-8 -20 -11 -38 q0 -2 -3 -10 q-2 -8 -3 -11 q20 1 44 1 q5 0 18 1 q12 0 17 0 q9 -1 10 -6 q1 -10 -5 -28 q-2 -7 -1 -29 q0 -15 0 -21 q-1 -15 -12 -51 q-1 -2 -1 -3 q-4 -19 -14 -31 q-2 -3 -5 -1 q-4 5 -11 14 q-12 13 -11 17 q0 4 -1 7 q-1 2 -1 3 q1 1 2 0 q11 -4 18 26 q6 21 5 64 q0 9 -10 9 q-8 0 -43 -2 q3 0 -5 0 q-10 -48 -46 -87 q-32 -34 -37 -42 q-2 -4 -5 -1 q-14 22 -17 39 q0 3 4 2 q6 -5 31 19 q28 26 38 68 q-5 0 -16 -1 q-18 -2 -21 -2 q-20 -2 -20 -8 q0 -2 -2 -3 q-1 0 -2 2 q-5 7 -5 36 q1 3 3 2 q1 0 6 0 q17 1 27 1 q5 1 27 2 q8 1 11 1 q0 1 2 6 q2 10 3 13 q7 37 6 54 q-1 4 3 4 q17 -2 27 -5 q9 -3 6 -11 ZM183 65 q-4 -6 -5 -18 q0 -4 -4 -4 q-20 5 -33 7 q-7 0 -7 -3 q0 -2 -2 -3 q-2 0 -3 3 q-6 19 -4 22 q3 6 2 14 q0 2 1 2 q0 1 3 0 q23 -6 38 -13 q1 0 2 -1 q4 -1 9 -1 q5 0 3 -5 ZM102 175 q-3 -8 -4 -20 q-2 -4 -5 -3 q-9 3 -29 5 q-6 0 -6 -3 q0 -2 -2 -2 q-2 0 -3 2 q-5 23 -4 24 q3 5 2 13 q0 2 1 2 q0 1 3 0 q18 -4 28 -9 q8 -3 16 -4 q5 0 3 -5 Z" /><glyph glyph-name="" unicode="&#x4e3b;" d="M239 16 q0 -18 -5 -33 q-1 -5 -6 -1 q-8 6 -33 6 q-9 0 -27 0 q-106 1 -126 -3 q-10 -1 -9 -4 q-2 -3 -3 -4 q-2 0 -3 3 q-1 4 -2 12 q-1 9 -3 16 q-2 6 5 6 q7 -1 29 0 q8 1 58 1 q0 30 1 52 q-22 0 -39 -1 q-10 -1 -11 -6 q-2 -3 -3 -2 q-2 0 -3 3 q-5 10 -5 29 q0 6 5 5 q6 0 22 0 q22 1 34 1 q0 17 -1 33 q0 6 4 5 q19 0 27 -3 q5 -1 3 -9 q-2 -4 -2 -17 q-1 -5 -1 -8 q26 0 40 0 q14 0 16 1 q5 2 5 -1 q-1 -16 -5 -30 q-2 -5 -5 -2 q-1 2 -22 2 q-3 0 -11 0 q-12 1 -19 1 q-1 -8 -1 -27 q-1 -16 -1 -26 l65 0 q22 0 28 4 q3 2 3 1 q1 0 1 -4 ZM230 164 q0 -3 -1 -9 q-1 -12 -2 -19 q-2 -4 -6 -3 q-5 3 -22 3 q-97 -1 -141 -4 q-13 1 -12 -3 q-1 -3 -3 -2 q-2 0 -3 3 q-5 11 -5 26 q-1 6 6 6 q45 0 77 1 q0 1 1 4 q2 24 -1 35 q-1 3 0 4 q1 1 4 0 q4 -1 12 -2 q7 -1 11 -2 q7 -1 6 -10 q0 -2 -1 -6 q-3 -11 -3 -23 q41 0 61 0 q11 0 18 3 q4 1 4 -2 Z" /><glyph glyph-name="" unicode="&#x4e4b;" d="M237 18 q2 -10 -12 -38 q-2 -5 -7 -1 q-7 6 -27 9 q-5 1 -35 6 q-49 8 -55 10 q-39 18 -63 10 q-2 -2 -3 -2 q0 0 -1 2 q0 4 -3 10 q-3 4 -1 22 q1 4 5 2 q4 -1 8 -1 q4 2 15 8 q36 18 45 25 q3 2 13 9 q33 21 47 37 q2 3 2 4 q-1 1 -4 1 q-3 0 -29 -1 q-46 -1 -50 -2 q-12 -2 -18 -2 q-7 0 -8 -6 q-1 -4 -3 -4 q-1 0 -2 4 q-4 14 -4 32 q0 5 5 5 q10 1 32 1 q21 1 32 1 q3 33 1 48 q-1 2 0 3 q1 1 3 0 q5 -2 12 -2 q2 0 6 -1 q4 0 6 -1 q8 -3 6 -12 q-3 -21 -4 -35 q13 0 28 -1 q7 0 10 0 q25 -1 34 0 q9 1 8 -11 q0 -1 0 -2 q-2 -10 -8 -14 q-4 -3 -13 -9 q-14 -9 -20 -15 q-16 -16 -71 -50 q-20 -12 -30 -18 q12 -3 34 -9 q3 -1 5 -1 q25 -5 65 -9 q35 -2 42 1 q6 4 7 -3 Z" /><glyph glyph-name="" unicode="&#x4e50;" d="M228 106 q1 -18 -7 -33 q-2 -3 -5 -1 q-12 6 -34 6 q-15 0 -36 0 q-1 -9 -1 -18 q-1 -18 -1 -29 q0 -37 -13 -64 q-2 -4 -5 -1 q-15 19 -22 39 q-1 3 0 4 q0 1 2 0 q6 -3 8 17 q3 27 3 51 q-26 0 -49 -2 q-5 0 -8 -1 l-1 -1 q-1 -2 -3 -2 q0 -1 0 -1 q-4 -5 -7 0 q-4 8 -9 17 q-1 0 -1 1 q-1 1 -1 4 q-1 2 -3 5 q0 6 5 5 l0 -1 q0 2 1 6 q1 8 2 13 q0 2 0 8 q1 9 1 12 q0 3 1 9 q2 19 1 26 q0 4 4 4 q8 -1 14 -3 q1 0 1 0 q12 4 71 20 q18 5 22 6 q14 5 17 8 q3 4 7 1 q13 -8 18 -22 q3 -5 -3 -8 q-20 -5 -38 -8 q-55 -13 -81 -20 q-6 -18 -9 -51 q4 0 10 1 q7 1 39 1 q0 6 0 11 q1 33 -3 35 q-2 6 4 5 q10 0 14 1 q8 0 14 -3 q5 -1 3 -18 q-1 -8 -3 -30 q21 0 42 0 q31 0 35 3 q4 2 4 -2 ZM87 50 q5 -5 0 -10 q-17 -22 -26 -29 q-8 -7 -20 -18 q-3 -5 -4 -5 q-2 0 -4 3 q-13 18 -12 32 q1 2 1 2 q1 1 2 -1 q4 -3 10 3 q24 17 30 32 q3 5 7 3 q10 -6 16 -12 ZM181 54 q4 6 12 1 q28 -23 37 -20 q6 1 4 -6 q-5 -20 -16 -29 q-5 -5 -10 0 q-7 7 -21 25 q-3 5 -5 7 q-3 2 -1 22 Z" /><glyph glyph-name="" unicode="&#x4e5f;" d="M242 4 q-4 -13 -14 -26 q-1 -3 -5 -1 q-7 7 -54 9 q-5 0 -24 1 q-42 2 -48 3 q-15 2 -22 -3 q-2 -2 -2 -1 q-1 0 -2 2 q-11 12 -14 55 q-1 4 -1 47 q0 -1 -1 -1 q-29 -9 -26 -16 q-2 -4 -5 0 q-5 11 -7 37 q-1 3 1 3 q9 0 39 8 q0 29 -2 51 q0 5 5 6 q20 3 24 1 q8 -2 7 -22 q-1 -14 -1 -26 q4 1 12 3 q12 3 18 4 q0 20 1 34 q0 24 -2 33 q0 4 4 4 q10 0 21 0 q15 2 14 -13 q0 -2 -1 -10 q-2 -6 -2 -10 q0 -2 -2 -12 q-1 -11 -2 -18 q36 7 43 7 q9 0 17 2 q6 0 6 -4 q3 -12 -2 -24 q-3 -5 -7 -31 q-9 -39 -24 -57 q-6 -6 -10 0 q-4 6 -9 21 q-1 3 -2 5 q-1 4 2 4 q2 0 5 10 q8 20 9 39 q0 3 -4 2 q-9 0 -27 -5 q0 -3 -1 -9 q0 -6 0 -8 q-3 -38 -13 -63 q-1 -4 -7 0 q-12 17 -13 28 q3 21 4 45 q-15 -5 -30 -8 q-3 -57 0 -73 q0 -8 11 -8 q10 -2 43 -3 q38 -1 63 0 q25 -1 31 11 q2 2 2 1 q1 0 2 -2 q8 -7 2 -22 Z" /><glyph glyph-name="" unicode="&#x4e60;" d="M223 184 q0 -11 -3 -30 q-1 -8 -1 -12 q-1 -4 -2 -15 q-1 -5 -1 -8 q-4 -65 -15 -111 q-3 -17 -8 -24 q-2 -4 -7 -10 q-2 -2 -2 -3 q0 -3 -1 -4 q-1 0 -3 2 q-18 18 -23 36 q-1 3 -1 4 q1 2 3 1 q8 0 12 15 q11 50 13 131 q0 9 -7 8 q-94 -3 -124 -7 q-5 0 -7 -2 q-1 -2 -3 -2 q-1 0 -1 2 q-4 15 -5 27 q0 3 3 4 q10 0 25 2 q11 1 62 2 q44 1 53 0 q20 -2 32 1 q10 2 11 -7 ZM146 54 q-4 -5 -65 -38 q-18 -10 -20 -11 q0 0 -1 -1 q-5 -3 -7 -6 q-1 -2 -2 -2 q0 -1 -2 1 q-11 16 -16 36 q0 3 1 3 q0 1 2 0 q46 14 108 46 q2 3 4 -1 q4 -20 -2 -27 ZM126 93 q2 -8 -3 -11 q-22 3 -32 9 q-12 6 -41 17 q-2 1 -3 1 q-4 1 -4 3 q0 1 2 3 q9 9 20 15 q5 3 12 1 q1 0 1 -1 q4 -3 10 -6 q29 -15 38 -31 Z" /><glyph glyph-name="" unicode="&#x4e61;" d="M228 104 q-3 -7 -9 -18 q-5 -6 -8 -12 q-1 -2 -2 -4 q-32 -47 -89 -77 q-11 -6 -36 -14 q-2 -1 -3 -1 q-1 0 -3 -1 q-17 -5 -24 -10 q-4 -3 -5 0 q-3 12 -7 23 q-2 7 -2 18 q1 3 1 3 q1 0 4 -2 q6 -5 19 -2 q34 8 54 21 q3 3 11 8 q6 4 9 6 q12 7 21 16 q-39 -5 -79 -13 q-8 -1 -10 -7 q-1 -3 -2 -3 q-2 0 -5 3 q-6 6 -11 14 q-5 8 -5 20 q0 2 0 3 q1 4 4 4 l6 0 q1 0 3 1 q4 2 6 3 q1 1 4 2 q8 4 12 7 q4 3 12 9 q12 9 18 14 q-12 4 -22 4 q-3 0 -9 0 q-6 -1 -9 -1 q-1 0 -2 0 q-4 1 -6 -3 q-2 -2 -3 -3 q-1 0 -1 2 q-1 3 -7 14 q-4 11 -2 21 q2 3 3 3 q1 0 3 1 q1 0 2 0 l3 0 q34 24 49 50 q3 6 7 12 q2 4 5 2 q3 -1 7 -3 q4 -1 6 -3 q12 -5 15 -15 q0 -1 -1 -3 q-5 -4 -30 -26 q-16 -14 -22 -19 q5 -1 8 -1 q12 0 24 -4 q1 0 2 -1 q6 -2 9 -2 q6 5 16 15 q4 4 8 10 q1 2 2 3 q2 3 5 9 q2 1 2 2 q4 4 9 1 q1 0 3 -1 q4 0 7 -2 q12 -6 16 -15 q3 -7 -2 -8 q-9 -4 -18 -12 q-6 -6 -15 -13 q-17 -11 -47 -35 q-7 -6 -11 -9 q7 1 17 1 q25 0 50 4 q9 15 14 32 q1 4 4 3 q17 -8 25 -13 q4 -2 2 -8 Z" /><glyph glyph-name="" unicode="&#x4e86;" d="M116 132 l8 0 q7 3 10 8 q2 2 9 8 q9 7 13 11 q5 3 4 5 q0 1 -6 1 q-69 -1 -99 -8 q-10 -2 -10 -5 q-1 -5 -3 -5 q-2 1 -3 6 q-5 14 -7 36 q0 6 7 6 q3 0 7 0 q6 -1 10 0 q33 1 85 1 q46 1 67 0 q12 0 11 -11 q-1 -14 -11 -23 q-10 -9 -29 -27 q-21 -20 -29 -27 q-5 -26 -3 -54 q3 -51 -16 -82 q-2 -4 -4 -4 q-1 0 -5 4 q-17 20 -24 42 q-1 5 3 7 q11 4 12 9 q2 13 2 31 q0 3 0 4 q0 41 -3 63 q-1 5 4 4 Z" /><glyph glyph-name="" unicode="&#x4e89;" d="M85 119 q-24 -1 -24 -8 q-1 -2 -1 -2 q0 0 -2 2 q-3 3 -4 8 q0 1 0 4 q-2 -3 -4 -4 q-1 0 -2 2 q-3 11 -8 19 q-3 3 -2 8 q1 6 1 11 q0 2 1 3 q1 0 2 -2 q1 -3 8 1 q21 11 46 32 q9 8 12 19 q2 7 8 4 q4 -1 10 -1 q9 -1 14 -6 q7 -8 -1 -17 q-1 -1 -2 -2 q-1 0 -3 -3 q32 -5 60 -5 q6 0 7 -4 q0 -3 -1 -9 q1 4 -1 -2 q-5 -7 -12 -12 q-3 -3 -8 -8 q3 0 6 0 q12 -1 23 -1 q8 0 8 -8 q-3 -18 -6 -35 q20 1 25 4 q4 2 4 -1 q0 -2 0 -5 q-1 -4 0 -7 q0 -9 -6 -21 q-2 -5 -7 -2 q-5 3 -20 4 q-3 -12 -5 -22 q-3 -14 -12 -24 q-4 -5 -14 -1 q-13 5 -34 5 q-1 -6 -1 -10 q-3 -33 -13 -56 q-3 -6 -8 -1 q-11 12 -16 25 q-5 9 -9 14 q-4 5 0 5 q12 -2 15 15 q0 4 1 7 q-8 -1 -5 0 q-23 -2 -28 -2 q-19 -2 -19 -7 q-1 -2 -2 -2 q-1 0 -2 2 q-2 6 -5 22 q-1 5 -2 7 q-1 6 3 5 q12 -2 36 1 q11 2 25 2 q1 6 1 14 q-33 0 -56 -2 q-26 -2 -25 -8 q0 -2 -1 -2 q0 0 -2 2 q-3 4 -3 8 q-1 5 -3 17 q-1 3 -1 5 q-2 6 2 5 q22 0 41 2 q3 0 13 0 q22 1 35 1 l0 18 q-4 0 -13 0 q-9 -1 -14 -1 ZM106 164 q-14 -11 -27 -20 q3 1 12 1 q8 1 12 1 q20 3 40 2 q3 5 6 9 q2 2 1 3 q0 1 -2 1 q-9 0 -28 2 q-9 1 -14 1 ZM174 120 q-5 0 -15 0 q-10 1 -16 1 l0 -18 q25 0 36 0 q1 5 1 8 q0 9 -6 9 ZM174 67 q1 1 1 5 q1 2 1 4 q-20 0 -33 -1 q-1 -7 -1 -14 q16 0 25 -1 q6 -1 7 7 Z" /><glyph glyph-name="" unicode="&#x4e8e;" d="M219 193 q-2 -15 -4 -28 q0 -5 -5 -3 q-9 4 -45 4 q-7 0 -18 -1 q0 -3 -1 -8 q-2 -22 -2 -39 q24 0 56 0 q31 0 34 4 q2 1 3 1 q1 -1 1 -4 q1 -17 -7 -36 q-1 -2 -2 -2 q0 -1 -2 1 q-10 7 -54 7 q-5 0 -14 0 q-10 -1 -16 -1 q-1 -50 -8 -85 q-1 -7 -7 -25 q-1 -2 -1 -3 q-1 -4 -4 -5 q-2 0 -4 4 q-15 20 -21 38 q-1 2 0 2 q0 1 3 1 q3 2 5 10 q6 24 6 59 l0 1 q-22 -1 -66 -6 q-15 0 -13 -7 q0 -2 -2 -3 q-1 0 -2 2 q-7 14 -9 35 q-1 7 7 5 q20 0 58 3 q4 1 14 1 q8 1 13 1 q0 6 0 17 q1 16 1 26 q0 3 0 5 q-23 0 -43 -2 q-9 -1 -10 -7 q-1 -3 -2 -3 q-2 1 -3 4 q-2 9 -3 24 q-1 5 -1 7 q-1 8 5 7 q15 0 43 2 q51 2 77 1 q26 -1 38 1 q6 2 5 -5 Z" /><glyph glyph-name="" unicode="&#x4e92;" d="M230 176 q-1 -3 -1 -6 q-1 -6 -4 -12 q-2 -4 -8 -4 q-7 2 -20 3 q-7 0 -21 1 q-38 2 -49 1 l-1 0 q-1 -4 -4 -13 q-3 -8 -4 -13 q20 1 57 -1 q9 0 18 0 q10 1 9 -5 q0 -10 -3 -20 q-1 -3 -4 -13 q-4 -10 -5 -14 q-8 -28 -17 -64 l5 0 q59 -2 59 3 q2 1 2 0 q1 0 1 -2 q1 -20 -8 -35 q-2 -4 -5 -1 q-3 5 -34 6 q-71 1 -128 -2 q-28 -1 -32 -6 q-1 -3 -3 -3 q-2 0 -3 3 q-6 16 -6 27 q-2 7 6 6 q6 -1 26 1 q2 0 4 0 q33 3 83 3 q2 5 5 17 q2 6 3 9 q-17 1 -51 -1 q-18 -2 -17 -7 q-1 -3 -2 -3 q-2 0 -3 3 q-6 9 -10 26 q-1 4 2 7 q12 26 24 88 q-14 -1 -31 -4 q-7 0 -9 -5 q-2 -3 -5 0 q-5 9 -7 26 q0 2 1 6 q0 3 0 5 q-1 3 4 2 q2 0 7 -1 q7 -1 11 0 q34 4 75 5 q33 2 62 -1 q17 0 26 1 q6 1 6 -3 q0 -6 -1 -10 ZM107 69 q9 1 32 2 q11 1 16 1 q2 5 4 14 q1 6 2 9 q2 9 -4 8 q-3 0 -10 0 q-29 1 -39 -1 q-4 -12 -6 -24 q-2 -5 -1 -7 q1 -2 6 -2 Z" /><glyph glyph-name="" unicode="&#x4e94;" d="M239 20 q1 -12 -9 -32 q-1 -5 -5 -2 q-13 6 -57 4 q-111 0 -131 -2 q-6 0 -6 -2 q-2 -3 -4 0 q-4 4 -4 9 q-1 15 -3 20 q-1 4 0 5 q1 1 4 0 q15 -3 43 -1 q3 0 8 0 q1 5 4 18 q6 32 11 53 q-14 -1 -19 -1 q-9 -1 -9 -3 q0 -2 -1 -2 q-1 0 -2 2 q-6 9 -4 30 q0 3 4 3 q5 1 37 1 q5 24 4 38 q-21 0 -28 0 q-20 -1 -21 -5 q-1 -2 -3 -2 q-1 0 -2 2 q-5 20 -5 33 q0 3 4 3 q6 -2 46 0 q10 1 46 1 q36 0 45 -1 q33 -2 36 1 q4 2 5 -5 q0 -2 -1 -6 q-1 -18 -3 -22 q-1 -3 -7 -1 q-9 3 -20 3 q-14 0 -55 0 q-1 -3 -2 -9 q-5 -18 -8 -30 q26 0 34 0 q20 -1 33 0 q10 0 8 -10 q-3 -7 -6 -19 q-1 -6 -5 -27 q-4 -32 -7 -44 l39 0 q10 0 14 2 q3 1 2 -2 ZM122 89 q-3 -16 -9 -43 q-3 -19 -5 -27 q5 0 15 0 q19 1 31 0 q6 25 10 64 q0 6 -5 6 q-4 1 -20 0 q-11 0 -17 0 Z" /><glyph glyph-name="" unicode="&#x4e95;" d="M244 80 q-1 -17 -8 -32 q-1 -5 -6 -2 q-11 6 -51 8 q0 -21 0 -43 q0 -31 -11 -45 q-4 -3 -7 1 q-3 3 -8 12 q-3 4 -4 6 q-4 6 -7 14 q0 2 1 2 q4 0 4 5 q0 9 2 29 q0 6 2 18 q-2 -8 0 2 l-8 0 q-6 0 -18 -1 q-12 0 -18 -1 q-11 -43 -35 -73 q-1 -1 -2 -3 q-7 -7 -8 -11 q-1 -2 -3 0 q-16 20 -20 33 q0 2 2 1 q8 0 18 14 q13 22 16 37 q-16 -1 -33 -4 q-3 0 -7 -1 q-2 0 -2 0 q-2 -3 -3 -4 q-2 0 -3 3 q-4 9 -6 28 q-1 4 1 6 q1 1 4 -1 q4 -1 15 -1 q20 2 39 3 q2 23 2 45 q-4 0 -11 -1 q-8 -1 -12 -2 q-7 0 -7 -2 q-1 -3 -2 -3 q-2 -1 -4 2 q-4 10 -6 31 q0 3 2 2 q20 0 40 1 q0 5 0 11 q0 8 -1 21 q0 9 -1 20 q-1 2 0 3 q0 0 2 0 q5 0 18 0 q7 1 12 -2 q5 -3 3 -10 q0 -2 -1 -6 q-1 -11 -1 -26 q0 -5 0 -11 q7 1 14 1 q4 0 13 1 q8 0 12 0 q0 5 0 11 q0 38 -1 43 q0 3 2 3 q9 -1 17 0 q7 0 12 -4 q4 -4 4 -13 q-2 -20 -2 -40 q11 0 21 -1 q11 0 13 1 q3 2 4 2 q1 -1 2 -4 q1 -12 -4 -29 q-1 -3 -5 0 q-7 2 -15 2 q-9 0 -18 0 q-2 -20 -2 -44 q18 -1 35 -1 q19 0 24 2 q5 2 5 -3 ZM153 127 q-22 0 -40 -1 q0 -25 -2 -45 q4 0 12 1 q8 0 12 0 l17 0 q1 14 1 45 Z" /><glyph glyph-name="" unicode="&#x4ea4;" d="M234 0 q-10 -15 -19 -21 q-3 -3 -6 1 q-1 3 -13 9 q-13 5 -31 15 q-7 4 -11 7 q-10 6 -21 14 q-4 -3 -12 -8 q-8 -6 -12 -9 q-28 -18 -52 -28 q-5 -1 -12 -8 q-6 -5 -10 0 q-7 11 -8 22 q1 5 -1 13 q-1 3 1 4 q2 1 4 -1 q4 -3 12 -2 q1 1 2 1 q26 10 49 25 q2 1 4 3 q5 3 12 8 q-12 10 -19 19 q-3 5 -7 1 q-2 -2 -3 -2 q0 0 -2 3 q-2 4 -2 12 q1 10 1 19 q-1 -1 -3 -2 q-4 -4 -7 -5 q-17 -10 -20 -18 q-1 -2 -2 -2 q0 0 -2 2 q-11 20 -11 34 q0 3 0 3 q0 1 2 0 q1 -6 23 10 q24 18 26 25 q0 2 1 2 q0 1 2 0 q18 -9 21 -15 q3 -4 0 -6 q-2 -1 -7 -6 q-4 -5 -7 -7 q-3 -3 -6 -6 q1 0 1 -1 q10 -5 26 -21 q3 -3 5 -5 q6 -7 12 -12 q6 6 11 15 q7 12 7 23 q0 4 2 5 q2 1 6 -1 q3 -2 9 -4 q5 -1 8 -2 q12 -1 3 -20 q-9 -19 -22 -35 q13 -9 31 -19 q19 -12 32 -13 q10 0 14 1 q3 1 4 0 q2 -1 1 -4 q-2 -4 -3 -10 q-1 -2 -1 -3 ZM235 184 q2 -14 -7 -35 q-2 -3 -3 -2 q-1 0 -1 0 q-10 7 -47 7 q-56 0 -110 -9 q-36 -4 -29 -7 q0 -3 -1 -4 q-2 0 -3 3 q-6 10 -8 37 q1 3 6 2 q4 -4 41 0 q13 2 36 4 q4 0 6 0 q0 29 -2 33 q0 3 1 3 q3 0 10 0 q13 1 18 0 q8 -2 6 -10 q-3 -18 -3 -25 q16 1 51 1 q31 -1 36 3 q1 1 2 1 q1 -1 1 -2 ZM226 118 q-3 -14 -8 -19 q-5 -6 -8 -12 q-2 -4 -5 -1 q-6 2 -26 18 q-7 6 -18 15 q-3 2 -4 3 q-3 3 -3 5 q0 12 1 18 q0 5 4 3 q5 -1 21 -11 q3 -1 4 -2 q24 -14 37 -13 q6 0 5 -4 Z" /><glyph glyph-name="" unicode="&#x4eba;" d="M244 26 q-4 -25 -25 -42 q-5 -6 -8 0 q-12 12 -28 25 q-26 24 -53 60 q-4 4 -7 7 q-4 -12 -17 -36 q-4 -9 -26 -33 q-4 -4 -6 -6 q-12 -11 -33 -25 q-1 -2 -4 -5 q-2 -3 -4 -4 q-4 -3 -6 0 q-5 16 -10 27 q-3 6 -3 13 q-1 3 3 3 q2 0 10 -1 q9 3 31 25 q52 59 54 162 q0 9 6 6 q6 -1 20 -5 q3 -1 4 -1 q9 -3 9 -12 q-1 -7 -6 -25 q-3 -11 -4 -17 q-1 -8 -5 -24 q-1 -5 -2 -8 q7 -9 16 -18 q40 -43 55 -53 q21 -14 36 -10 q3 0 3 -3 Z" /><glyph glyph-name="" unicode="&#x4ece;" d="M241 23 q-3 -18 -19 -39 q-3 -4 -6 1 q-2 6 -16 23 q-6 8 -9 12 q-2 3 -5 7 q-12 14 -17 25 q-1 2 -3 5 q-14 -31 -35 -58 q-1 -1 -3 -3 q-8 -8 -9 -16 q0 -2 -1 -2 q-2 -1 -3 1 q-2 5 -8 15 q-9 17 -12 25 q-1 5 5 4 q8 -3 13 3 q26 34 36 69 q11 44 11 102 q0 4 1 5 q1 1 5 0 q4 -1 19 -4 q4 -1 5 -1 q7 -1 7 -9 q1 -6 -1 -11 q-1 -3 -3 -10 q-4 -18 -5 -25 q-3 -22 -8 -43 q0 -1 -1 -4 q0 -2 -1 -4 q6 -6 10 -14 q2 -2 5 -8 q17 -24 24 -31 q12 -12 22 -10 q4 1 2 -5 ZM125 56 q-3 -7 -9 -2 q-8 10 -31 23 q-13 -38 -43 -77 q-6 -5 -8 -18 q-2 -4 -5 0 q-2 4 -6 12 q-11 18 -14 27 q-1 5 5 4 q6 -3 11 3 q27 37 35 70 q7 24 7 83 q0 6 0 10 q0 4 1 4 q1 1 5 0 q3 -1 17 -3 q5 -1 7 -1 q6 -1 6 -9 q1 -6 -1 -11 q-2 -11 -4 -27 q-1 -4 -2 -12 q-2 -17 -4 -26 q1 0 1 0 q3 -2 13 -9 q15 -9 19 -12 q5 -4 2 -9 q0 -3 -1 -12 q-1 -7 -1 -8 Z" /><glyph glyph-name="" unicode="&#x4ed6;" d="M246 4 q-1 -2 -3 -4 q-6 -15 -12 -22 q-1 -3 -5 -1 q-6 7 -50 9 q-17 1 -30 4 q-16 3 -21 -4 q-2 -2 -5 1 q-10 14 -14 55 q0 13 0 50 q-13 -5 -13 -11 q0 -2 -2 -2 q-1 0 -2 2 q-6 13 -8 34 q0 4 2 4 q3 1 12 3 q7 2 12 3 q0 22 -2 41 q0 4 5 5 q18 4 22 1 q8 -2 7 -22 q0 -3 -1 -9 q0 -5 0 -7 q3 1 8 2 q5 2 7 2 q0 7 1 20 q0 10 0 14 q0 23 -1 32 q-1 3 0 3 q0 1 3 1 q3 0 10 1 q7 0 10 0 q13 1 12 -13 q0 -4 -2 -20 q0 -2 -2 -12 q-1 -11 -2 -18 q17 4 30 4 q5 0 15 2 q-6 -2 2 0 q6 2 6 -3 q3 -12 -2 -24 q-2 -5 -5 -18 q-1 -5 -2 -8 q-9 -48 -24 -64 q-2 -3 -4 -3 q-2 0 -3 3 q-4 8 -10 22 q-2 3 -2 4 q0 5 2 5 q3 -2 6 10 q6 20 7 39 q1 3 -3 3 q-3 0 -9 -2 q-5 -1 -7 -1 q0 -3 -1 -9 q0 -6 0 -8 q-3 -38 -11 -63 q-2 -4 -6 0 q-12 15 -13 28 q3 21 4 45 q-2 -1 -7 -2 q-5 -2 -8 -3 l0 -2 q-4 -58 -1 -74 q-1 -8 10 -9 q24 -3 63 -2 q25 0 31 11 q2 3 4 0 q7 -8 2 -23 ZM76 137 q0 -8 -2 -16 q-2 -8 -2 -33 q-1 -27 0 -51 q0 -30 -1 -33 q-2 -7 -2 -14 q0 -6 -6 -18 q-5 -5 -8 1 q-2 3 -6 10 q-3 5 -4 6 q-5 6 -8 13 q-3 6 1 7 q1 1 2 5 q1 2 1 3 q3 25 3 72 q0 13 0 26 q-2 -1 -5 -4 q-4 -3 -6 -5 q-6 -6 -8 -11 q-2 -4 -3 -3 q-1 0 -4 5 q-1 3 -6 10 q-2 4 -3 6 q-3 9 -5 19 q0 2 0 3 q0 2 2 2 q1 1 2 -1 q4 -3 9 0 q21 11 57 47 q2 2 6 6 q4 3 6 5 q6 6 9 -1 q1 -3 3 -8 q3 -6 4 -9 q2 -4 -3 -9 q-5 -5 -16 -16 q-6 -6 -9 -9 q2 -3 2 -5 Z" /><glyph glyph-name="" unicode="&#x4ed9;" d="M189 172 q-1 -16 -3 -33 q0 -8 0 -36 q-1 -45 -1 -65 q-1 -8 -1 -14 l13 -1 q6 0 11 1 q1 7 2 20 q3 25 4 40 q2 25 0 47 q0 4 2 5 q1 2 5 0 q9 -3 12 -3 q20 1 11 -28 q-3 -11 -5 -49 q-5 -51 -10 -56 q-2 -5 -8 -10 q-1 -1 -2 -2 q-4 -6 -6 -2 q0 0 0 1 q-1 1 -1 2 q-1 0 -3 1 q-3 3 -32 3 q-25 -2 -46 -7 q-10 -1 -12 -7 q-1 -3 -3 -3 q-2 0 -4 3 q-1 4 -3 9 q-2 4 -2 5 q0 2 -1 5 q-4 13 -4 17 q0 15 0 33 q0 16 0 46 q0 15 -3 26 q-1 6 3 6 q5 -1 11 0 q14 2 16 -16 q2 -12 2 -44 q0 -7 -1 -18 q-1 -18 -1 -24 q0 -6 5 -5 q11 2 21 3 q0 6 0 11 q2 58 0 114 q0 47 -1 51 q-1 5 0 6 q1 1 6 0 q6 0 10 0 q26 3 19 -32 ZM78 124 q0 -8 -1 -24 q0 -17 -1 -24 q-2 -29 -2 -44 q3 -41 -9 -63 q-2 -3 -4 -3 q-1 0 -3 3 q-2 3 -5 9 q-2 4 -3 6 q-7 9 -9 16 q-3 6 1 5 q3 0 3 7 q0 6 1 14 q3 15 2 59 q0 17 0 30 q-2 -2 -5 -5 q-3 -2 -4 -3 q-9 -7 -13 -16 q-1 -3 -2 -3 q-1 0 -3 2 q-15 26 -14 30 q0 3 0 6 q0 3 -1 5 q0 2 1 3 q1 0 2 -1 q3 -7 14 1 q39 29 67 59 q4 4 8 -2 q1 -3 3 -9 q1 -4 2 -6 q2 -5 -4 -11 q-4 -4 -12 -12 q-8 -9 -12 -13 l1 -1 q2 -2 2 -15 Z" /><glyph glyph-name="" unicode="&#x4ee3;" d="M236 12 q0 -1 -1 -3 q-1 -4 -1 -7 q0 -2 -6 -13 q-4 -6 -6 -10 q0 0 -1 -1 q-2 -7 -7 0 q-2 2 -6 6 q-29 27 -34 36 q-18 25 -30 60 q-1 4 -3 11 q-1 3 -1 4 q-18 -2 -24 -4 q-7 -1 -8 -4 q-2 -3 -3 -3 q-2 0 -3 3 q-2 3 -3 7 q0 3 -2 8 q-1 7 -2 11 q-3 9 7 8 q11 1 25 2 q6 1 9 1 q-1 6 -1 11 q-2 52 -6 62 q-3 7 6 7 q6 1 12 1 q22 2 19 -18 q0 0 0 -1 q-2 -12 -1 -24 q0 -21 1 -35 q4 0 13 1 q9 0 13 0 q3 0 10 1 q13 0 19 2 q9 0 14 2 q3 2 4 2 q1 0 1 -3 q0 -16 -1 -21 q0 -5 -3 -11 q-2 -5 -3 -5 q-1 -1 -5 3 q-2 2 -24 2 q-14 -1 -28 -1 q-1 0 -3 0 q-2 -1 -3 -1 q0 -2 1 -6 q-1 2 1 -2 q3 -13 16 -38 q2 -3 3 -5 q15 -16 29 -27 q6 -6 12 -3 q0 0 1 0 q6 3 3 -5 ZM83 129 q0 -4 -1 -12 q-2 -14 -2 -20 q-1 -22 -1 -58 q1 -27 -2 -52 q0 -7 -8 -17 q-2 -3 -4 -3 q-2 1 -4 5 q-2 6 -9 14 q-6 6 -9 15 q-1 3 2 6 q6 6 6 43 q0 9 1 37 q0 18 -1 28 q-3 -3 -5 -5 q-1 -1 -4 -3 q-11 -9 -13 -14 q-1 -4 -3 -4 q-1 0 -3 3 q-7 12 -13 27 q0 5 0 11 q0 4 1 5 q1 0 4 -2 q4 -3 12 4 q8 7 28 21 q5 3 6 4 q18 13 34 31 q6 7 10 0 q2 -7 5 -13 q2 -9 -5 -15 q-9 -11 -25 -25 q4 -6 3 -11 ZM225 166 q-2 -1 -6 -4 q-13 -10 -20 -14 q-1 -1 -3 -2 q-5 -3 -6 -4 q-3 -4 -5 -3 q-1 0 -2 5 q-3 6 -3 14 q0 6 5 10 q6 7 15 22 q1 6 6 4 q3 -1 12 -9 q4 -3 5 -4 q11 -6 2 -15 Z" /><glyph glyph-name="" unicode="&#x4ee5;" d="M250 20 q0 -1 -5 -11 q-4 -10 -5 -11 q-4 -8 -11 -14 q-5 -2 -6 0 q-3 5 -4 8 q-8 6 -13 11 q-5 8 -17 21 q-4 4 -6 6 q-1 1 -4 4 q-5 6 -7 8 q-7 -12 -27 -37 q-12 -10 -33 -25 q-3 -2 -6 -6 q-2 -2 -3 -3 q-4 -3 -5 0 q-2 4 -4 12 q-4 11 -5 13 q-1 3 -2 8 q-1 3 -1 5 q-1 3 3 3 q2 0 10 -1 q8 1 31 24 q48 55 48 165 q-1 8 6 6 q4 -1 13 -3 q7 -2 10 -2 q10 -3 10 -12 q-1 -6 -5 -22 q-4 -14 -5 -20 q-10 -47 -21 -72 q10 -8 19 -20 q21 -26 34 -31 q3 -1 6 -1 q3 1 4 0 q2 -1 1 -3 ZM108 40 q0 -4 -3 -6 q-3 -1 -14 -7 q-37 -18 -36 -18 q-6 -2 -6 -8 q-2 -4 -5 -2 q-4 1 -7 7 q0 0 -1 1 q-1 2 -2 6 q-2 4 -3 6 q-2 8 -2 19 q0 5 5 3 q0 -1 0 -1 q2 26 2 59 q0 6 1 15 q0 8 0 14 q0 3 -1 11 q-1 36 -3 40 q-1 5 3 4 q5 -1 21 1 q15 0 12 -22 q0 -2 -1 -7 q-3 -13 -3 -20 q0 -27 -1 -32 q0 -7 0 -26 q1 -21 0 -29 q11 3 19 6 q6 2 17 6 q7 2 10 3 q2 1 2 0 q1 -1 0 -3 q-6 -9 -4 -20 ZM133 106 q2 -5 8 -27 q1 -5 -5 -5 q-10 1 -18 7 q-6 5 -8 9 q-15 31 -24 35 q-4 4 2 7 q1 1 4 2 q2 1 3 1 q8 3 12 6 q9 4 14 -3 q3 -3 10 -26 q1 -4 2 -6 Z" /><glyph glyph-name="" unicode="&#x4eec;" d="M241 174 q0 -6 -3 -26 q-3 -11 -3 -22 q-1 -8 -1 -44 q0 -12 -5 -68 q0 3 -1 -6 q-1 -9 -11 -33 q-1 -5 -3 -5 q-1 0 -3 4 q-14 20 -20 39 q-1 6 4 5 q3 -3 4 8 q5 26 6 49 q1 22 0 71 q1 5 -5 6 q-16 0 -31 -4 q-7 -1 -7 -5 q0 -3 -2 -3 q-1 0 -2 2 q-9 19 -4 38 q1 3 4 0 q5 -1 21 0 q15 3 30 0 q10 -1 23 2 q9 1 9 -8 ZM74 137 q0 -8 -2 -16 q-2 -15 -2 -83 q0 -29 -1 -34 q-2 -5 -2 -13 q0 -10 -6 -18 q-2 -3 -4 -2 q-2 0 -3 3 q-1 1 -2 3 q-6 11 -8 12 q-5 7 -7 14 q-3 5 1 6 q2 1 2 8 q4 25 4 72 q0 13 -1 25 l-10 -8 q-6 -6 -8 -11 q-2 -4 -3 -3 q-1 0 -4 5 q-1 3 -6 10 q-2 4 -3 6 q-3 9 -5 19 q0 2 0 3 q0 2 2 2 q1 1 2 -1 q4 -3 9 0 q21 11 57 47 q2 2 6 6 q4 3 6 5 q6 6 9 -1 q1 -3 3 -8 q3 -6 4 -9 q2 -4 -3 -9 q-11 -12 -26 -26 q0 0 1 -2 q0 -1 0 -2 ZM125 137 q-2 -17 -2 -51 q1 -55 -1 -74 q-2 -21 -10 -40 q-1 -4 -3 -4 q-1 0 -3 3 q-11 16 -18 31 q-3 5 1 6 q3 1 4 10 q6 47 1 121 q-1 4 3 5 q13 2 22 1 q6 1 6 -8 ZM151 194 q-1 -5 -5 -16 q-1 -3 -1 -4 q0 -5 -4 -6 q-3 -1 -10 -3 q-7 -2 -10 -3 q-5 -1 -6 -9 q0 -2 -2 -2 q-1 0 -2 3 q-4 24 -1 44 q0 2 1 2 q2 1 4 -1 q3 -4 32 -1 q3 1 4 0 q1 -1 0 -4 Z" /><glyph glyph-name="" unicode="&#x4efb;" d="M237 18 q-1 -13 -5 -26 q-1 -5 -5 -3 q-8 3 -26 3 q-40 0 -73 -4 q-13 -2 -13 -7 q0 -3 -2 -3 q-1 0 -3 2 q-6 12 -6 32 q0 6 7 6 q16 0 43 2 q0 32 1 56 q-23 -2 -39 -3 q-14 -1 -15 -6 q-1 -3 -2 -3 q-2 0 -3 2 q-7 18 -6 23 q0 7 -1 10 q-1 2 0 3 q0 0 4 0 q10 0 31 2 q15 2 31 2 q0 26 -1 42 q-6 -1 -18 -6 q-5 -1 -7 -2 q-11 -3 -14 -7 q-2 -2 -4 -2 q-1 0 -2 3 q-5 28 2 39 q1 3 3 3 q1 1 1 -2 q1 -4 10 -1 q37 9 60 17 q10 3 13 11 q2 4 7 1 q4 -3 11 -6 q12 -3 15 -18 q0 -8 -4 -9 q-2 -1 -7 -2 q-13 -2 -28 -7 q-1 0 -3 -1 q-3 -1 -4 -2 q5 -3 3 -10 q-3 -17 -4 -40 l32 0 q18 0 28 5 q3 1 4 1 q1 -1 0 -3 q0 -24 -6 -37 q-1 -3 -2 -3 q-1 -1 -3 1 q-8 7 -35 5 q-9 0 -18 0 q0 -33 -1 -54 q17 0 29 0 q11 -1 19 1 q6 1 6 -5 ZM85 131 q-3 -15 -3 -34 q-1 -16 -1 -59 q0 -7 0 -16 q1 -18 -1 -29 q-2 -14 -9 -25 q-2 -2 -3 -2 q-2 0 -3 3 q-2 3 -6 9 q-5 6 -7 9 q0 0 -1 1 q-2 3 -7 12 q-1 6 2 7 q3 1 2 7 q0 12 3 24 q1 1 1 58 q0 10 0 19 q-7 -7 -15 -13 q-6 -4 -10 -13 q-2 -2 -2 -2 q-1 0 -3 2 q-3 5 -9 15 q-3 7 -5 10 q-1 2 -1 17 q1 4 4 2 q4 -5 10 0 q47 34 68 63 q4 3 9 -3 q1 -2 6 -10 q1 -3 2 -4 q3 -8 -1 -13 q-2 -2 -7 -7 q-3 -4 -18 -18 q6 -6 5 -10 Z" /><glyph glyph-name="" unicode="&#x4f19;" d="M196 179 q-1 -6 -5 -31 q-1 -9 -2 -13 q-2 -30 -7 -52 q7 -8 16 -21 q16 -24 33 -40 q7 -4 15 -4 q7 1 5 -6 q-5 -18 -20 -30 q-7 -6 -9 2 q-3 9 -14 17 q-17 18 -36 49 q0 0 0 1 q-12 -29 -49 -63 q-9 -9 -10 -14 q-2 -5 -4 -5 q-2 -1 -4 3 q-10 13 -14 34 q-1 2 1 3 q1 1 3 -1 q3 -4 15 8 q41 35 48 94 q8 57 5 87 q-1 5 0 6 q1 2 6 1 q1 0 2 0 q5 -2 12 -2 q20 -1 13 -23 ZM88 132 q-2 -15 -3 -34 q-1 -16 -1 -59 q0 -7 0 -17 q1 -18 -1 -29 q-2 -14 -9 -25 q-2 -2 -3 -2 q-1 0 -2 3 q-1 2 -4 6 q-4 7 -8 12 q0 0 -1 1 q-2 3 -6 12 q-2 4 1 7 q4 1 3 7 q0 12 2 24 q2 12 2 58 q0 13 -1 22 q-4 -4 -13 -12 q6 5 -3 -2 q-5 -4 -11 -13 q-1 -2 -2 -2 q0 0 -2 2 q-7 14 -12 23 q-1 2 -1 17 q0 2 1 3 q1 0 2 -1 q5 -5 10 0 q44 31 66 63 q5 3 10 -3 q2 -6 6 -13 q3 -7 -1 -12 q-3 -3 -10 -11 q-10 -10 -15 -15 q7 -4 6 -10 ZM142 133 q-1 -5 -1 -18 q1 -4 -5 -9 q-2 -2 -6 -7 q-5 -6 -7 -8 q-3 -2 -3 -6 q0 -4 -1 -4 q-1 0 -3 4 q-10 24 -11 36 q0 6 -1 14 q0 5 6 2 q7 -1 13 -1 q7 -1 13 0 q4 2 5 1 q2 -1 1 -4 ZM247 134 q-1 -5 -4 -14 q-1 -3 -2 -5 q-2 -5 -5 -4 q-1 0 -2 0 q-2 -1 -3 -1 q-1 -1 -4 -2 q-3 -2 -6 -3 q-4 0 -6 -3 q0 -4 -1 -4 q-2 0 -4 4 q-4 10 -4 17 q1 3 1 13 q1 10 1 14 q1 4 2 4 q0 0 2 -2 q2 -2 8 -4 q1 0 2 0 q1 0 7 -1 q10 -2 14 -2 q6 -1 4 -7 Z" /><glyph glyph-name="" unicode="&#x4f1a;" d="M148 191 q0 0 -1 -1 q33 -26 61 -45 q23 -17 37 -15 q4 1 5 -1 q1 -2 0 -6 q-5 -14 -21 -28 q-3 -3 -5 -1 q-15 13 -31 22 q-2 2 -7 5 q-2 1 -3 2 q-1 -2 -1 -7 q-1 -5 -1 -8 q-1 -6 -6 -3 q-8 5 -33 3 q-24 0 -41 -2 q-12 -1 -16 -7 q-2 -4 -5 0 q-3 8 -4 19 q-11 -7 -20 -15 q-18 -12 -25 -21 q-1 -2 -3 -2 q-1 0 -2 2 q-2 6 -8 15 q-6 8 -4 26 q1 4 4 2 q10 -8 30 8 q56 48 69 79 q1 6 6 3 q12 -2 24 -9 q7 -6 1 -15 ZM127 50 q3 -7 -2 -9 q-7 -4 -16 -15 q-6 -7 -15 -15 q24 3 60 3 q3 0 9 1 q6 0 8 0 q-4 6 -16 20 q-1 1 -2 2 q-2 2 -1 2 q0 1 2 2 q11 2 22 4 q11 1 14 -5 q6 -14 12 -23 q11 -11 12 -40 q-2 -4 -6 -4 q-13 10 -22 22 q-10 0 -21 -2 q-50 -4 -99 -11 q-6 -1 -5 -7 q0 -2 -1 -2 q0 -1 -2 0 q0 0 -1 1 q-2 3 -6 11 q-7 12 -5 24 q0 1 2 1 q0 0 1 0 q2 0 3 0 l1 0 q4 2 8 6 q18 15 30 32 q3 5 5 9 q-18 -1 -36 -3 q-6 -1 -6 -3 q-1 -3 -3 -3 q-1 0 -3 2 q-6 16 -6 31 q0 3 2 2 q43 0 85 2 q3 0 8 0 q39 2 63 1 q11 0 13 1 q3 1 4 1 q1 -1 1 -4 q1 -14 -3 -28 q-1 -3 -6 -1 q-6 3 -14 2 q-17 1 -38 1 q-20 0 -38 0 q1 -1 3 -3 q2 -1 5 -5 ZM161 136 q3 0 5 0 q-2 2 -6 6 q-5 4 -7 6 q-14 14 -25 21 l-15 -16 q-9 -10 -19 -19 q7 0 20 1 q3 0 7 0 q24 2 40 1 Z" /><glyph glyph-name="" unicode="&#x4f20;" d="M211 -20 q-2 -1 -4 -7 q-1 -1 -1 -2 q-2 -4 -8 -4 q-14 -1 -19 4 q-6 3 -22 11 q-16 8 -20 10 q-5 1 -8 0 q-2 -2 -3 -1 q-1 0 -1 3 q0 8 -1 18 q1 9 4 17 q1 3 4 1 q2 -1 4 -3 q3 -3 8 -6 q2 -2 10 -7 q3 -1 4 -2 q4 3 8 13 q7 8 10 16 q2 3 -3 4 q-19 3 -40 -2 q-4 -1 -7 -4 q-2 -2 -3 0 q-4 9 -7 20 q0 1 0 3 q-1 4 -1 6 q0 3 3 3 q2 -1 3 -1 q0 1 2 1 q6 4 8 11 q0 1 1 3 q1 2 3 9 q-1 0 -4 0 q-22 -2 -26 -3 q-3 0 -3 -2 q0 -2 -2 -2 q-1 -1 -2 1 q-4 9 -4 22 q0 8 -1 9 q-1 2 0 2 q13 0 21 0 q4 1 15 1 q10 1 15 1 q2 11 5 21 q-5 0 -14 -1 q-9 0 -14 -1 q-3 0 -3 -5 q-2 -3 -5 0 q-3 6 -4 10 q-1 6 -1 23 q0 2 2 1 l4 0 q14 0 27 1 q6 0 14 1 q3 18 6 35 q0 3 1 3 q0 1 2 0 q4 -1 11 -3 q3 -1 4 -1 q4 0 11 -4 q-1 0 1 -1 q5 -2 2 -8 q-1 -7 -6 -21 q7 1 18 0 q5 0 7 0 q8 0 14 1 q5 2 6 -2 q1 -7 -1 -18 q-2 -4 -2 -9 q0 -4 -7 -2 q-7 2 -30 2 q-6 0 -13 0 q-3 -10 -7 -21 l2 0 q8 0 24 0 q15 -1 23 -1 q13 0 18 2 q2 2 2 1 q1 0 1 -3 q0 -6 0 -13 q0 -7 -7 -18 q-1 -4 -4 -2 q-4 4 -14 5 q-3 0 -5 0 q-7 1 -31 0 q-9 0 -12 0 q-2 0 -5 0 q-2 -5 -5 -15 q-1 -5 -2 -7 l5 0 q9 0 26 1 q17 0 25 0 q8 0 8 -7 q-2 -16 -8 -23 q-5 -5 -8 -11 q-2 -4 -6 -10 q-2 -3 -3 -5 q-6 -7 -10 -15 q0 -3 -2 -3 q10 -4 14 -6 q8 -6 13 -8 q3 -4 0 -6 ZM83 132 q-2 -15 -3 -34 q-1 -16 -1 -59 q0 -5 0 -14 q1 -20 -2 -32 q-1 -14 -9 -25 q-1 -2 -2 -2 q-2 0 -3 3 q-2 3 -6 10 q-3 5 -5 8 q0 0 -1 1 q-2 3 -7 12 q-1 6 2 7 q3 1 2 7 q0 12 3 24 q1 1 1 58 q0 13 0 22 q-1 -1 -3 -2 q-6 -5 -13 -12 q-7 -4 -11 -13 q-2 -2 -2 -2 q-1 0 -2 2 q-4 6 -9 16 q-3 4 -4 7 q-1 2 -1 17 q1 4 4 2 q4 -5 10 0 q47 34 68 63 q4 3 9 -3 q0 -1 2 -5 q3 -4 4 -7 q3 -7 -1 -13 q-11 -11 -26 -26 q6 -5 6 -10 Z" /><glyph glyph-name="" unicode="&#x4f34;" d="M189 195 q-3 -21 -5 -54 q0 -5 0 -7 q0 -3 0 -6 q10 0 29 1 q12 0 16 0 q7 2 7 -4 q0 -15 -3 -24 q0 -4 -5 -2 q-6 2 -30 2 q-6 0 -14 0 q0 -14 0 -26 q3 -1 6 -1 q53 -2 57 2 q3 1 3 0 q1 0 1 -2 q1 -15 -8 -32 q-1 -4 -5 -1 q-4 5 -55 6 q0 -15 0 -31 q0 -12 -1 -15 q-4 -5 -3 -15 q0 -6 -7 -17 q-3 -4 -4 -4 q-2 0 -4 4 q-6 9 -14 22 q-3 5 -4 7 q-2 5 1 7 q3 1 3 7 q0 6 3 17 q0 4 1 12 q1 3 1 5 q-36 -2 -43 -4 q-8 0 -8 -5 q-1 -4 -2 -4 q-2 0 -3 4 q-5 13 -5 27 q-1 9 7 8 q16 0 30 1 q3 1 12 1 q9 1 13 1 q0 4 1 12 q0 8 0 12 q-4 0 -11 -1 q-16 -1 -23 -2 q0 0 -1 0 q-4 -1 -6 -4 q-1 -2 -2 -2 q0 0 -2 2 q-6 16 -5 29 q-1 5 5 4 q9 1 30 2 q10 1 15 1 q0 5 0 14 q-1 62 -5 72 q-1 3 3 3 q7 -1 22 0 q4 0 8 -4 q6 -6 4 -18 ZM82 129 q-1 -13 -1 -8 q-1 -17 -2 -24 q0 -30 0 -58 q0 -2 0 -10 q1 -19 0 -22 q-3 -10 -3 -20 q0 -5 -6 -16 q-1 -1 -1 -1 q-2 -3 -4 -3 q-2 1 -4 5 q-6 10 -10 14 q-6 6 -8 15 q-1 3 2 6 q2 2 2 15 q1 6 2 16 q2 8 2 12 q0 25 0 37 q0 12 0 29 q-2 -2 -4 -4 q-1 -2 -1 -2 q-3 -3 -8 -7 q-8 -6 -9 -10 q-1 -4 -3 -4 q-1 0 -3 3 q-12 20 -13 27 q0 5 0 11 q0 4 1 5 q1 0 4 -2 q3 -3 12 4 q5 5 18 15 q11 9 13 11 q18 14 31 32 q6 6 9 0 q4 -8 5 -13 q3 -9 -4 -16 q-9 -9 -22 -23 q6 -5 5 -14 ZM240 174 q-1 -5 -7 -17 q-2 -3 -4 -3 q-6 0 -12 -2 q-3 -2 -7 -2 q-3 1 -4 -3 q-1 -2 -2 -2 q-1 0 -2 3 q-8 12 -2 36 q0 2 1 2 q0 1 2 -1 q7 -5 33 -6 q4 0 4 -5 ZM144 170 q0 -5 -2 -9 q-1 -1 -1 -4 q-1 -2 -1 -3 q0 -3 -5 -4 q-4 1 -7 -2 q-5 -3 -11 -3 q-1 0 -3 -3 q-1 -3 -2 -3 q-1 0 -2 4 q-6 12 -4 35 q0 2 1 2 q1 1 3 -1 q2 -4 30 -3 q5 1 4 -6 Z" /><glyph glyph-name="" unicode="&#x4f46;" d="M231 147 q-1 -4 -5 -34 q-2 -25 -4 -37 q-2 -14 -8 -22 q-3 -4 -8 -3 q-8 4 -11 4 q-13 0 -53 -2 q-6 -1 -9 -1 q-11 0 -12 -4 q-1 -3 -2 -3 q-2 1 -3 5 q0 1 -1 3 q-2 12 -3 19 q-2 15 -2 59 q1 20 -2 47 q-1 8 8 6 q11 0 17 1 q18 2 29 2 q8 1 33 0 q5 0 6 0 q20 -2 27 -1 q8 1 9 -6 q0 -11 -6 -33 ZM81 128 q-2 -13 -4 -39 q-1 -32 0 -50 q2 -53 -10 -66 q-3 -4 -5 -4 q-2 -1 -3 3 q-5 11 -10 16 q-1 2 -3 5 q-5 7 -6 9 q-3 6 2 6 q3 1 3 8 q0 6 1 14 q3 15 3 59 q0 15 0 26 l-1 -2 q-8 -8 -11 -16 q-2 -7 -5 -3 q-17 23 -18 29 q0 4 -2 10 q1 -1 0 2 q1 3 3 2 q4 -7 13 3 q30 26 61 62 q4 3 8 -2 q1 -4 4 -12 q1 -3 2 -4 q4 -6 -2 -11 q-12 -13 -24 -28 q1 0 1 -2 q5 -5 3 -15 ZM245 26 q-1 -6 -1 -14 q-1 -9 -6 -17 q-2 -7 -7 -3 q-10 6 -38 6 q-8 0 -33 -1 q-34 -1 -41 -2 q-16 -1 -16 -5 q-1 -4 -2 -4 q-1 0 -3 4 q-2 4 -5 14 q-1 3 -1 4 q0 5 0 12 q0 4 4 4 q8 -1 38 1 q9 1 59 1 q5 0 15 0 q11 -1 15 -1 q6 0 18 4 q2 1 3 0 q2 -1 1 -3 ZM193 156 q-39 0 -48 -1 q-6 1 -5 -7 l0 -14 q17 2 40 2 l19 0 q0 2 1 6 q0 4 0 6 q1 8 -7 8 ZM195 97 q0 2 1 5 q0 3 0 4 q-11 0 -18 0 q-13 0 -37 -2 l-1 0 l0 -14 q0 -6 4 -6 q4 1 15 1 q12 0 15 0 q5 1 15 1 q5 -1 6 11 Z" /><glyph glyph-name="" unicode="&#x4f50;" d="M80 123 q-3 -17 -3 -75 q1 0 2 0 q3 -1 8 3 q14 14 31 51 q2 7 6 20 q3 9 5 14 q-8 -1 -14 -1 q-12 -1 -13 -7 q-1 -3 -2 -3 q-1 0 -3 2 q-2 1 -3 4 q-1 2 -1 2 q0 1 0 2 q-2 15 -4 22 q-2 6 3 5 q18 0 27 1 q6 0 17 0 q6 22 6 45 q-1 5 4 4 q21 -3 26 -6 q5 -2 4 -10 q-2 -5 -5 -17 q-3 -10 -5 -15 q9 0 32 1 q20 0 27 0 q3 0 7 0 q6 -1 6 1 q4 2 5 2 q1 -1 0 -4 q0 -6 0 -16 q1 -2 -2 -10 q-1 -3 -2 -5 q-2 -6 -9 -1 q-17 6 -71 4 q0 0 -2 0 q-8 -25 -15 -42 q7 0 16 0 q1 0 3 0 q24 2 43 1 q3 0 9 0 q7 -1 9 0 q5 0 5 -3 q1 -11 -4 -25 q-1 -4 -6 -2 q-3 2 -30 2 q-1 -9 -2 -31 q-1 -17 -1 -24 q18 0 34 -1 q17 0 23 3 q3 1 3 -1 q0 -5 0 -13 q-1 -10 -7 -20 q-2 -4 -4 -2 q-9 7 -36 7 q-38 0 -58 -2 q-29 -2 -27 -7 q0 -2 -1 -2 q-1 1 -3 3 q-4 10 -5 27 q-1 5 5 4 q19 3 49 3 q0 21 0 34 q1 7 1 21 q-3 0 -6 0 q-21 -1 -21 -7 q-1 -3 -2 -3 q-1 -1 -3 1 q-3 -6 -11 -20 q-10 -17 -13 -23 q-1 -3 -4 -2 q-1 1 -3 3 q-7 6 -10 13 q0 1 -1 2 q-4 8 -6 12 q0 -8 0 -16 q3 -34 -10 -53 q-3 -3 -6 1 q-5 9 -11 18 q-5 7 -7 14 q-2 3 1 5 q4 1 3 10 q4 34 4 70 q0 22 -1 33 l-5 -5 q-9 -8 -12 -18 q0 -2 -1 -3 q-1 0 -2 1 q-3 3 -10 17 q-1 2 -2 3 q-4 7 -5 13 q0 1 0 4 q-1 4 -1 6 q0 2 1 2 q0 0 3 -1 q2 -3 8 2 q37 27 64 57 q3 2 7 -3 q1 -1 1 -4 q1 -2 1 -4 q0 -1 1 -2 q0 -1 3 -6 q2 -2 0 -6 q-3 -3 -21 -22 q3 3 -6 -7 q9 -5 5 -25 Z" /><glyph glyph-name="" unicode="&#x4f53;" d="M181 202 q0 -8 -2 -24 q0 -4 -1 -10 q26 0 44 -1 q9 0 13 3 q3 3 3 -4 q-1 -19 -7 -31 q-2 -4 -5 -2 q-7 7 -50 7 l0 -2 q1 -2 5 -6 q5 -6 9 -11 q47 -62 57 -58 q3 1 3 -3 q0 -8 -4 -13 q-1 -1 -3 -4 q-4 -4 -5 -7 q-3 -6 -7 -9 q-4 -3 -5 1 q-2 7 -11 17 q0 1 -2 2 q-1 1 -2 1 q0 -2 -1 -4 q0 -2 0 -3 q-2 -5 -1 -8 q1 -4 -5 -2 q-12 2 -29 2 q0 -48 -7 -57 q-3 -3 -4 -8 q0 1 0 -1 q-1 -5 -5 -2 q-1 2 -4 5 q-5 7 -5 9 q-1 3 -5 11 q-2 3 -5 9 q-2 4 1 4 q3 -1 3 8 q0 5 2 21 q-2 0 -7 0 q-5 -1 -8 -1 q-8 -1 -8 -4 q-1 -3 -2 -3 q-1 1 -3 4 q-3 6 -3 17 l-1 -1 q-10 -11 -17 -25 q-1 -3 -3 -3 q-1 0 -2 3 q-1 5 -4 8 q-6 5 -10 27 q0 3 1 3 q0 1 2 -1 q4 -5 11 2 q36 41 50 72 q1 2 2 6 q2 3 2 4 q-4 0 -14 -1 q-17 -2 -21 -2 q-12 -2 -11 -6 q0 -2 -1 -3 q-1 0 -2 2 q-3 5 -5 13 q0 1 0 2 q-2 6 -1 9 q2 6 -1 9 q-6 -6 -15 -15 q8 -6 4 -24 q-4 -25 -2 -97 q1 -36 -10 -52 q-3 -5 -6 0 q-5 9 -11 18 q-5 7 -7 14 q-2 3 1 5 q4 1 3 10 q4 34 4 70 q0 22 -1 33 q-3 -3 -5 -5 q-10 -7 -13 -18 q-1 -2 -2 -2 q0 0 -1 2 q-6 8 -11 20 q-4 8 -4 13 q0 1 0 4 q-1 4 -1 6 q0 2 1 2 q0 0 3 -1 q2 -3 8 1 q35 23 67 54 q3 2 7 -4 q0 -2 2 -7 q0 -3 3 -9 q0 0 0 -1 q1 -2 -1 -4 q-1 -1 -2 -2 q-1 -1 -8 -8 q9 -2 36 1 q9 0 20 1 q0 6 0 12 q-2 25 -3 30 q-1 5 4 4 q15 0 25 -3 q8 -1 6 -9 ZM178 94 q-1 3 -3 6 q0 -20 0 -40 q7 0 10 0 q2 -1 10 0 q4 0 6 0 q-9 12 -22 33 q-1 1 -1 1 ZM148 60 q2 13 2 34 q-6 -9 -20 -28 q-3 -6 -5 -8 q6 0 20 1 q1 0 2 1 q1 0 1 0 Z" /><glyph glyph-name="" unicode="&#x4f60;" d="M84 135 q-2 -15 -3 -34 q-1 -16 -1 -59 q0 -7 0 -17 q1 -18 -1 -29 q-3 -14 -9 -24 q-2 -3 -2 -3 q-1 0 -3 3 q-1 2 -4 6 q-4 8 -8 12 q0 0 -1 1 q-2 3 -6 12 q-2 4 1 7 q3 1 3 7 q0 12 2 24 q2 12 2 58 q0 13 -1 22 q-2 -2 -8 -7 q-5 -4 -8 -7 q-5 -3 -9 -10 q-1 -2 -2 -3 q-1 -2 -2 -2 q0 0 -2 2 q-7 14 -12 23 q-2 7 -1 17 q0 3 3 2 q5 -5 10 0 q44 30 68 63 q4 3 9 -3 q3 -4 6 -12 q5 -7 -1 -13 q-3 -3 -10 -11 q-10 -10 -15 -15 q6 -6 5 -10 ZM244 145 q-6 -10 -12 -23 q-5 -11 -14 -25 q-3 -6 -7 -1 q-11 14 -13 23 q-1 4 1 4 q7 2 10 12 q1 4 0 5 q-1 2 -4 1 q-6 0 -21 -1 q-28 -1 -34 -2 q-2 0 -3 0 q-5 -6 -11 -12 q-11 -13 -21 -30 q-1 -2 -1 -2 q-1 0 -2 2 q-1 3 -6 9 q-3 4 -4 6 q-4 7 -5 20 q0 3 2 1 q3 -1 6 2 q39 43 43 78 q-1 3 4 2 q26 -7 27 -12 q6 -7 1 -12 q-1 -2 -4 -6 q-8 -10 -11 -16 q4 0 14 0 q27 1 36 0 q7 -1 19 1 q3 0 5 0 q9 1 9 -7 q0 -11 -4 -17 ZM184 103 q-2 -11 -3 -32 q0 -16 -1 -29 q-1 -43 -5 -48 q-6 -12 -6 -21 q-1 -3 -2 -4 q-1 0 -3 2 q-17 16 -22 35 q-2 7 3 6 q4 0 5 12 q2 14 2 55 q0 25 -2 35 q-1 3 3 3 q4 0 13 -1 q9 0 12 -1 q8 -1 6 -12 ZM138 73 q6 -6 3 -13 q-9 -17 -19 -31 q-9 -12 -14 -23 q-2 -3 -3 -4 q-1 0 -2 2 q-5 9 -13 21 q-2 3 -2 13 q1 3 1 3 q0 1 2 -1 q2 -3 7 3 q18 19 18 37 q1 5 6 2 q3 -3 7 -4 q7 -1 9 -5 ZM200 79 q3 5 8 1 q12 -10 23 -21 q6 -8 10 -7 q3 0 2 -6 q-3 -18 -14 -30 q-4 -3 -8 2 q-6 8 -17 32 q-3 5 -4 7 q-3 4 0 22 Z" /><glyph glyph-name="" unicode="&#x4f69;" d="M256 22 q0 -8 -6 -24 q-2 -4 -5 -7 q-2 -3 -3 -3 q-1 0 -2 2 q-2 2 -7 2 q-5 1 -14 3 q-5 0 -7 -1 q-3 -2 -4 1 q-3 3 -4 6 q-2 3 -6 32 q-2 11 -2 37 q0 13 1 25 q-2 -3 -2 -8 q-1 -4 -1 -17 q-1 -14 -1 -18 q0 -8 -2 -17 q0 -1 -1 -2 q-1 -2 -2 -3 q0 -1 -2 -4 q-1 -4 -2 -6 q-1 -4 -5 -1 q-6 6 -14 23 q-1 2 -1 3 q0 -25 0 -41 q0 -3 -2 -5 q-2 -5 -2 -9 q-2 -9 -5 -15 q-4 -4 -6 0 q-2 3 -5 10 q-3 6 -3 6 q-5 6 -7 12 q-1 3 2 3 q2 0 2 4 q3 32 3 62 q1 9 1 18 q-4 0 -9 0 q0 -4 0 -8 q-2 -16 -2 -31 q0 -8 -1 -12 q-3 -12 -8 -24 q-1 -2 -2 -2 q0 -1 -2 1 q-4 5 -6 8 q-2 9 -8 17 q-1 4 2 4 q2 0 2 3 q0 12 2 30 q2 19 0 26 q0 -3 0 -9 q-1 -6 -1 -9 q-3 -24 -12 -53 q0 -1 -2 -5 q-10 -26 -12 -27 q-1 -1 -2 -2 q-1 -2 -3 -6 q-2 -4 -6 -1 q0 1 -2 2 q-3 5 -3 7 q0 6 -5 15 q0 -2 -1 -2 q0 -4 -2 -12 q-1 -6 -1 -9 q0 -8 -7 -17 q-2 -2 -2 -2 q-1 0 -3 2 q-11 17 -17 30 q-2 6 1 8 q3 1 4 9 q0 5 1 17 q1 12 1 16 q0 18 0 37 q1 7 0 22 q0 7 0 10 q-2 -1 -5 -4 q-4 -3 -6 -5 q-1 -1 -5 -11 q-1 -4 -3 -4 q-1 0 -3 4 q-1 2 -6 12 q-5 7 -6 10 q0 1 -1 2 q-1 3 0 5 q0 6 -1 10 q0 3 1 4 q2 0 3 -2 q3 -2 8 1 q10 6 16 14 q1 1 9 6 q5 4 7 5 q11 8 28 29 q7 5 9 -1 q1 -4 4 -11 q1 -4 2 -6 q0 2 0 6 q-1 5 -1 8 q0 4 4 4 q4 -1 11 0 q3 0 5 0 q3 0 4 0 q7 0 14 1 q27 2 41 2 q9 1 46 0 q13 0 17 0 q6 1 6 -5 q0 -13 -1 -17 q-1 -8 -6 -20 q-5 -15 -6 -63 q0 -45 4 -69 q0 -4 4 -5 q3 -1 7 -1 q7 0 12 6 q2 3 4 3 q1 -1 2 -4 q0 -2 2 -5 ZM65 133 q0 -2 0 -7 q-5 -63 -4 -86 q0 -9 1 -18 q1 0 3 4 q1 2 2 3 q12 28 17 55 q5 29 3 82 q0 4 0 10 q0 0 -1 -1 q-1 -2 -2 -3 q-2 -3 -8 -10 q-10 -11 -12 -13 l-3 -3 q4 -4 4 -13 ZM198 155 q0 -2 -1 -6 q0 -4 -1 -6 q0 -5 -2 -9 q0 -2 -1 -2 q0 -1 -3 0 q-2 1 -8 1 l-15 0 q-1 -3 -1 -10 q-1 -6 -1 -9 q7 0 17 1 q8 0 12 0 q3 0 4 -2 q2 27 2 54 q0 6 -5 6 q-7 1 -21 1 q-31 0 -59 -6 q-1 0 -3 -1 q-1 0 -1 0 q0 -4 0 -9 q0 -22 -1 -46 l1 0 q3 0 5 0 q13 0 25 2 q0 9 0 18 q-4 0 -6 -1 q-2 0 -7 -1 q-4 0 -5 0 q-1 0 -2 -1 q0 0 -1 -1 q-1 -4 -2 0 q0 1 -1 3 q0 2 -1 3 q0 1 -1 2 q-3 9 -3 16 q0 3 3 3 q2 0 8 0 q6 1 9 1 q24 3 53 1 q2 0 5 1 q3 0 4 0 q4 1 4 -3 ZM168 91 l-4 0 l0 -19 q0 -11 0 -25 q0 1 2 1 q2 -1 4 3 q3 11 2 22 l0 12 q0 6 -4 6 Z" /><glyph glyph-name="" unicode="&#x4f9b;" d="M155 187 q0 -16 0 -33 q7 1 25 1 l0 3 q0 9 1 21 q1 4 1 6 q0 10 0 20 q-1 6 3 5 q24 -3 29 -5 q5 -3 3 -9 q-5 -20 -6 -41 q21 0 23 3 q3 1 5 -2 q0 -15 -5 -29 q-1 -4 -4 -3 q-4 2 -21 3 q-1 -7 -2 -21 q-2 -19 -3 -26 q33 -2 39 3 q1 1 2 1 q1 -1 1 -3 q1 -23 -6 -35 q-1 -3 -4 -1 q-6 5 -27 5 q-55 0 -82 -3 q-26 -2 -28 -7 q-2 -4 -5 -1 q-2 5 -5 24 q-1 6 -1 9 q0 4 0 4 q1 1 3 0 q4 -3 34 1 q0 2 0 3 q0 26 0 45 q-3 -1 -7 -1 q-10 -1 -10 -5 q0 -2 -1 -2 q-1 0 -2 2 q-5 9 -6 30 q0 4 3 4 q3 -1 13 0 q6 0 9 0 q0 33 -4 43 q0 5 3 5 q23 0 28 -4 q4 -2 4 -10 ZM83 132 q-2 -15 -3 -34 q-1 -16 -1 -59 q0 -5 0 -14 q1 -20 -2 -32 q-1 -14 -9 -25 q-1 -2 -2 -2 q-2 0 -3 3 q-2 3 -6 10 q-3 5 -5 8 q0 0 -1 1 q-2 3 -7 12 q-1 6 2 7 q3 1 2 7 q0 12 3 24 q1 1 1 58 q0 13 0 22 q-1 -1 -3 -2 q-6 -5 -13 -12 q-7 -4 -11 -13 q-2 -2 -2 -2 q-1 0 -2 2 q-4 6 -9 16 q-3 4 -4 7 q-1 2 -1 17 q1 4 4 2 q4 -5 10 0 q47 34 68 63 q4 3 9 -3 q0 -1 2 -5 q3 -4 4 -7 q3 -7 -1 -13 q-11 -11 -26 -26 q6 -5 6 -10 ZM153 20 q-12 -17 -25 -28 q-1 -2 -4 -5 q-12 -12 -16 -20 q-2 -2 -3 -2 q-2 0 -3 3 q-4 8 -8 14 q-5 7 -5 22 q0 2 1 3 q1 0 2 -1 q2 -5 9 0 q27 23 31 32 q0 4 6 8 q4 3 7 -1 q7 -10 9 -16 q2 -4 -1 -9 ZM235 2 q-3 -9 -10 -15 q-3 -2 -7 -9 q-1 -1 -1 -1 q-1 -4 -6 0 q-18 18 -30 35 q-5 7 -3 11 q1 7 1 13 q0 4 3 6 q7 3 16 -8 q15 -20 33 -24 q5 1 4 -8 ZM175 80 q3 21 5 47 l-9 0 q-8 0 -17 0 q0 -8 0 -24 q-1 -16 -1 -24 q3 0 10 0 q8 1 12 1 Z" /><glyph glyph-name="" unicode="&#x4fdd;" d="M241 100 q-1 -18 -6 -31 q-2 -3 -5 0 q-3 5 -36 5 l-12 0 q13 -12 25 -22 q21 -18 26 -15 q5 1 5 -2 q-3 -20 -23 -34 q-3 -1 -4 2 q0 1 -1 2 q-7 12 -17 21 q-12 12 -20 23 q0 -24 0 -37 q1 -27 -9 -44 q-3 -4 -6 -1 q-1 4 -7 12 q-2 4 -3 5 q-5 6 -8 14 q-2 3 1 4 q3 0 3 5 q-1 5 1 16 q-2 -8 0 2 q0 2 0 7 q1 11 1 18 q-17 -25 -36 -41 q-3 -3 -8 -7 q-5 -3 -5 -5 q-2 -3 -3 -3 q-1 0 -2 2 q-7 8 -10 33 q-1 3 0 4 q1 0 3 -2 q2 -4 15 7 q24 20 35 34 q-4 0 -12 -1 q-7 0 -10 0 q-3 0 -7 -1 q-12 -1 -12 -3 q-2 -2 -2 -2 q-1 0 -3 2 q-4 10 -4 16 q0 6 -1 10 q-1 4 4 3 q11 -2 45 1 q8 1 15 1 q0 16 -2 23 q-6 -1 -12 -1 q-8 -1 -9 -5 q-1 -4 -5 -1 q-5 6 -8 16 q-6 17 -6 27 q2 21 -3 35 q-1 8 7 6 q8 -1 28 0 q12 2 32 2 q22 0 31 -1 q14 -1 22 0 q7 1 6 -8 q0 -3 -1 -7 q-1 -9 -3 -12 q-4 -5 -6 -17 q-3 -20 -12 -33 q-6 -5 -12 -2 q-4 2 -17 2 q-2 0 -4 0 q3 -5 2 -11 q-1 -3 -1 -12 l21 0 q35 0 42 3 q3 1 3 0 q1 0 0 -2 ZM76 121 q-4 -76 -3 -91 q0 -44 -10 -58 q-2 -3 -4 -3 q-2 1 -3 4 q-7 14 -12 21 q-5 6 -6 11 q0 4 2 4 q3 0 3 5 q-1 7 1 33 q3 45 2 74 q-5 -6 -11 -10 q-9 -9 -13 -13 q-1 -2 -1 -2 q-1 0 -2 2 q-15 24 -13 42 q0 2 1 3 q2 0 3 -2 q5 -8 24 9 q25 20 48 44 q6 4 8 1 q3 -6 5 -14 q5 -8 0 -12 q-2 -2 -7 -7 q-11 -11 -17 -17 q1 -1 1 -1 q6 -3 4 -23 ZM190 170 q1 3 -5 3 q-30 0 -44 -1 q-5 0 -5 -4 q0 -4 1 -11 q0 -6 0 -9 q0 -3 5 -3 q12 1 39 1 q3 -1 6 6 q3 8 3 18 Z" /><glyph glyph-name="" unicode="&#x5047;" d="M151 28 q0 -3 -2 -2 q-1 2 -27 0 q-7 0 -11 0 q2 -38 -10 -56 q-4 -5 -7 0 q-3 8 -9 17 q-4 5 -7 13 q-1 5 2 5 q2 0 3 4 q0 -1 0 1 q0 21 2 41 q4 43 2 109 q0 1 0 2 q0 8 -2 18 q0 2 0 6 q-1 4 -1 5 q0 0 1 1 q0 1 2 1 q8 0 22 2 q19 2 33 0 q10 0 19 0 q5 1 5 -4 q-5 -48 -15 -70 q-5 -6 -10 -4 q-6 3 -14 1 q-2 0 -7 -1 q-5 -1 -8 -1 l-1 0 q0 -8 0 -17 q8 1 15 1 q2 0 7 1 q10 0 14 2 q5 1 5 -5 q1 -5 -1 -17 q-1 -4 -1 -5 q0 -4 -4 -4 q-15 2 -35 0 l0 -18 q1 0 3 0 q12 2 23 2 q4 0 9 1 q3 0 4 0 q2 1 3 -1 q1 -12 -2 -28 ZM240 100 q0 -11 -8 -30 q-9 -22 -20 -39 q9 -9 16 -15 q10 -9 18 -6 q5 1 4 -3 q-3 -14 -16 -28 q-4 -5 -6 -2 q-4 7 -10 12 q-1 0 -1 1 q-11 9 -20 18 q-3 -3 -9 -8 q-5 -4 -7 -6 q-20 -17 -22 -22 q-1 -3 -2 -3 q0 0 -2 2 q-14 29 -9 40 q1 2 1 2 q1 1 2 -1 q6 -7 24 12 q3 3 5 6 q-7 9 -8 6 q-3 -2 -3 1 q-1 12 0 20 q2 5 2 9 q-3 -2 -4 1 q-2 5 -2 9 q0 8 -1 14 q0 3 0 9 q0 5 4 3 q8 0 26 2 q11 2 24 0 q9 -1 14 0 q9 2 10 -4 ZM82 159 q-2 -2 -7 -8 q-9 -10 -14 -15 q1 0 1 -1 q6 -2 4 -22 q-4 -55 -3 -85 q1 -38 -9 -60 q-5 -4 -7 1 q-1 2 -2 4 q-4 8 -7 13 q-6 9 -8 14 q0 4 2 4 q0 0 1 0 q2 1 2 6 q0 11 1 19 q2 9 2 52 q0 18 0 33 q-1 -1 -3 -3 q-1 -1 -1 -1 q-6 -5 -17 -16 q-1 -1 -1 -1 q-1 0 -2 1 q-12 21 -12 40 q0 2 1 2 q2 0 3 -2 q3 -6 20 9 q27 21 42 41 q4 5 7 1 q6 -7 9 -14 q3 -6 -2 -12 ZM247 177 q-4 -6 -5 -18 q-5 -34 -19 -46 q-1 -1 -2 -1 q-1 0 -3 2 q-4 2 -12 2 q-9 0 -21 -2 q-7 -2 -11 -5 q-2 -2 -4 1 q0 1 -1 4 q0 5 -2 8 q-1 9 0 18 q0 1 4 1 q3 -1 8 -1 q14 2 31 2 q1 2 2 10 q1 5 2 9 q0 3 -4 3 q-2 0 -6 0 q-27 -1 -25 -4 q-1 -3 -2 -3 q-2 0 -3 3 q-7 11 -5 28 q-1 4 3 4 q36 2 48 2 q17 0 23 1 q4 0 4 -5 q2 -7 0 -13 ZM130 167 q-3 0 -7 -1 q-6 0 -8 -1 q-2 -9 -2 -22 q3 0 8 1 q6 0 8 0 q6 0 5 4 q1 3 1 9 q1 5 1 8 q0 3 -6 2 ZM172 70 q8 -7 21 -19 q3 5 7 14 q1 3 2 5 q2 6 -2 6 q-29 -3 -30 -5 q0 0 2 -1 Z" /><glyph glyph-name="" unicode="&#x505a;" d="M248 11 q-1 -11 -20 -31 q-2 -2 -4 -2 q-1 1 -2 4 q-1 4 -10 16 q-11 10 -17 19 q-7 -9 -19 -22 q-4 -4 -5 -6 q-12 -11 -13 -16 q-1 -3 -2 -3 q-2 0 -3 3 q-9 19 -11 34 q0 3 0 3 q1 1 3 0 q6 -5 22 15 q3 3 9 11 q3 3 4 5 q-3 5 -6 11 q-9 18 -11 12 q-1 -1 -1 -1 q-1 0 -2 2 q-1 10 6 22 q0 1 0 1 q0 2 -1 2 q-4 9 -11 17 q-5 7 -6 14 q-9 2 -17 0 q0 0 -1 0 l0 -2 q-1 -7 0 -19 q0 -6 0 -9 q2 0 3 0 q2 0 6 1 q9 1 13 2 q5 2 5 -3 q0 -5 -3 -21 q0 -1 0 -2 q-1 -20 -5 -39 q-1 -1 -1 -4 q-1 -3 -1 -5 q0 -2 -4 -2 q-42 -2 -55 -7 q-3 -2 -4 3 q-7 14 -6 28 q1 12 1 24 q0 3 -1 10 q-1 6 -2 9 q-2 6 4 5 q10 0 26 0 q0 13 0 25 l0 5 q-2 0 -7 -1 q-5 0 -8 -1 q-5 -1 -6 -6 q-3 -4 -4 -2 q-2 4 -3 9 q0 2 -2 9 q-3 13 -3 16 q1 4 5 2 q3 -2 13 -2 q6 1 15 1 q-1 35 -4 50 q-1 4 3 5 q11 -2 21 -1 q9 2 8 -6 q0 -3 -1 -9 q-2 -17 -2 -25 l0 -13 q15 0 23 2 q6 0 5 -3 q0 -2 -1 -6 q0 -2 0 -3 q-2 -4 -2 -9 q1 1 4 6 q2 4 4 6 q10 19 16 41 q5 17 4 25 q0 3 2 3 q22 -3 24 -8 q6 -3 1 -16 q-1 -4 -6 -15 q-5 -13 -8 -20 q1 0 4 0 q22 2 35 2 q10 0 13 2 q3 2 2 -1 q0 -15 -5 -32 q-1 -3 -3 -1 q-2 4 -35 4 q1 0 4 -1 q12 -2 16 -6 q5 -6 2 -15 q-2 -5 -5 -14 q-1 -5 -2 -8 q-3 -19 -13 -37 q2 -2 6 -7 q5 -7 7 -9 q13 -14 22 -12 q3 0 3 -3 ZM71 130 q-3 -50 -3 -93 q2 -42 -9 -60 q-3 -4 -7 1 q-3 10 -9 17 q-5 6 -7 13 q-1 6 2 5 q2 1 2 7 q0 4 1 11 q1 4 1 7 q2 23 2 60 q0 16 -1 28 q-1 0 -1 -1 q-1 -1 -1 -1 q-10 -9 -16 -16 q-2 -3 -4 0 q-12 23 -12 40 q0 2 1 2 q2 1 3 -1 q2 -7 21 8 q31 26 42 42 q4 4 7 1 q6 -7 8 -15 q4 -7 -1 -11 q-3 -3 -10 -11 q-7 -8 -11 -12 q3 -4 2 -21 ZM196 123 q-2 0 -6 -1 q-3 0 -6 -1 q-3 -6 -6 -10 q-3 -6 -5 -11 q1 0 1 -1 q4 -5 14 -22 q3 -6 6 -10 q3 9 6 20 q4 29 4 33 q-1 1 0 2 q0 1 0 1 q-3 0 -8 0 ZM127 65 q-9 -2 -22 -2 q-2 0 -2 -3 q0 -1 0 -2 q1 -2 0 -4 q0 -6 0 -10 q0 -2 2 -2 q7 2 20 2 q3 -1 3 2 q1 4 1 16 q1 3 -2 3 Z" /><glyph glyph-name="" unicode="&#x5077;" d="M178 197 q0 -4 -4 -9 q5 -3 18 -12 q28 -21 41 -26 q7 -2 16 -3 q6 1 5 -5 q-5 -15 -14 -27 q-3 -5 -8 0 q-5 5 -13 9 q-9 6 -18 12 q0 -8 -1 -14 q0 -3 -3 -2 q-6 2 -23 2 q-26 0 -39 -2 q-6 -1 -9 -5 q-1 -2 -3 0 q-1 6 -3 14 q-2 -1 -5 -4 q-4 -3 -15 -13 q-3 -1 -5 -6 q-1 -3 -2 -3 q-1 0 -2 1 q-10 17 -10 25 q0 2 -1 5 q0 2 0 3 q0 5 4 3 q4 -1 10 2 q21 16 35 34 q0 1 1 2 q19 20 20 32 q1 2 1 3 q0 0 2 -1 q2 -1 7 -2 q8 -3 12 -5 q6 -4 6 -8 ZM164 105 q0 -6 -2 -18 q0 -2 -1 -6 q-2 -8 -2 -12 q0 -2 1 -6 q1 -14 0 -31 q0 -3 0 -8 q-1 -25 -6 -38 q0 -2 -2 -6 q-1 -4 -2 -6 q-1 -4 -4 -1 q-12 13 -15 29 q-1 3 2 2 q3 0 2 4 q1 6 1 13 q-3 0 -10 0 q-8 -1 -12 -1 q-2 -21 -17 -44 q-1 -3 -3 -3 q-2 0 -4 3 q-3 4 -7 15 q-1 2 -5 8 q-1 1 -1 1 q-2 3 2 4 q5 -1 7 4 q3 6 6 24 q1 5 1 7 q3 18 2 35 q0 10 2 31 q0 4 2 3 q8 0 15 0 q13 1 26 1 q10 1 19 1 q4 -1 5 -5 ZM74 123 q-5 -34 -2 -94 q1 -34 -11 -51 q-3 -5 -6 0 q-4 9 -10 17 q-1 2 -3 5 q-4 5 -5 9 q0 5 1 5 q3 1 4 10 q3 34 3 68 q0 13 0 25 q-3 -3 -6 -5 q-9 -7 -12 -18 q-1 -3 -4 0 q-1 1 -2 4 q-6 11 -8 16 q-4 6 -4 12 q-1 6 -1 10 q0 2 1 3 q1 0 3 -2 q2 -3 8 1 q38 25 67 53 q3 2 7 -4 q0 0 0 -2 q1 -3 1 -5 q0 -1 1 -3 q2 -4 3 -6 q0 0 0 -1 q1 -2 -1 -4 q-3 -3 -19 -18 q2 2 -6 -5 q3 -6 1 -19 q0 1 0 -1 ZM223 91 q-1 -13 -2 -41 q-1 -13 -1 -20 q0 -39 -11 -54 q-4 -5 -6 -1 q-9 12 -15 27 q-1 2 0 2 q0 1 2 1 q3 0 4 4 q0 1 0 1 q2 12 4 65 q1 14 1 19 q0 4 -1 9 q-1 3 -1 4 q-1 3 0 3 q0 1 3 1 q10 0 15 1 q5 1 10 -3 q2 -4 -2 -18 ZM191 87 q-1 -5 -1 -10 q0 -24 -2 -37 q0 -9 -3 -14 q-1 -1 -2 -6 q0 2 -1 -2 q-1 -2 -2 -2 q-1 -1 -2 1 q0 0 -3 3 q-2 5 -4 6 q-4 6 -5 13 q-1 3 1 5 q1 1 1 2 q1 1 1 2 q1 9 0 29 q0 9 0 14 q0 3 -2 6 q-1 3 3 4 q6 0 11 1 q7 0 9 -3 q3 -4 1 -12 ZM189 145 q-19 13 -30 24 q-1 -1 -2 -3 q-6 -8 -10 -12 q-3 -2 -7 -7 q-2 -2 -3 -3 q7 0 21 1 q14 0 21 1 q2 0 5 0 q4 -1 5 -1 ZM138 54 q-11 0 -20 -2 q0 -1 0 -4 q-1 -4 -1 -6 q2 1 5 1 q3 1 5 1 q6 0 10 0 q0 4 1 10 ZM129 76 q5 0 9 0 l0 5 q1 5 -5 4 q-3 0 -12 -2 q-1 -3 -1 -9 q5 0 9 2 Z" /><glyph glyph-name="" unicode="&#x5148;" d="M155 108 l0 -2 q22 0 40 0 q32 0 38 4 q1 1 2 0 q1 0 1 -2 q1 -22 -6 -35 q0 0 0 -1 q-1 -2 -4 0 q-12 6 -59 6 l-11 0 q6 -1 9 -4 q7 -2 3 -19 q-1 -2 -1 -3 q-2 -9 0 -26 q1 -5 1 -8 q0 -6 4 -6 q1 0 4 -1 q14 -4 25 -5 q13 0 24 7 q5 2 6 -3 q4 -12 -2 -24 q-1 -2 -3 -7 q-2 -5 -4 -7 q-1 -2 -2 -2 q-1 0 -2 3 q-1 1 -8 1 q-3 0 -9 1 q-7 2 -12 3 q-5 1 -15 3 q-15 3 -20 3 q-4 1 -5 0 q-2 -2 -3 -2 q-1 1 -2 3 q-10 23 -7 61 q0 22 -1 30 l0 2 q-15 0 -26 0 q8 -4 13 -6 q6 -5 2 -11 q-5 -4 -8 -12 q-18 -49 -69 -78 q-3 -3 -5 -3 q-2 0 -2 4 q0 5 -3 8 q-5 6 -5 19 q0 2 -1 4 q-2 4 -1 5 q1 1 5 -1 q5 -4 12 0 q28 18 40 47 q4 12 7 22 q0 1 0 1 q-11 -1 -28 -3 q-8 -1 -12 -2 q-18 -2 -17 -6 q0 -3 -2 -3 q-1 0 -2 2 q-6 12 -7 23 q0 4 -2 9 q1 -1 0 1 q-1 2 -1 3 q0 0 4 0 q10 0 28 0 q-13 18 -16 26 q-1 4 0 5 q1 1 4 0 q8 0 13 8 q21 28 25 50 q0 3 5 2 q12 -4 20 -7 q6 -2 3 -10 q-1 -4 -6 -10 q-1 -3 -2 -4 q3 0 7 1 q9 0 20 1 q0 26 -2 40 q0 1 0 2 q-1 3 3 2 q8 -1 18 0 q11 0 12 -13 q0 -3 -1 -9 q0 -6 -1 -10 q0 -1 0 -4 q-1 -5 -1 -8 q6 0 10 -1 q34 0 39 3 q3 1 3 0 q1 0 1 -3 q0 -8 -3 -24 q3 11 -1 -2 q-1 -6 -6 -4 q-10 3 -44 3 q0 -6 -1 -17 q0 -7 0 -10 ZM87 103 q17 2 40 2 q1 12 1 29 q-18 0 -36 -2 q-2 -1 -5 -1 q-3 -5 -11 -14 q-9 -10 -11 -15 q4 0 11 1 q8 0 11 0 Z" /><glyph glyph-name="" unicode="&#x5149;" d="M122 75 q-14 -41 -48 -71 q-8 -7 -20 -17 q1 1 -3 -2 q-3 -2 -8 -9 q-1 -1 -2 -2 q-3 -2 -6 2 q-2 8 -7 14 q-4 6 -4 10 q0 6 -1 13 q-1 2 0 2 q1 1 3 -1 q1 -1 6 -1 q2 1 8 5 q3 3 4 3 q29 22 42 52 q0 1 1 4 q2 4 3 7 q-21 -2 -41 -7 q-3 0 -5 -7 q-3 -4 -6 0 q-8 13 -9 37 q0 5 6 4 q6 -1 16 -1 q5 1 18 2 q6 1 9 1 q7 1 20 1 q13 1 19 1 q-2 4 -2 7 q3 37 -1 84 q-1 3 0 4 q2 2 5 1 q7 0 13 0 q2 -1 10 0 q2 0 3 0 q11 -1 9 -12 q-4 -20 -4 -36 q0 -35 -3 -47 q12 0 23 0 q23 0 42 0 q14 1 22 4 q3 2 4 -1 q2 -8 0 -16 q-3 -13 -7 -25 q-2 -3 -4 -1 q-2 3 -10 5 q-1 0 -1 0 q-20 4 -46 4 q0 -4 -1 -8 q-3 -10 -4 -26 q-1 -4 -1 -6 q-2 -14 1 -24 q0 -4 4 -5 q14 -1 35 -2 q15 0 26 11 q4 3 6 -1 q0 -4 1 -7 q1 -2 1 -3 q2 -3 0 -7 q-1 -8 -6 -19 q0 -1 -3 -5 q-2 -4 -3 -5 q-3 -3 -5 -1 q-2 3 -6 4 q-2 0 -22 2 q-35 3 -40 3 q-7 0 -7 -3 q-1 -2 -4 0 q-5 11 -7 20 q-4 14 -3 29 q2 15 4 48 q0 3 0 5 l-4 0 l-11 0 q4 -5 1 -11 ZM98 158 q-4 -5 -5 -14 q0 -1 -3 -3 q-8 -1 -14 -4 q-3 -2 -5 -2 q-5 -2 -7 -2 q-3 -1 -5 -6 q-1 -3 -2 -1 q-1 1 -2 3 q-3 6 -3 8 q-1 9 -2 19 q-1 4 -1 7 q0 2 1 7 q0 4 0 5 q0 2 1 3 q2 0 3 -1 q3 -6 20 -6 q12 0 22 2 q3 0 3 -3 q0 -9 -1 -12 ZM219 175 q0 -9 -1 -12 q-3 -6 -4 -12 q0 -1 -2 -1 q2 0 -2 -1 q-8 -1 -10 -4 q-1 -1 -4 -3 q-3 0 -8 -2 q-3 -1 -4 -6 q0 -2 -4 0 q-3 4 -4 8 q0 7 -5 13 q-1 2 -1 23 q0 2 1 2 q0 1 2 -1 q0 0 2 -1 q3 -1 5 -1 q0 0 1 0 q24 -1 35 1 q3 0 3 -3 Z" /><glyph glyph-name="" unicode="&#x514b;" d="M206 131 q8 2 7 -5 q-1 -2 -2 -6 q-4 -15 -8 -33 q0 -2 -1 -8 q-3 -20 -8 -27 q-4 -6 -14 -1 q-2 2 -11 1 q-1 0 -2 0 l-1 0 q-3 -12 -1 -35 q0 -4 5 -6 q13 -3 30 -4 q17 0 28 7 q5 1 6 -2 q3 -13 -3 -25 q-2 -4 -8 -13 q-1 -1 -1 -1 q-1 -2 -2 -2 q0 0 -2 2 q-1 2 -8 2 q-5 0 -24 3 q2 0 -5 1 q-6 1 -16 3 q-10 1 -14 2 q-3 0 -5 0 q-2 -2 -2 -1 q0 0 -2 2 q-10 25 -6 59 q0 3 0 6 q-6 0 -13 0 q0 -5 -2 -9 q-15 -35 -75 -72 q-10 -5 -11 2 q0 5 -4 8 q-6 6 -4 19 q0 2 -1 4 q-2 4 -1 5 q1 0 5 -2 q12 -2 20 2 q2 1 5 3 q33 20 39 40 q-3 0 -7 0 q-9 0 -11 -5 q-2 -6 -4 -6 q-1 1 -3 7 q-6 22 -7 46 q0 15 -2 32 q-1 6 7 5 q4 -1 11 0 q4 0 6 0 q8 0 22 2 q8 1 12 1 q0 1 1 5 q1 5 1 9 q0 4 0 7 q-31 -1 -61 -5 q-15 -1 -15 -5 q-2 -4 -3 -4 q-1 0 -3 3 q-7 14 -7 31 q0 6 6 5 q0 0 1 0 q8 -2 17 -1 q12 2 65 2 q0 22 -2 31 q-2 3 -1 4 q0 1 4 1 q12 -1 23 0 q10 -1 10 -7 q-1 -17 -3 -29 q9 0 25 1 q16 0 24 0 q8 0 18 1 q5 1 7 1 q9 1 10 -4 q0 -1 0 -2 q-1 -7 -4 -19 q-2 -9 -5 -7 q-9 2 -58 4 q-9 0 -18 0 q0 -4 0 -7 q0 -9 0 -14 q17 0 45 -2 q7 -1 11 0 ZM171 86 q0 0 1 2 q2 6 2 10 q1 6 -5 6 q-35 0 -70 -2 q-6 0 -6 -6 q1 -4 1 -7 q0 -2 0 -7 q-1 -4 6 -4 q2 0 5 0 q40 2 62 2 q3 0 4 6 Z" /><glyph glyph-name="" unicode="&#x515c;" d="M76 198 q10 -6 16 -15 q0 1 3 1 q5 -1 17 1 q-9 -2 1 0 q2 0 3 1 q4 16 4 27 q0 3 5 3 q2 -1 9 -2 q6 -1 8 -1 q4 -1 6 -6 q2 -5 -1 -8 q-3 -6 -6 -11 q4 0 11 -1 q7 0 10 -1 q6 -1 10 0 q5 1 5 -4 q1 -10 -3 -28 q-5 -20 -5 -36 q-2 -27 -6 -36 q-3 -8 -10 -3 q-3 3 -9 2 q-15 0 -32 -1 q0 0 -2 0 q-5 -2 -7 -4 q-2 -3 -4 0 q-5 15 -7 51 q0 5 0 8 q0 7 -1 19 q0 12 0 18 q-8 -2 -21 -9 q-3 -1 -5 -2 l0 -2 q0 -27 1 -55 l0 -2 q4 1 10 1 q1 0 4 1 q6 0 7 2 q2 2 3 1 q1 0 1 -3 q1 -11 -2 -23 q0 -2 -1 -2 q0 -1 -2 0 q-3 1 -8 -1 q-9 -1 -26 -6 q-2 -1 -3 -1 q-6 -1 -5 -4 q0 -3 -1 -3 q-2 0 -3 3 q-5 12 -7 30 q0 2 1 2 q0 1 1 1 q1 1 1 1 q1 0 1 6 q0 4 0 11 q1 23 -1 35 q-1 9 -4 17 q-1 3 0 3 q0 1 2 1 l5 0 q6 2 21 12 q3 2 5 3 q3 3 5 8 q2 4 6 1 ZM231 16 q5 4 8 3 q3 -2 2 -8 q-2 -18 -11 -35 q-1 -3 -2 -4 q-1 0 -3 2 q-1 1 -4 1 q-4 1 -5 1 q-27 1 -53 4 q-7 0 -9 -1 q0 0 -1 0 q-3 -2 -6 2 q-13 22 -7 64 q0 4 1 12 q0 7 0 11 q-1 5 0 6 q1 1 6 0 q9 0 19 -2 q12 -3 7 -15 q-8 -25 -4 -42 q-1 -5 9 -6 q6 0 22 -1 q7 0 9 0 q15 0 22 8 ZM175 109 q10 -1 22 -1 q0 1 1 3 q1 2 1 3 q1 8 2 28 q1 9 1 14 q1 4 -4 3 q-1 0 -4 0 q-3 -1 -5 -1 q-3 0 -3 -2 q-1 -2 -2 -1 q-1 0 -2 2 q-3 12 -3 27 q0 5 5 3 q22 0 43 2 q11 1 10 -7 q0 -9 -3 -16 q-3 -10 -4 -20 q-3 -43 -14 -65 q-3 -5 -7 -2 q-2 1 -2 1 q-6 1 -18 0 q-5 0 -8 0 q-3 1 -5 -2 q-1 -3 -1 -3 q0 0 -2 4 q-3 11 -2 27 q-1 4 4 3 ZM88 76 q3 0 9 -1 q5 -1 8 -2 q13 -5 8 -19 q-1 -1 -2 -4 q-5 -10 -7 -16 q-5 -15 -12 -22 q-23 -23 -50 -43 q-5 -5 -8 1 q-9 16 -13 32 q-1 3 0 3 q1 1 4 -1 q4 -2 10 1 q18 10 26 18 q14 16 19 35 q0 2 2 6 q2 7 3 10 q0 3 3 2 ZM118 154 l0 -8 q5 0 11 0 q9 0 17 1 q0 4 1 10 q0 4 -4 4 q-10 0 -22 -1 q-3 0 -3 -6 ZM144 114 q1 5 1 8 l-4 0 q-3 0 -9 0 q-6 -1 -9 -1 q-2 0 -5 -1 l0 -11 q0 -4 3 -3 q5 1 17 1 q6 0 6 7 Z" /><glyph glyph-name="" unicode="&#x5165;" d="M252 25 q-8 -25 -23 -36 q-4 -3 -7 2 q-6 9 -26 24 q-20 20 -64 87 q-5 -7 -13 -21 q-5 -9 -8 -13 q-15 -28 -60 -69 q-14 -14 -22 -24 q-2 -3 -3 -3 q-2 0 -3 4 q-4 8 -13 23 q-3 4 -3 14 q0 2 0 4 q0 2 1 2 q0 1 2 -1 q8 -3 13 1 q7 4 18 15 q1 2 2 3 q54 56 68 96 q-5 7 -13 20 q-6 9 -8 11 q-5 6 -7 2 q-2 -3 -4 -3 q-1 1 -1 4 q-2 19 5 28 q5 5 4 14 q1 3 4 2 q12 -7 48 -61 q8 -12 12 -18 q45 -73 71 -91 q1 -1 3 -2 q11 -9 21 -8 q4 1 6 -1 q1 -1 0 -5 Z" /><glyph glyph-name="" unicode="&#x5168;" d="M123 214 q1 -1 4 -1 q2 -1 3 -1 q17 -5 17 -16 q0 -3 -1 -6 q30 -34 70 -50 q9 -4 21 0 q6 0 5 -6 q-4 -18 -21 -33 q0 0 -1 -1 q-3 -2 -5 -1 q-7 6 -15 11 q0 0 0 -1 q-1 -1 -1 -2 q0 -1 0 -2 q-1 -4 -4 -11 q-3 -4 -6 -1 q-2 3 -11 2 q-2 0 -3 0 l-28 0 q0 0 -1 -1 q-2 -5 -2 -15 q-1 -4 -1 -10 q9 0 27 1 q12 0 17 0 q4 1 4 1 q4 2 5 -2 q0 -1 -1 -5 q-2 -15 -4 -22 q-1 -4 -4 -2 q-4 2 -33 1 q-4 0 -5 0 l-7 0 q0 -15 -1 -28 q30 2 56 0 q12 0 24 5 q2 0 2 -2 q3 -8 -1 -17 q-3 -9 -7 -19 q0 -1 -1 -2 q0 0 -2 1 q-16 9 -63 7 q-27 0 -56 -2 q-10 -1 -24 -2 q-11 -1 -19 -1 q-5 0 -6 -4 q-1 -2 -2 -2 q0 0 -1 1 q-8 8 -7 19 q-1 2 -1 6 q-1 4 -1 6 q-1 4 3 4 q22 -1 47 0 q16 1 29 1 q1 13 1 28 q-25 -2 -39 -5 q0 0 -1 -1 q-4 -1 -5 -3 q-2 -1 -3 1 q-6 9 -5 24 q0 3 -1 9 q0 3 2 2 q3 -2 8 -2 q14 0 44 2 q0 21 -1 27 q-14 -1 -38 -3 q-6 1 -8 -5 q-2 -3 -5 1 q-3 5 -5 17 q0 1 0 1 q-1 0 -3 -1 q-3 -2 -10 -6 q-10 -5 -15 -13 q-2 -2 -3 -2 q-2 1 -2 4 q-1 7 -7 13 q-4 4 -2 10 q2 3 -1 8 q-1 2 -1 3 q-2 3 -1 5 q2 1 5 0 q6 -3 13 -1 q46 22 80 71 q6 8 7 15 q3 5 8 3 ZM164 133 q-8 7 -21 19 q-12 12 -20 18 q0 -1 0 -1 q-22 -32 -45 -48 q4 0 12 0 q8 1 13 1 q29 1 54 1 q15 0 21 1 q-8 5 -14 9 Z" /><glyph glyph-name="" unicode="&#x516c;" d="M146 98 q-7 -8 -26 -35 q-18 -25 -25 -34 l6 1 q15 2 44 3 q14 0 24 0 q-1 2 -4 5 q-10 13 -12 17 q-4 4 -4 6 q0 2 4 3 q6 1 14 3 q4 1 7 2 q9 2 14 -6 q1 -2 8 -15 q5 -8 7 -11 q17 -30 22 -47 q-1 -8 -7 -8 q-14 7 -30 25 q-8 0 -22 -1 q-12 -2 -49 -6 q-31 -3 -42 -4 q-2 0 -6 -1 q-2 0 -3 0 q0 -1 -1 -3 q-1 -1 -2 -2 q0 -1 0 -1 q-1 -1 -1 -1 q0 -1 0 -1 q0 -2 -1 -3 q-1 0 -2 2 q-11 14 -13 39 q-1 4 3 3 q0 3 2 2 q1 -8 29 27 q31 39 36 68 q-1 4 8 2 q16 -6 23 -15 q7 -7 -1 -14 ZM94 205 q4 -4 15 -6 q20 -9 9 -27 q-5 -3 -9 -12 q-3 -4 -4 -6 q-24 -40 -56 -65 q-10 -8 -14 -16 q-8 -24 -20 36 q-1 3 0 4 q0 1 2 -1 q3 -2 8 1 q22 13 46 48 q14 20 17 41 q1 5 2 5 q2 1 4 -2 ZM162 204 q5 -4 21 -22 q17 -21 33 -35 q20 -17 33 -14 q5 1 6 0 q1 -1 -1 -6 q-5 -14 -24 -37 q-3 -4 -5 -4 q-3 1 -4 5 q-1 3 -12 14 q-6 4 -14 13 q-1 1 -2 2 q-11 15 -35 39 q-6 5 -7 3 q-2 -2 -2 -2 q-1 0 -2 3 q-1 16 6 27 q0 1 1 2 q3 5 3 12 q0 3 1 3 q1 0 4 -3 Z" /><glyph glyph-name="" unicode="&#x5171;" d="M113 23 q-9 -13 -20 -21 q-15 -8 -34 -28 q-2 -3 -5 1 q-11 24 -11 39 q0 4 1 5 q1 0 3 -2 q6 -3 15 3 q24 14 30 26 q2 3 5 5 q-3 0 -9 0 q-7 -1 -10 -1 q-19 -1 -35 -4 q-10 -2 -10 -5 q-1 -5 -3 -5 q-2 0 -4 5 q-7 15 -8 32 q0 4 5 4 q16 -2 53 1 q4 1 6 1 q0 2 0 4 q1 7 1 43 q-9 -1 -18 -1 q-9 -2 -9 -4 q0 -4 -2 -5 q-2 1 -3 5 q-3 17 -5 33 q0 3 4 2 q13 -1 32 0 q0 15 0 22 q-1 7 -1 18 q-1 5 3 4 q3 -1 7 0 q5 1 8 1 q8 0 13 -4 q5 -5 3 -17 q0 -3 -1 -8 q-1 -8 -1 -14 q7 0 20 1 q14 0 20 0 l0 26 q0 13 -1 19 q0 4 3 4 q5 -1 14 -1 q8 0 13 -5 q5 -4 3 -14 q0 -1 0 -2 q0 -5 -2 -15 q-1 -7 -2 -12 q10 0 19 0 q11 -1 17 0 q6 3 6 -1 q0 -15 -4 -29 q-1 -5 -7 -3 q-5 3 -13 2 l-19 1 q0 -7 -1 -23 q0 -16 -1 -22 l0 -1 q22 0 43 -1 q10 0 19 3 q9 5 9 -3 q-1 -13 -6 -28 q-1 -2 -2 -4 q-2 -5 -7 -3 q-16 7 -43 7 q-42 1 -84 -2 q0 0 1 -1 q6 -11 7 -16 q3 -8 -2 -12 ZM217 13 q-2 -12 -10 -18 q-4 -3 -8 -9 q-1 -1 -1 -1 q-6 -7 -11 0 q-12 17 -30 37 q-5 5 -3 9 q2 8 2 15 q2 7 10 3 q36 -33 46 -31 q4 0 5 -1 q1 -1 0 -4 ZM153 130 q-7 0 -21 -1 q-14 0 -21 -1 q0 -20 -2 -46 q21 2 42 2 q0 2 0 5 q0 6 1 31 q1 7 1 10 Z" /><glyph glyph-name="" unicode="&#x5177;" d="M240 51 q2 -20 -7 -36 q-1 -3 -4 -1 q-4 6 -49 7 q-33 1 -75 1 q5 -6 8 -10 q5 -5 -1 -9 q-28 -19 -38 -23 q-13 -5 -26 -13 q-1 -1 -3 -1 q-1 1 -1 3 q-3 11 -6 17 q-3 6 -3 13 q1 3 5 1 q3 -2 14 0 q25 9 39 21 q-23 -1 -50 -5 q-15 -1 -13 -8 q0 -2 -3 -2 q-1 0 -2 2 q-2 7 -4 26 q-1 4 -1 7 q-1 4 5 4 q14 0 40 2 l0 3 q0 41 0 57 q0 21 -1 35 q0 28 -2 47 q-1 8 6 6 q0 0 1 0 q23 0 45 2 q31 2 83 0 q12 1 11 -9 q0 -15 -2 -21 q-8 -36 -9 -117 l3 0 q33 -1 36 4 q2 1 3 1 q1 -1 1 -4 ZM154 -5 q-6 4 -6 16 q-1 6 10 4 q7 -2 22 -7 q3 -2 4 -2 q9 -3 22 -3 q9 0 7 -4 q-4 -18 -11 -27 q-2 -4 -8 -3 q-3 2 -10 6 q-20 13 -30 20 ZM171 87 q0 1 0 5 q1 4 1 6 q-4 1 -18 1 q-4 0 -12 -1 q-32 -1 -48 -1 l0 -14 q4 0 18 1 q6 1 9 1 q9 0 25 1 q17 0 25 1 ZM173 123 q0 5 0 10 q-4 1 -21 1 q-30 0 -58 -2 l0 -12 q10 0 28 1 q9 0 25 1 q18 0 26 1 ZM169 169 q-21 2 -54 -1 q-13 -1 -21 -2 l0 -10 q3 0 11 0 q10 1 16 1 q5 0 15 1 q26 1 38 1 q0 3 0 4 q1 6 -5 6 ZM170 49 q0 6 0 11 q-5 1 -17 1 q-40 0 -59 -2 l0 -10 q16 1 42 1 q16 0 34 -1 Z" /><glyph glyph-name="" unicode="&#x517c;" d="M102 211 q6 -1 8 -12 l2 -14 q6 0 17 1 q11 0 17 1 q5 8 8 16 q0 1 1 1 q2 6 2 10 q-1 4 5 2 q2 0 9 -1 q-4 1 3 -1 q8 -3 12 -6 q2 -5 0 -9 q-1 -3 -4 -5 q-6 -2 -7 -7 q18 0 48 2 q6 0 6 -5 q-2 -9 -4 -21 q-1 -4 -5 -3 q-11 3 -34 2 q-11 0 -23 0 q3 -3 2 -10 q0 0 0 -1 q15 0 29 -1 q2 0 5 0 q7 -1 10 0 q7 0 7 -6 q-1 -10 -4 -20 q-1 -4 -3 -9 l9 0 q13 0 19 3 q2 1 3 1 q1 -1 1 -3 q-2 -20 -7 -30 q-1 -3 -6 -1 q-6 3 -18 4 q-3 1 -5 1 q-4 -17 -12 -35 q-3 -3 -6 -2 q-2 0 -5 1 q-4 1 -9 1 q7 -6 13 -11 q18 -14 33 -19 q4 -2 10 -2 q2 1 3 0 q1 -1 0 -3 q-5 -16 -18 -27 q-2 -3 -7 1 q-7 6 -23 21 q-15 14 -23 21 q0 -40 -8 -65 q-2 -6 -7 -1 q-6 7 -9 18 q-3 8 -7 13 q-1 2 -1 3 q0 1 2 1 q2 1 2 4 q2 12 2 24 l1 23 q-3 0 -9 0 q-6 -1 -9 -1 q0 -15 -1 -31 q-1 -42 -11 -56 q-2 -3 -3 -3 q-1 0 -3 3 q-5 7 -11 22 q-3 7 -5 10 q-2 1 -1 2 q0 1 3 2 q5 5 5 27 q0 1 1 3 q0 2 0 3 q-13 -19 -31 -33 q-12 -8 -21 -19 q-2 -4 -4 -3 q-2 0 -4 5 q-9 12 -11 29 q0 3 1 4 q1 0 3 -1 q4 -2 10 1 q22 12 40 32 q-7 -2 -15 -2 q-6 -2 -6 -3 q-1 -3 -3 -3 q-1 0 -3 4 q-2 14 -2 26 q1 5 4 3 q8 -1 15 -1 q1 0 3 0 q12 2 25 2 q0 6 0 12 q-41 -2 -57 -4 q-5 -1 -5 -4 q-1 -3 -2 -3 q-2 1 -3 3 q-4 13 -4 25 q-1 4 0 4 q0 1 3 0 q2 -1 10 0 q22 0 43 2 q8 0 15 0 q0 7 0 12 q-13 0 -27 -2 q-6 -1 -6 -3 q-1 -3 -3 -3 q-1 1 -3 4 q-4 12 -3 25 q0 2 2 2 q6 1 19 1 q13 1 19 1 q0 5 -1 9 q-23 0 -37 -2 q-8 -1 -8 -4 q-1 -3 -3 -3 q-1 0 -3 3 q-5 14 -4 28 q0 4 2 2 q3 -1 8 -1 q20 0 39 1 q-2 3 -4 11 q0 1 0 2 q-1 6 -4 12 q-2 4 4 4 q7 1 20 -1 q-2 0 2 0 ZM137 128 q-3 0 -9 -1 q-6 0 -8 0 q0 -2 0 -5 q-1 -4 -1 -6 l0 -1 q9 0 18 0 l0 13 ZM175 127 q-6 0 -12 1 q-1 -5 -1 -13 l18 0 q0 4 0 8 q2 4 -5 4 ZM137 91 q-9 0 -18 0 l0 -11 q9 0 18 0 q0 6 0 11 ZM135 161 q-12 0 -22 0 q9 -1 8 -10 q8 0 15 0 q-1 5 -1 8 q0 2 0 2 ZM176 84 q0 1 1 4 q0 2 0 3 q-7 0 -16 0 q0 -5 0 -10 q7 0 14 -1 q1 1 1 4 Z" /><glyph glyph-name="" unicode="&#x518d;" d="M70 148 q6 1 11 1 q2 0 4 -1 q3 0 9 1 q5 0 8 1 q3 0 9 1 q6 0 8 0 q0 9 -1 18 q-32 -1 -62 -6 q-11 -2 -11 -5 q-1 -5 -3 -5 q-2 0 -4 5 q-5 16 -5 31 q-1 8 5 6 q4 -1 14 0 q6 0 10 0 q62 3 147 1 q12 0 18 1 q6 1 7 -3 q-1 -13 -7 -29 q-1 -3 -5 -1 q-7 4 -21 4 q-26 1 -52 1 q0 -1 -1 -6 q0 -1 0 -5 q-1 -3 -1 -5 q15 0 32 0 q12 0 23 0 q13 1 10 -11 q0 -3 -2 -8 q-1 -9 -2 -13 q-2 -12 -2 -54 q31 0 39 4 q2 1 2 0 q1 0 1 -2 q1 -21 -6 -32 q0 0 0 -1 q-1 -2 -4 -1 q-6 3 -33 5 q-2 -41 -12 -68 q-1 -4 -3 -4 q-1 0 -3 3 q-14 14 -20 30 q-1 3 3 3 q4 0 4 5 q1 5 1 15 q1 9 1 15 l-1 0 q-11 0 -29 -1 q-44 0 -61 -2 q-3 -30 -11 -44 q-3 -6 -6 -16 q0 -4 -1 -6 q-3 -6 -5 -6 q-3 -1 -5 4 q-1 3 -6 9 q-3 3 -4 4 q-5 6 -8 14 q-1 4 2 5 q1 0 2 1 q6 6 7 15 q1 4 2 10 q1 7 1 10 q-4 -2 -11 -2 q-17 -1 -17 -6 q-2 -4 -5 0 q-6 14 -6 21 q0 2 0 5 q0 3 -1 4 q-1 2 -1 3 q0 0 3 0 q9 -1 40 1 q0 3 0 9 q1 6 1 10 q0 2 0 10 q1 40 -1 51 q0 4 1 5 q0 2 0 2 q1 1 3 0 q5 -1 11 -1 ZM161 84 q-2 0 -7 0 q-6 -1 -9 -1 l0 -17 q16 0 31 0 q1 9 1 17 q-9 1 -16 1 ZM146 108 q19 0 31 1 l0 10 q1 8 -8 7 q-5 0 -14 -1 q-6 0 -9 0 q0 -8 0 -17 ZM117 82 q-5 0 -15 0 q-10 -1 -15 -1 l0 -3 q0 -7 0 -14 q4 1 15 1 q10 1 15 1 q0 7 0 16 ZM88 108 q14 1 30 1 q0 9 1 14 l-30 -3 q-1 -6 -1 -12 Z" /><glyph glyph-name="" unicode="&#x5199;" d="M210 90 q-1 -11 -5 -30 q-4 -11 -7 -29 q-7 -31 -25 -63 q-3 -4 -5 -1 q-17 18 -18 35 q0 3 2 2 q6 -4 10 10 q10 27 10 45 q1 7 -5 7 q-41 0 -65 -1 q-22 -1 -26 -9 q-1 -2 -2 -2 q-1 -1 -2 1 l-2 3 q-1 0 -1 1 q-1 1 -1 1 q-9 15 -10 26 q-1 2 2 3 q3 -5 10 19 q12 43 11 59 q-4 0 -9 -1 q-7 0 -10 -1 q-5 0 -6 -6 q0 1 0 -1 q-6 -25 -18 -37 q-3 -3 -4 -3 q-1 -1 -4 3 q-2 3 -7 11 q-2 4 -3 6 q-3 7 1 9 q4 6 5 28 q0 10 0 18 q0 3 1 3 q0 1 3 0 q13 -5 50 0 q60 6 113 3 q25 -3 43 0 q8 0 8 -8 q-5 -31 -27 -67 q-3 -5 -5 -2 q-10 10 -14 20 q1 -14 -5 -29 q-1 -3 -2 -4 q-1 0 -3 2 q-8 4 -29 3 q-30 0 -55 -3 q-1 0 -3 0 q-1 -7 -3 -16 l-1 -3 q4 1 8 1 q30 3 57 2 q5 0 14 0 q19 -1 29 0 q5 0 5 -5 ZM155 21 q-1 -7 -5 -5 q-14 3 -36 2 q-30 -2 -55 -5 q-19 -2 -19 -7 q-1 -3 -2 -3 q-2 0 -3 2 q-9 23 -6 38 q1 5 5 2 q4 -2 25 1 q4 0 16 0 q18 1 26 1 q41 0 50 3 q4 1 5 -2 q3 -10 -1 -27 ZM114 153 q0 -1 -1 -4 q-2 -4 -3 -7 q20 1 60 1 q20 0 25 3 q0 0 1 0 q-1 1 -1 2 q-1 4 2 4 q5 0 8 10 q2 6 -4 6 q-44 3 -104 0 q7 -1 13 -3 q9 -4 4 -12 Z" /><glyph glyph-name="" unicode="&#x51a5;" d="M247 191 q-11 -38 -30 -71 q-4 -5 -6 -2 q-9 9 -12 20 q0 -2 -2 -7 q-1 -5 -2 -8 q-4 -8 -7 -30 q-1 -10 -6 -21 q-3 -5 -13 -3 q-9 3 -22 3 q0 -1 0 -3 q-1 -2 -1 -4 q-1 -3 -1 -6 q44 0 71 0 q17 0 19 3 q2 2 4 1 q1 0 1 -2 q0 -14 -7 -33 q0 0 0 -1 q-2 -5 -6 -1 q-12 6 -48 6 q-37 1 -83 -1 q10 -7 15 -14 q2 -3 -1 -8 q-2 -1 -6 -4 q-12 -8 -20 -13 q-30 -20 -35 -24 q-2 -2 -2 -2 q-1 0 -3 2 q-10 18 -10 32 q1 4 4 1 q3 -1 16 4 q33 15 35 25 q-14 0 -29 -2 q-33 -2 -29 -6 q0 -3 -2 -3 q-1 0 -3 3 q-4 14 -7 27 q-1 5 0 6 q1 1 6 0 q4 -1 19 1 q12 1 20 1 q4 0 16 0 q22 1 35 1 q0 8 -1 13 q-11 0 -22 -2 q-13 -1 -14 -4 q0 -2 -1 -2 q-1 0 -3 2 q-10 17 -9 43 q0 21 -2 28 q-1 10 0 19 q1 3 4 1 q7 -1 31 2 q16 2 48 3 q31 0 37 -2 q10 -1 14 0 q3 0 4 -1 q0 -3 0 -9 q4 4 7 14 q2 6 -4 6 q-24 3 -69 2 q-47 -1 -72 -4 q-7 0 -6 -8 q-6 -27 -17 -44 q-7 -6 -9 0 q0 6 -7 19 q-3 5 0 10 q6 12 5 31 q-1 7 -1 21 q0 5 4 3 q18 -7 49 -2 q18 3 51 3 q35 1 62 -1 q19 -1 44 -1 q9 0 9 -7 ZM208 -26 q-3 -4 -9 -2 q-13 7 -42 28 q-6 1 -7 20 q-1 4 3 6 q3 1 7 -2 q8 -6 35 -15 q18 -6 20 -4 q4 2 4 -3 q2 -10 -11 -28 ZM165 133 q1 3 -3 3 q-30 1 -67 -2 q-3 -1 -3 -6 l0 -3 q17 2 48 2 q6 0 15 -1 q7 0 10 0 l0 7 ZM161 100 q0 1 1 3 q0 1 0 2 q-4 0 -7 0 q-22 0 -45 -2 q-2 0 -8 0 q-6 -1 -9 -1 l0 -2 q-1 -6 4 -5 q19 0 33 0 q14 1 27 1 q3 0 4 4 Z" /><glyph glyph-name="" unicode="&#x51b3;" d="M179 183 q-3 -10 -3 -21 q19 1 28 1 q13 0 25 0 q4 2 4 -6 q0 -12 -3 -24 q0 -1 -1 -3 q-4 -29 -8 -43 q19 0 23 3 q1 1 2 1 q1 0 1 -2 q-2 -21 -7 -35 q-1 -3 -4 -2 q-8 6 -30 7 q-13 0 -33 0 q6 -6 11 -13 q5 -7 21 -22 q4 -4 5 -5 q12 -14 26 -15 q3 0 3 0 q1 -1 0 -3 q0 -3 -7 -11 q-2 -2 -6 -8 q-2 -3 -3 -5 q-6 -6 -11 -4 q-4 4 -13 15 q-6 7 -9 10 q-23 22 -28 32 q-4 6 -6 9 q-8 -22 -39 -51 q-4 -4 -12 -10 q-10 -7 -12 -10 q-3 -3 -6 0 q-11 19 -14 35 q-1 2 0 2 q2 0 3 -1 q11 -4 27 10 q18 21 29 44 q-4 0 -13 -1 q-9 0 -12 -1 q-20 0 -18 -5 q-2 -4 -5 7 q0 3 -1 8 q-1 11 -2 16 q-1 4 3 4 q1 -3 31 0 q9 0 26 1 q0 3 1 6 q1 11 3 39 q-10 0 -16 -1 q-22 -2 -20 -6 q-1 -3 -2 -3 q-2 0 -2 2 q-1 4 -2 9 q-1 3 -1 4 q-3 9 -2 21 q1 4 4 3 q4 0 16 0 q17 1 26 1 q0 3 0 10 q1 8 1 12 q2 20 -1 27 q-2 4 4 4 q21 0 26 -4 q8 -4 3 -28 ZM77 46 q-11 -16 -21 -21 q-6 -3 -8 -9 q-1 -4 -3 -4 q-2 0 -4 4 q-11 20 -17 35 q-1 4 -1 5 q1 1 4 1 q24 3 44 15 q2 2 3 2 q1 0 1 -3 q0 -3 1 -8 q0 1 1 -1 q3 -7 0 -16 ZM85 151 q-3 -9 -3 -18 q-1 -8 -5 -6 q-12 3 -27 3 q-8 2 -8 -3 q-1 -2 -3 -3 q-1 0 -2 3 q-9 18 -5 25 q3 3 1 13 q-1 3 0 3 q1 1 5 0 q20 -4 27 -7 q10 -5 17 -5 q3 1 3 0 q1 -1 0 -5 ZM194 133 q-7 0 -21 0 q-1 -23 -6 -46 l26 0 q1 5 4 21 q1 10 2 15 q3 11 -5 10 Z" /><glyph glyph-name="" unicode="&#x51b5;" d="M155 81 q-19 -45 -29 -61 q-6 -10 -24 -27 q-7 -7 -9 -9 q-1 -1 -2 -2 q-4 -4 -5 -7 q-1 -3 -2 -3 q-2 0 -3 2 q-1 7 -4 14 q-4 8 -4 21 q-1 2 0 3 q1 1 3 0 q2 -2 6 1 q17 14 24 26 q15 21 22 48 q-6 -2 -10 -2 q-1 0 -1 -1 q-3 -1 -5 -4 q0 -2 -2 -3 q-1 0 -2 3 q0 1 -1 4 q-1 11 -2 11 q0 1 -1 4 q-5 23 -3 32 q2 13 0 24 q0 1 0 3 q-2 13 -2 29 q0 6 4 4 q8 -1 13 0 q1 0 2 1 q18 4 29 5 q17 2 35 0 q4 0 14 -2 q11 -2 16 -3 q1 0 2 0 q7 -1 9 1 q4 1 4 -5 q-1 -12 -7 -34 q-3 -8 -4 -33 q-4 -20 -11 -36 q-3 -4 -5 -1 q-3 5 -10 6 q-6 -41 -3 -68 q0 -1 1 -2 q0 -2 2 -2 q16 -4 31 -6 q11 1 25 14 q1 2 2 1 q1 -1 1 -4 q3 -10 -1 -22 q-1 -1 -3 -6 q-5 -8 -7 -15 q-1 -3 -2 -3 q-1 0 -3 2 q-1 3 -7 3 q-18 3 -49 7 q-5 0 -6 -2 q-4 -3 -5 1 q-8 36 -7 51 q0 7 2 22 q1 20 2 29 q-1 0 -4 0 q-2 -1 -4 -1 q2 -3 0 -8 ZM184 166 q-2 0 -8 1 q-5 0 -8 0 q-11 0 -27 -2 q-3 -1 -5 -1 q-3 0 -4 -3 q0 -2 -1 -12 q0 -9 0 -10 q0 -3 0 -9 q1 -7 1 -11 q0 -3 2 -3 q1 0 5 1 q4 1 6 1 q26 0 37 0 q2 2 2 4 q2 20 3 40 q0 3 -3 4 ZM78 48 q-4 -5 -25 -22 q-7 -5 -9 -7 q-7 -5 -9 -10 q-1 -2 -2 -2 q-1 0 -2 2 q-12 22 -16 39 q0 6 3 4 q21 3 58 25 q2 3 4 -1 q4 -21 -2 -28 ZM85 145 q-4 -11 -5 -23 q-1 -4 -6 -2 q-4 1 -30 5 q-8 0 -9 -3 q-1 -2 -2 -2 q-1 0 -3 2 q0 0 -1 2 q-2 3 -2 5 q0 3 -1 8 q0 -1 -1 1 q0 7 1 9 q1 4 1 15 q0 3 3 3 q6 -4 14 -6 q5 -1 13 -3 q2 -1 4 -2 q8 -4 21 -4 q4 -1 3 -5 Z" /><glyph glyph-name="" unicode="&#x51fa;" d="M147 185 q0 -1 -1 -5 q-2 -17 -2 -25 q0 -20 -1 -37 q22 0 33 0 q2 0 6 0 q0 1 0 3 q2 12 2 22 q0 10 0 19 q-1 5 1 6 q1 1 6 0 q5 -1 15 -2 q16 1 11 -18 q-4 -30 -13 -57 q0 -2 -4 -5 q-2 -2 -2 -2 q-4 -5 -9 1 q-3 3 -6 6 q-3 0 -7 0 q-19 0 -34 -1 q0 -39 -2 -72 q11 0 30 1 q10 0 13 0 l2 0 q4 18 4 32 q0 0 0 4 q-1 12 -1 15 q0 6 1 6 q2 2 7 0 q5 -1 14 -1 q16 0 12 -22 q-6 -35 -11 -55 q-2 -7 -6 -10 q-4 -5 -6 -5 q-2 0 -4 5 q-1 1 -2 1 q-1 1 -2 1 q-6 2 -13 2 q-80 -2 -111 -6 q-10 -1 -12 -6 q-2 -4 -3 -4 q-2 0 -4 4 q-9 14 -10 24 q0 14 0 30 q0 13 -2 29 q-2 9 6 9 q2 0 10 -1 q6 0 7 0 q12 0 12 -20 q0 -6 -1 -19 q-1 -10 -1 -13 q0 -5 5 -4 q2 0 10 0 q17 1 28 1 l0 4 q0 21 1 32 q0 19 0 37 q-30 -2 -38 -3 q-9 -2 -11 -5 q-1 -3 -2 -3 q-1 0 -3 2 q-9 14 -9 23 q-1 6 -1 18 q-1 11 -1 17 q0 13 -4 20 q-1 4 0 5 q1 2 4 1 q7 -1 19 -1 q11 0 11 -12 q0 -15 0 -31 q0 -7 5 -5 q2 0 10 0 q13 1 21 1 l0 19 q0 6 0 22 q1 36 0 40 q-1 9 6 7 q1 0 3 -1 q4 -1 7 -1 q21 1 17 -17 Z" /><glyph glyph-name="" unicode="&#x51fb;" d="M243 109 q0 -14 -9 -36 q-1 -3 -5 -1 q-11 9 -66 10 l-16 0 q0 -32 0 -74 q7 1 22 0 q7 0 11 0 l2 0 q9 35 5 51 q-1 5 5 4 q1 0 2 -1 q5 -1 10 -1 q7 1 11 -3 q12 -7 5 -20 q-7 -19 -14 -47 q-2 -7 -9 -12 q-1 -1 -1 -1 q-6 -3 -7 0 q-3 2 -4 5 q-8 1 -14 1 q-42 0 -88 -6 q-12 -1 -15 -6 q-1 -2 -2 -2 q-2 0 -3 3 q-1 1 -2 4 q-6 7 -8 12 q-3 6 -2 11 q2 37 -5 52 q-3 5 3 7 q4 0 12 1 q4 0 5 0 q13 1 14 -15 q0 -4 0 -10 q1 -15 0 -26 q-1 -6 6 -5 q15 3 30 3 q1 42 1 74 q-18 -2 -38 -2 q-16 -1 -33 -3 q-8 -3 -8 -7 q-1 -3 -2 -3 q0 0 -2 3 q-7 11 -9 36 q0 3 5 2 q7 -1 18 -1 q10 0 29 2 q26 1 40 2 l0 28 q-22 0 -52 -3 q-4 -1 -6 -3 q-1 -3 -2 -3 q-2 1 -3 3 q-5 11 -7 31 q0 3 3 3 q42 0 67 1 q0 28 -2 43 q0 1 0 2 q-1 5 4 4 q12 -1 23 0 q10 -2 10 -9 q-1 -6 -1 -19 q-1 -13 -1 -20 q5 0 16 0 q19 1 32 0 q11 0 13 1 q2 2 3 1 q2 0 2 -3 q1 -15 -3 -30 q-1 -3 -6 -1 q-6 3 -14 3 q-20 0 -41 0 l-4 0 q0 -13 0 -28 q37 1 71 -2 q12 0 17 2 q3 2 5 2 q2 -1 2 -4 Z" /><glyph glyph-name="" unicode="&#x5206;" d="M94 206 q2 -4 15 -7 q20 -9 9 -25 q-7 -5 -13 -17 q-11 -21 -35 -44 q11 0 21 1 q36 3 72 0 q1 0 3 0 q13 -2 29 -2 q12 -1 10 -11 q-5 -18 -10 -40 q-5 -21 -9 -34 q-6 -27 -22 -50 q-2 -4 -4 -5 q-2 0 -4 4 q-3 9 -11 15 q-7 9 -6 14 q1 5 -1 6 q-2 2 -1 3 q1 1 5 0 q3 -1 5 2 q1 1 1 2 q11 24 17 56 q0 9 -4 8 q-23 3 -47 1 q5 -1 9 -3 q10 -6 4 -15 q-3 -5 -7 -14 q-17 -30 -42 -57 q-1 -1 -2 -2 q-12 -15 -15 -20 q-2 -6 -4 -6 q-2 -1 -5 4 q0 1 -1 3 q-12 23 -12 32 q0 4 1 5 q2 1 4 -1 q3 -2 8 3 q11 11 32 36 q11 18 13 34 q-3 0 -8 0 q-6 -1 -9 -1 q-7 -1 -7 -5 q0 -5 -1 -6 q-2 0 -4 3 q-9 16 -9 31 q-5 -5 -10 -8 q-10 -7 -14 -15 q-1 -4 -3 -4 q-2 0 -4 4 q-9 16 -13 34 q-1 3 0 4 q0 1 2 -1 q3 -2 8 1 q10 6 38 35 q7 8 8 8 q15 17 17 40 q1 4 2 5 q2 1 4 -1 ZM162 205 q13 -13 21 -22 q14 -19 33 -33 q20 -16 33 -14 q5 1 5 0 q1 -2 -1 -6 q-6 -15 -24 -35 q-3 -4 -5 -4 q-2 1 -3 5 q-4 7 -13 13 q-5 4 -12 12 q-2 2 -3 3 q-18 20 -36 37 q-5 5 -6 2 q-3 -2 -4 1 q0 0 0 1 q-1 15 6 26 q4 7 4 13 q-1 2 1 3 q1 0 4 -2 Z" /><glyph glyph-name="" unicode="&#x521a;" d="M111 35 q-7 4 -14 15 q-3 5 -6 9 q-5 -10 -16 -22 q-8 -8 -12 -16 q-1 -2 -2 -2 q-1 -1 -2 1 q-3 6 -4 12 q0 1 0 2 q-1 1 -1 1 q0 -1 0 -3 q-1 -12 -4 -28 q0 -1 -1 -4 q-2 -14 -6 -32 q-1 -3 -3 -3 q-2 0 -4 3 q-5 7 -7 11 q-6 12 -11 24 q-2 4 1 4 q3 0 4 6 q0 3 1 10 q0 7 1 10 q0 7 1 23 q2 47 2 69 q0 27 -2 52 q-1 5 3 4 l4 0 q0 0 1 0 q2 1 3 1 q14 0 27 1 q21 3 38 2 q26 -1 48 0 q7 1 6 -6 q2 -17 -3 -34 q-2 -12 -2 -37 q-1 -21 -4 -61 q-1 -6 -1 -9 q0 -2 -1 -8 q-1 -31 -4 -34 q0 -2 -3 -7 q-4 -10 -5 -15 q-1 -5 -1 -5 q-1 0 -4 3 q-7 11 -14 27 q-2 1 -2 5 q0 3 -1 6 q-3 4 3 5 q4 2 5 12 l0 12 q-2 -6 -8 -4 ZM235 178 q-3 -16 -3 -64 q0 -18 -1 -38 q0 -5 0 -16 q-1 -12 -1 -18 q-1 -47 -11 -69 q-1 -3 -2 -4 q-2 0 -3 2 q-5 11 -11 20 q-6 9 -8 21 q-1 4 1 3 q5 -1 6 5 q2 14 2 27 q3 59 3 119 q0 23 -3 29 q-1 2 -1 3 q1 1 4 1 q3 0 8 1 q3 1 4 1 q11 2 15 -4 q3 -6 1 -19 ZM193 137 q-4 -19 -2 -46 q1 -35 -5 -50 q-3 -5 -4 -14 q-2 -4 -5 -1 q-15 18 -15 31 q0 6 1 8 q2 0 3 13 q0 -1 0 4 q0 23 0 45 q0 23 -1 25 q-2 4 3 5 q4 0 12 2 q-5 -2 2 0 q5 0 10 -3 q4 -4 1 -19 ZM117 156 q-32 -1 -60 -4 q-1 -5 -1 -10 l0 -15 q8 1 15 4 q7 4 11 -7 q3 -6 7 -13 q5 15 8 30 q0 0 0 1 q1 5 5 3 q10 -4 16 -8 q2 -1 4 -3 q1 -1 1 -1 l0 14 q1 11 -6 9 ZM121 118 q-1 -1 -2 -3 q-5 -10 -9 -20 q-3 -6 -6 -12 q3 -4 7 -11 q2 -4 3 -6 q2 -4 2 -9 q0 -3 2 -9 q1 -5 1 -7 q1 8 0 5 q4 50 4 76 q0 -2 -2 -4 ZM60 61 q9 10 16 23 q-11 18 -20 30 l0 -6 q0 -31 -1 -49 q1 0 4 1 q-1 -1 1 1 Z" /><glyph glyph-name="" unicode="&#x522b;" d="M137 85 q-4 -22 -7 -48 q-4 -33 -20 -61 q-2 -2 -2 -2 q-1 0 -3 2 q-2 4 -8 11 q-2 4 -4 6 q-3 3 -6 17 q0 3 3 3 q3 -1 5 1 q10 21 9 47 q2 6 -21 4 l-1 0 q-14 -47 -32 -66 q-8 -9 -15 -27 q-2 -4 -3 -4 q-1 0 -3 3 q-12 16 -16 36 q0 3 2 3 q1 1 3 -1 q3 -1 6 1 q18 15 30 53 q-16 -2 -20 -3 q-6 -1 -7 -5 q-1 -3 -2 -4 q-2 0 -3 3 q-5 15 -5 29 q-1 8 6 7 q17 2 39 2 q0 2 1 6 q0 3 0 5 q2 8 2 13 q-7 0 -14 -1 q-4 0 -6 -2 q-2 -4 -3 -4 q-1 0 -3 4 q-1 2 -2 6 q-3 10 -3 14 q-2 22 -2 37 q0 13 -1 18 q-2 6 7 5 q3 -1 24 2 q11 1 15 1 q22 2 43 0 q11 0 17 -1 q8 0 6 -4 q0 -13 -4 -21 q-4 -15 -7 -39 q-1 -6 -5 -15 q-5 -5 -11 -1 q-2 3 -11 3 q-9 0 -18 0 q3 -1 5 -3 q4 -4 1 -10 q-2 -3 -3 -9 q-1 -1 -1 -2 q23 0 41 -1 q9 -1 7 -8 ZM234 184 q-3 -19 -3 -40 l0 -31 q-1 -98 -9 -127 q-4 -9 -7 -17 q-2 -4 -6 -1 q-21 27 -22 40 q-1 5 2 4 q7 -5 9 26 q2 35 2 48 q0 29 0 57 q1 50 -1 57 q-1 4 3 4 q5 0 15 2 q7 1 14 -1 q6 -6 3 -21 ZM183 139 q-4 -12 -1 -53 q-1 -27 -6 -47 q-1 -2 -2 -6 q-2 -5 -3 -7 q-1 -3 -3 -3 q-2 0 -3 2 q-15 19 -17 31 q0 8 2 8 q3 -3 3 30 q0 57 -1 64 q-1 4 2 5 q17 2 25 -1 q6 -1 5 -5 q1 -7 -1 -17 q0 1 0 -1 ZM102 171 q-21 -1 -35 -2 q-6 0 -6 -5 q0 -8 0 -18 q1 -6 6 -4 q14 0 34 2 q4 0 4 4 q2 8 2 17 q1 7 -5 6 Z" /><glyph glyph-name="" unicode="&#x5230;" d="M141 16 q-1 -7 -4 -15 q1 -1 -4 -1 q-35 0 -88 -11 q-10 -2 -14 -7 q-1 -3 -3 -3 q-1 0 -3 3 q-6 10 -7 20 q0 8 -1 12 q-1 3 3 3 q7 -1 16 -1 q14 3 31 4 q1 11 1 25 q-3 0 -9 -1 q-3 0 -8 -1 q-2 -1 -5 -2 q-6 -2 -7 -3 q-3 -1 -5 0 q0 2 -1 3 q-7 10 -6 27 q0 2 1 2 q0 1 2 0 q3 -1 11 0 q3 0 5 0 q4 0 11 1 q8 0 12 1 q0 4 -1 11 q0 8 -1 11 q-6 -1 -18 -3 q-4 -1 -6 -1 q-8 -1 -8 -6 q-3 -4 -5 0 q-1 1 -3 4 q-5 5 -5 12 q-1 3 -1 6 l0 6 q-1 3 -1 4 q0 2 1 2 q0 2 2 2 q3 -1 5 -1 q0 0 1 1 q1 0 1 1 q16 15 27 33 q-2 0 -5 0 q-4 -1 -6 -1 q-6 0 -9 -4 q-1 -3 -2 -4 q-2 0 -3 3 q-2 2 -4 7 q0 2 0 2 q0 4 -2 11 q-2 6 -3 10 q-1 5 6 4 q9 0 27 1 q19 1 29 1 q6 0 20 -1 q13 0 18 0 q2 0 5 1 q6 0 8 2 q7 1 8 -3 q0 -2 0 -6 q-1 -4 -1 -7 q0 -5 -4 -13 q0 -2 -6 -2 q-18 2 -33 2 q-5 0 -8 0 q4 -5 -1 -8 q-9 -7 -14 -13 q-6 -8 -14 -16 q6 0 11 1 q18 2 29 3 q-8 10 -10 12 q-3 3 2 2 q8 0 13 1 q9 1 13 1 q4 0 6 -6 q1 -2 6 -11 q4 -8 5 -11 q0 0 1 -1 q2 -4 0 -8 q-2 -3 -2 -5 q0 -6 -1 -8 q-1 -3 -3 -2 q-1 1 -4 3 q-2 2 -4 2 q-2 3 -5 5 q0 2 -2 3 q-3 2 -13 -1 q-5 0 -13 -2 q1 0 4 -1 q-1 1 1 -1 q5 -3 4 -9 q0 -2 -1 -7 q0 -4 -1 -7 q6 0 14 0 q8 0 13 1 q5 2 6 -1 q4 -7 1 -13 q-1 -3 -2 -9 q-1 -3 -1 -4 q-1 -1 -3 -1 q-4 0 -9 0 q-9 0 -22 0 q-1 -3 -1 -7 q-1 -7 -1 -16 q24 2 33 2 q2 0 7 1 q5 2 5 -2 q0 -1 1 -2 q1 -1 1 -2 q0 -1 0 -4 ZM234 178 q-3 -16 -3 -64 q0 -18 -1 -38 q0 -5 0 -16 q-1 -12 -1 -18 q-1 -40 -12 -69 q-3 -6 -7 -2 q-3 7 -9 15 q-2 3 -3 5 q-5 5 -10 21 q0 4 3 3 q5 -1 6 5 q2 14 3 27 q3 59 2 50 q0 13 0 29 q0 14 0 40 q1 26 -3 29 q-1 2 0 3 q1 1 4 1 q4 0 10 1 q2 1 3 1 q12 2 17 -4 q4 -6 1 -19 ZM185 137 q-4 -19 -2 -46 q1 -36 -6 -50 q-3 -5 -4 -14 q-3 -4 -6 -1 q-15 17 -17 31 q-1 6 2 8 q2 0 2 17 q1 23 1 45 q0 23 -2 25 q-2 4 4 5 q8 0 15 2 q6 0 12 -3 q4 -4 1 -19 Z" /><glyph glyph-name="" unicode="&#x5237;" d="M113 118 q-17 0 -52 -5 q-3 -38 -10 -61 q-11 -42 -29 -66 q-3 -4 -5 0 q-2 6 -8 16 q-2 3 -3 4 q0 1 -1 2 q-4 7 -4 12 q-1 2 0 3 q0 1 2 0 q9 -7 17 23 q10 31 12 48 q3 18 3 48 q0 34 -1 41 q0 2 2 2 q5 0 11 1 q0 2 3 1 q8 -2 29 1 q30 4 54 1 q12 -1 26 -1 q4 1 3 -4 q-4 -52 -19 -67 q-5 -4 -7 -1 q-2 3 -23 2 ZM123 100 q0 -4 -1 -6 q3 0 7 1 q4 0 6 0 q2 0 7 0 q9 -1 14 0 q3 1 3 -5 q0 -3 0 -6 q0 -7 -2 -15 q-1 -6 -2 -13 q-1 -7 -2 -12 q-2 -20 -11 -41 q-1 -2 -2 -2 q-1 0 -3 3 q-3 8 -10 18 q-4 7 -4 14 q0 3 2 3 q3 0 5 5 q1 6 1 12 q0 3 0 4 q1 9 -6 7 l-5 0 q-2 -22 -2 -46 q1 -41 -9 -54 q-1 -2 -3 -2 q-1 0 -2 2 q-1 2 -4 7 q-2 4 -4 7 q-6 11 -7 18 q0 2 2 3 q2 -1 2 6 q-1 4 1 19 q1 3 1 4 q1 6 1 19 q0 5 0 7 q0 5 0 9 q-6 0 -11 -1 q0 -4 0 -8 q-1 -4 -1 -9 q0 -26 -10 -46 q-2 -2 -4 0 q0 0 -2 4 q-4 9 -7 12 q-3 4 -4 10 q-2 3 1 5 q1 0 1 5 q1 4 2 12 q1 7 1 11 q1 5 0 7 q0 3 0 6 q0 9 -1 16 q-1 2 0 2 q0 1 3 1 q3 -1 6 -1 q14 0 27 1 l0 11 q0 3 -1 5 q-1 2 -1 5 q0 2 0 2 q1 1 3 0 q5 0 11 1 q5 1 10 -2 q5 -6 4 -15 ZM243 178 q-3 -16 -3 -63 q0 -19 -1 -39 q0 -5 0 -16 q-1 -12 -1 -18 q-1 -44 -12 -69 q-3 -6 -6 -2 q-8 14 -12 20 q-7 8 -10 21 q-1 2 0 3 q1 1 2 0 q5 -1 7 5 q2 14 2 27 q2 23 2 50 q1 13 1 29 q0 14 0 40 q1 26 -3 29 q-1 2 -1 3 q1 1 4 1 q4 0 9 1 q3 1 5 1 q12 2 16 -4 q4 -5 1 -19 ZM200 137 q-4 -18 -2 -45 q1 -36 -5 -51 q-3 -5 -5 -14 q-2 -4 -5 -1 q-14 18 -16 31 q-2 6 2 8 q1 0 2 11 q0 4 0 6 q0 24 0 46 q0 23 -2 25 q-1 4 4 5 q8 0 14 1 q3 2 12 -3 q3 -2 1 -19 ZM64 157 q0 0 -1 0 q0 -6 -1 -16 q30 5 60 4 q4 0 5 3 q0 2 1 4 q1 3 1 6 q0 4 -4 4 q-28 1 -61 -5 Z" /><glyph glyph-name="" unicode="&#x524d;" d="M131 125 q0 -12 -1 -25 q-1 -9 -4 -46 q0 -15 -1 -24 q0 -31 -7 -53 q-3 -4 -5 -1 q-14 17 -16 29 q-2 7 1 7 q3 -1 3 8 l0 6 q-20 1 -38 -1 q-6 -28 -17 -52 q-2 -4 -5 0 q-2 6 -8 15 q-4 7 -7 19 q0 6 3 6 q5 -1 9 15 q9 37 3 99 q-1 6 3 5 q11 1 18 1 q32 3 65 1 q5 1 4 -9 ZM234 146 q-2 -3 -4 -1 q-3 3 -11 5 q-2 0 -3 0 q-19 3 -59 3 q-8 0 -12 0 q-32 0 -93 -6 q-9 -2 -18 -2 q-5 0 -7 -4 q-1 -2 -2 -2 q0 0 -2 2 q-7 9 -7 28 q-1 4 4 4 q9 0 18 0 q8 0 25 2 q7 1 10 1 q3 0 6 0 q-2 2 -4 8 q2 -5 -1 2 q-2 11 -7 20 q-1 4 3 4 l20 0 q10 0 12 -6 q1 -4 2 -12 q2 -8 2 -12 q0 -1 0 -2 q21 1 42 1 q1 2 3 7 q8 14 10 19 q1 4 1 9 q-1 4 5 3 q21 -4 27 -12 q2 -6 -3 -10 q-3 -1 -10 -10 q-3 -4 -4 -6 q6 0 17 0 q12 0 17 -1 q18 0 27 4 q3 1 4 -2 q0 -12 -3 -20 q-2 -8 -5 -14 ZM219 125 q0 -1 0 -4 q-2 -22 -2 -45 q0 -63 -8 -89 q-1 -4 -3 -9 q-2 -4 -2 -6 q0 -3 -2 -3 q-2 0 -3 2 q-2 4 -6 11 q-11 17 -12 27 q-1 2 0 3 q0 0 2 0 q5 -6 6 25 q3 35 3 58 q1 35 -1 46 q-1 4 2 4 q6 0 13 1 q3 2 10 -1 q1 0 1 0 q5 -5 2 -20 ZM175 106 q0 -1 0 -2 q-2 -14 -1 -35 q0 -28 -5 -44 q0 -1 -1 -4 q-2 -4 -3 -7 q-1 -3 -3 -3 q-1 0 -3 2 q-12 18 -14 29 q0 7 2 7 q2 -5 2 27 q2 46 0 48 q-1 3 1 4 q15 2 22 -1 q4 0 4 -4 q1 -10 -1 -17 ZM102 67 q-16 0 -34 -1 q0 -7 -1 -16 q4 0 11 1 q6 0 9 0 q5 1 15 1 l0 1 q0 6 0 14 ZM84 93 q10 0 19 0 l0 9 q1 9 -5 7 q-14 0 -29 -3 q0 -6 -1 -15 q3 1 8 1 q5 1 8 1 Z" /><glyph glyph-name="" unicode="&#x5251;" d="M117 190 q2 -6 -3 -10 l-7 -6 q27 -18 43 -22 q0 0 1 0 q2 -1 2 -4 q0 -13 -6 -25 q-3 -4 -6 -1 q-1 1 -3 2 q-2 2 -3 2 q0 -5 -1 -8 q-2 -8 -2 -15 q0 -2 -4 -2 q-4 2 -19 2 q-23 0 -48 -2 q-8 1 -8 -5 q-1 -2 -2 -2 q-1 -1 -2 1 q-3 7 -4 14 q0 -1 -1 -1 q-16 -14 -18 -19 q-2 -4 -5 0 q-14 18 -12 36 q0 0 0 1 q1 6 4 3 q7 -6 18 6 q25 22 39 39 q17 21 16 30 q1 4 6 2 q25 -9 25 -16 ZM237 184 q-4 -19 -4 -40 q0 -16 0 -31 q-1 -97 -9 -127 q-1 -1 -1 -3 q-4 -9 -5 -13 q-3 -6 -6 -2 q-21 27 -23 41 q0 4 3 3 q7 -4 8 27 q2 19 2 47 q0 29 0 57 q2 50 0 57 q-1 4 3 4 q6 0 14 2 q7 1 14 -1 q6 -6 4 -21 ZM149 16 q-1 -15 -4 -20 q0 -3 -4 -2 q-2 0 -7 -1 q-5 0 -8 0 q-39 -1 -79 -11 q-4 -1 -5 -4 q-1 -2 -3 -3 q-1 0 -2 2 q-9 15 -11 32 q0 5 4 3 q9 -2 16 -2 q7 0 21 2 q16 1 24 2 q0 0 2 1 q15 37 18 48 q5 16 6 25 q1 5 5 4 q3 -1 7 -2 q8 -2 12 -8 q5 -6 1 -12 q-13 -23 -24 -53 q9 1 17 1 q5 0 8 2 q6 0 6 -4 ZM185 139 q-4 -10 -2 -53 q-1 -33 -6 -47 q0 -2 -2 -5 q-1 -5 -2 -8 q-3 -5 -7 -1 q-15 20 -16 32 q0 7 2 7 q3 -3 3 30 q0 57 -1 64 q-1 4 2 5 q17 2 24 -1 q6 -1 5 -5 q2 -10 0 -18 ZM67 27 q-5 -10 -9 -9 q-13 12 -12 16 q-10 26 -18 42 q-2 5 3 5 q13 0 19 -1 q7 -1 10 -8 q0 -9 3 -20 q5 -10 4 -25 ZM99 41 q-2 -13 -10 -12 q-7 7 -10 16 q-1 0 -1 1 q-1 9 -7 29 q-2 10 -3 14 q-2 6 4 6 q1 0 4 -1 q9 -1 14 -1 q8 -4 8 -11 q-1 -5 0 -18 q0 -3 1 -7 q1 -8 0 -16 ZM97 149 q-5 3 -8 4 q0 0 0 -1 q-1 0 -1 -1 q-10 -11 -24 -24 q5 0 12 0 q20 2 34 2 q14 -2 20 1 q-20 11 -33 19 Z" /><glyph glyph-name="" unicode="&#x529b;" d="M148 194 q-5 -9 -8 -38 q0 -2 -1 -6 q0 -5 -1 -7 q4 0 12 1 q30 1 35 1 q7 -1 23 0 q7 0 10 0 q7 0 7 -6 q0 -8 -4 -38 q-4 -33 -5 -46 q-1 -14 -11 -44 q-2 -6 -3 -9 q-4 -15 -13 -29 q-2 -2 -4 0 q-3 4 -9 12 q-16 18 -14 22 q0 5 -2 9 q-2 3 2 2 q8 -7 15 15 q8 27 11 70 q0 10 -10 10 q-8 0 -36 -2 q-6 0 -9 0 q-11 -49 -38 -87 q-11 -16 -40 -43 q-9 -8 -11 -11 q-2 -4 -5 -1 q-15 24 -18 39 q0 4 4 3 q16 -3 38 24 q25 36 36 74 q-23 -2 -28 -3 q-21 -1 -21 -7 q0 -2 -1 -3 q-2 -1 -3 1 q-5 9 -4 40 q0 3 2 2 q3 -1 34 1 q4 0 19 1 q5 1 8 1 q1 3 1 12 q4 39 3 52 q-1 2 0 4 q1 1 3 0 q18 -1 29 -4 q10 -3 7 -12 Z" /><glyph glyph-name="" unicode="&#x529f;" d="M197 194 q-3 -10 -7 -38 q0 -2 -1 -6 q0 -4 -1 -6 q11 0 20 0 q15 0 29 0 q6 1 6 -5 q-5 -44 -16 -85 q-9 -34 -16 -53 q-2 -5 -11 -21 q-2 -4 -3 -6 q-2 -3 -4 -1 q-18 27 -16 31 q0 5 -2 9 q0 0 0 1 q-1 2 2 2 q8 -9 16 22 q10 39 12 65 q3 11 -6 9 q-9 0 -17 0 q-12 -58 -31 -87 q-4 -7 -17 -25 q-19 -26 -21 -31 q-3 -4 -5 -1 q-12 20 -16 39 q0 3 4 2 q6 -7 25 28 q23 34 31 74 q-1 0 -3 0 q-2 -1 -3 -1 q-18 -1 -19 -7 q0 -2 -1 -3 q-2 -1 -3 1 q-4 13 -4 38 q0 3 2 2 q1 0 6 0 q16 1 26 1 q2 0 4 1 q1 2 1 5 q1 4 1 6 q3 33 2 52 q-1 2 0 4 q1 1 3 0 q17 -1 27 -4 q9 -3 6 -12 ZM111 43 q-1 -6 -1 -13 q0 -4 -4 -5 q0 0 -1 0 q-24 -3 -49 -11 q-25 -7 -23 -14 q0 -1 -1 -2 q-2 0 -3 2 q-8 12 -9 25 q0 7 -2 15 q1 3 4 2 q4 -3 30 3 q-1 11 0 32 q0 8 0 11 q0 3 0 10 q1 17 0 25 q0 0 -2 0 q-17 -2 -19 -9 q-3 -5 -6 -1 q-5 14 -5 39 q1 3 4 2 q5 -2 9 -1 q2 0 5 1 q15 1 29 1 q17 0 43 2 q2 0 4 -4 q3 -8 0 -15 q-3 -6 -3 -13 q0 -3 -3 -2 q-3 2 -21 2 l-1 0 q-4 -32 -6 -75 q15 3 26 6 q4 0 4 -2 q1 -6 1 -11 Z" /><glyph glyph-name="" unicode="&#x52a0;" d="M99 195 q-5 -12 -6 -38 q-1 -5 -1 -11 q16 0 43 0 q7 0 5 -8 q-5 -21 -7 -48 q-3 -33 -14 -87 q-3 -10 -14 -27 q-3 -3 -4 -1 q-16 20 -15 26 q-1 8 -4 12 q-1 5 3 5 q8 -7 12 21 q5 22 8 66 q3 12 -6 10 q-6 0 -11 -1 q-10 -65 -33 -104 q-13 -24 -19 -39 q-3 -5 -6 -2 q-15 26 -18 40 q0 5 4 3 q7 -5 21 26 q14 33 20 75 l-7 -1 q-20 -1 -20 -7 q0 -2 -1 -3 q-2 -1 -3 1 q-4 13 -4 38 q0 3 3 2 q17 0 31 1 q3 0 4 1 q1 4 1 10 q4 40 1 52 q0 5 4 5 q4 -1 11 -2 q6 0 16 -3 q9 -3 6 -12 ZM238 110 q0 -2 -2 -18 q-4 -35 -6 -53 q-2 -14 -8 -22 q-3 -4 -8 -3 q-5 3 -12 3 q-7 0 -14 0 q-8 -1 -17 -1 q-9 -1 -11 -4 q-2 -4 -3 -4 q-2 1 -3 5 q0 2 -1 7 q-2 10 -3 15 q-3 23 -1 59 q0 16 -2 48 q-2 7 7 5 q4 -1 14 1 q3 0 4 0 q18 2 38 1 q18 -1 26 -1 q9 2 8 -5 q1 -13 -6 -33 ZM201 119 q-2 0 -6 0 q-7 -1 -12 -1 q-6 1 -6 -8 q-1 -31 0 -58 q1 -6 6 -5 q6 1 16 1 q4 0 5 8 q4 32 4 55 q2 9 -7 8 Z" /><glyph glyph-name="" unicode="&#x52a1;" d="M205 188 q12 0 10 -9 q-2 -9 -8 -15 q-3 -2 -9 -7 q-6 -4 -9 -7 q-13 -11 -25 -20 q10 -4 30 -9 q4 -1 6 -2 q25 -6 33 -2 q5 2 6 -3 q0 -10 -4 -15 q-3 -3 -4 -6 q-2 -4 -10 -12 q-3 -2 -6 1 q-6 4 -20 7 q1 -1 -2 0 q-17 5 -60 23 q-3 -2 -7 -4 q-20 -9 -44 -18 q-11 -4 -43 -12 q-6 -1 -7 -4 q-1 -2 -2 -1 q-1 0 -2 2 q-6 15 -3 29 q1 3 2 4 q1 0 2 -2 q2 -3 14 -1 q32 6 62 20 q-6 3 -14 7 q-6 3 -8 4 q-7 2 -9 0 q-1 -2 -3 -2 q-10 -6 -17 -13 q-6 -6 -8 0 q-1 1 -2 4 q-4 12 -6 20 q-1 2 0 3 q2 1 4 0 q3 -1 6 0 q13 7 38 27 q22 20 28 31 q1 4 5 2 q13 -3 15 -4 q12 -4 -2 -17 q8 0 16 0 q38 0 57 1 ZM138 77 q0 0 0 -1 l24 0 q18 0 35 1 q18 0 13 -15 q-6 -18 -10 -37 q-9 -31 -25 -53 q-3 -5 -6 0 q-16 15 -18 31 q0 3 1 3 q0 1 2 0 q4 -4 7 3 q0 1 1 3 q6 11 9 30 q0 6 -4 5 q-5 0 -13 0 q-15 1 -25 0 q-21 -45 -54 -60 q-4 -3 -15 -10 q-5 -4 -7 -5 q-6 -6 -7 -6 q-2 0 -4 6 q-1 2 -4 6 q-4 6 -5 10 q0 6 0 12 q0 3 1 4 q1 0 4 -3 q1 -1 8 1 q36 11 53 43 q0 1 1 1 q0 1 0 1 q-9 0 -21 -1 q-4 -1 -6 -1 q-9 0 -11 -4 q-2 -3 -4 -4 q-1 0 -2 2 q-5 10 -3 34 q1 4 2 1 q2 0 6 0 q17 0 29 1 q3 0 9 1 q6 0 9 0 q2 9 3 21 q0 6 4 4 q1 0 5 -1 q5 -1 8 -1 q17 1 10 -22 ZM103 158 q6 -2 15 -8 q11 -6 18 -9 q19 11 31 21 q3 2 2 3 q-1 1 -6 1 q-26 1 -52 -3 q-2 0 -4 -1 q-2 -2 -4 -4 Z" /><glyph glyph-name="" unicode="&#x52a8;" d="M201 192 q-4 -11 -7 -38 q0 -2 -1 -6 q0 -4 -1 -6 q9 0 18 0 q14 0 28 0 q6 0 6 -6 q-4 -41 -15 -85 q-9 -30 -16 -51 q-7 -19 -14 -28 q0 -2 -1 -2 q-2 0 -2 1 q-17 23 -16 31 q0 5 -2 8 q0 3 0 3 q1 1 2 0 q9 -8 15 22 q10 41 12 68 q3 11 -6 9 q-7 0 -13 0 q-8 -64 -25 -89 q-26 -46 -31 -56 q-2 -4 -5 -1 q-12 23 -15 38 q0 5 4 3 q0 0 1 0 q2 -1 4 0 q-7 8 -13 12 q0 -2 -1 -2 q-1 0 -2 0 q-26 -7 -67 -18 q-4 -1 -5 -8 q0 -2 -1 -3 q-1 0 -2 1 q-1 2 -3 6 q-1 2 -1 3 q-8 7 -7 29 q1 6 3 4 q6 -3 11 6 q15 25 22 56 q-27 -3 -27 -11 q0 -2 -1 -3 q-2 0 -3 2 q-7 13 -8 26 q2 9 0 14 q0 4 5 2 q1 -2 42 0 q7 0 22 1 q30 1 38 2 q1 0 2 -1 q2 0 3 -2 q1 -4 -1 -9 q-2 -6 -2 -12 q0 -6 -6 -5 q-28 0 -45 -2 q5 -3 8 -6 q6 -3 0 -10 q-15 -29 -24 -46 q21 4 36 8 q0 0 0 1 q-8 16 -15 23 q-1 2 -1 4 q1 1 3 1 q5 0 10 1 q4 1 12 1 q8 1 10 -6 q1 -7 9 -24 q5 -10 8 -22 q1 2 3 6 q2 3 3 5 q20 36 24 79 q-18 -2 -19 -8 q0 -2 -2 -3 q-1 -1 -2 1 q-3 10 -4 33 q0 -2 0 3 q1 3 3 2 q1 0 17 1 q-5 0 10 1 q0 7 1 12 q0 4 1 13 q2 32 1 39 q-1 2 0 4 q1 1 3 0 q6 -1 18 -3 q6 -1 8 -1 q8 -3 6 -12 ZM122 170 q-3 -5 -4 -12 q0 -4 -4 -2 q-4 3 -22 3 q-16 0 -32 -2 q-21 -2 -21 -7 q-2 -4 -6 -1 q-6 17 -3 37 q0 3 4 1 q4 -2 10 -1 q4 0 12 0 q32 2 62 1 q3 0 4 -4 q3 -7 0 -13 Z" /><glyph glyph-name="" unicode="&#x52a9;" d="M124 30 q-1 -4 -4 -4 q-33 -5 -82 -22 q-13 -3 -11 -6 q-1 -3 -2 -3 q0 0 -2 2 q-6 8 -9 20 q0 8 -1 12 q-1 2 0 3 q1 1 2 0 q7 0 13 2 q1 0 1 0 q1 5 1 18 q1 24 2 54 q1 30 1 53 q0 17 -2 23 q-1 8 7 6 q2 -1 4 -1 q5 1 14 2 q18 2 28 2 q6 0 19 -1 q10 -1 15 -1 q7 -1 6 -7 q0 -15 -4 -27 q-1 -5 -5 -58 q-2 -32 -2 -34 q0 -3 0 -13 q1 0 3 1 q2 1 3 1 q3 2 5 -2 q2 -7 0 -20 ZM170 205 q4 -1 13 -2 q7 -2 10 -2 q8 -2 7 -11 q-4 -11 -7 -28 q0 -1 0 -4 q-1 -3 -1 -5 q20 -2 40 -1 q11 1 10 -11 q-4 -13 -11 -63 q0 -1 0 -2 q-1 -8 -7 -33 q-1 -9 -2 -12 q-6 -28 -22 -51 q0 -1 -1 -2 q-3 -7 -5 -1 q-1 3 -8 12 q-2 3 -3 5 q-3 4 -3 12 q-1 4 -1 6 q-1 3 0 4 q0 1 3 0 q4 -2 7 4 q11 24 19 95 q2 9 -7 8 q-5 0 -14 0 q-14 -89 -52 -134 q-3 -4 -5 -12 q-2 -5 -5 -2 q-10 11 -16 35 q0 2 0 2 q1 1 3 0 q6 0 10 7 q3 7 10 19 q22 39 27 75 q0 2 1 5 q0 3 0 4 q-3 0 -9 -1 q-6 0 -8 -1 q-1 0 -2 -1 q-5 -1 -6 -4 q-1 -2 -2 -2 q-2 1 -3 3 q-3 11 -3 32 q0 2 0 3 q1 0 3 -1 q2 -1 5 -1 q1 0 1 0 q13 0 28 2 q3 20 3 34 q0 8 -1 15 q-2 6 4 5 ZM87 45 q0 11 1 22 l-11 0 q-9 0 -19 -1 q-1 -12 -1 -26 q19 4 30 5 ZM89 114 q-14 0 -31 -1 q0 -8 0 -20 q4 0 13 1 q9 0 13 1 q3 0 5 0 q0 10 0 19 ZM59 141 q17 1 31 1 l0 12 q1 9 -7 8 q-11 -1 -17 -1 q-3 0 -5 0 q0 -3 -1 -10 q0 -7 -1 -10 Z" /><glyph glyph-name="" unicode="&#x52c7;" d="M221 151 q0 -13 -3 -25 q-3 -27 -5 -48 q-2 -19 -8 -32 l5 0 q6 1 5 -8 q-1 -11 -6 -17 q-5 -8 -8 -17 q-6 -19 -17 -36 q-3 -5 -8 0 q-5 10 -14 25 q-3 5 2 7 q7 0 11 17 q2 6 -5 6 q-2 0 -6 0 q-18 1 -30 0 q-20 -35 -89 -58 q-3 -1 -4 0 q-1 0 -1 3 q-1 6 -5 12 q-3 3 -1 19 q0 1 1 1 q1 0 3 -1 q3 -4 16 -1 q28 5 44 23 q-3 0 -9 -1 q-6 0 -8 -1 q-27 -3 -32 -9 q-1 -2 -3 -2 q-1 0 -2 2 q-5 14 -5 25 q-1 5 5 6 q7 0 19 3 q-3 5 -10 17 q-3 5 -4 7 q-1 2 -1 3 q1 1 2 0 q3 0 3 3 q0 16 2 32 q2 21 -3 44 q-1 4 4 3 q0 1 2 1 q17 -2 45 2 q2 0 6 1 q4 0 6 0 q-9 3 -15 2 q-2 -1 -3 0 q-1 2 0 4 q0 5 2 13 q1 3 1 4 q-18 0 -27 -2 q-12 -1 -14 -8 q0 -2 -4 0 q-6 15 -6 29 q-1 2 3 4 q12 1 55 3 q44 1 62 0 q25 -1 38 0 q6 1 7 -5 q2 -15 -9 -22 q-18 -9 -40 -21 q21 0 50 -1 q7 1 6 -6 ZM72 44 q14 2 39 4 q2 0 3 0 q1 3 3 9 q1 3 2 4 q0 2 1 2 q-1 1 -1 1 q-3 3 -5 7 q-5 -1 -16 -1 q-10 -1 -16 -1 q-3 -1 -4 -1 q-1 -9 -5 -22 q-1 -1 -1 -2 ZM177 48 q6 -1 10 -1 q-6 6 -10 15 q-2 4 1 5 q3 0 5 4 q-10 1 -21 1 q-10 0 -18 0 q-1 -6 -4 -12 q1 0 3 -1 q1 0 2 -1 q6 -4 5 -9 q6 0 17 -1 q7 0 10 0 ZM81 100 q0 -1 0 -5 q-1 -3 -1 -5 q7 0 13 1 q5 0 14 1 q8 0 12 0 q0 2 1 5 q0 4 0 5 q-10 0 -31 -1 q-5 -1 -8 -1 ZM187 94 l1 7 q-10 2 -27 2 q-9 0 -16 0 l0 -10 q8 0 22 1 q13 0 20 0 ZM185 134 q-18 0 -36 0 q0 -1 0 -6 q-1 -2 -1 -4 q7 0 21 1 q14 0 20 0 q0 2 1 4 q1 5 -5 5 ZM84 131 q-1 -1 -3 -1 q0 -4 0 -9 q1 0 5 0 q4 1 6 1 q6 0 16 1 q8 0 12 0 q0 6 0 10 q-6 0 -18 -1 q-12 0 -18 -1 ZM162 183 q-8 0 -46 -2 q9 -4 24 -12 q3 1 9 4 q9 4 15 7 q1 1 1 2 q-1 1 -3 1 Z" /><glyph glyph-name="" unicode="&#x52c9;" d="M245 1 q-5 -19 -12 -28 q-3 -3 -5 -1 q-8 3 -17 3 q-63 3 -113 10 q-5 0 -8 -3 q-3 -3 -5 1 q-13 20 -11 34 q2 9 2 18 q-9 -21 -32 -42 q-4 -4 -12 -13 q-4 -5 -5 -6 q-1 -2 -1 -2 q-1 0 -2 2 q-1 8 -6 14 q-5 7 -5 19 q0 3 1 3 q1 1 3 -1 q4 -2 10 5 q24 23 31 41 q-1 0 -3 0 q-2 -1 -3 -1 q-6 0 -10 -3 q-1 -2 -2 -1 q0 0 -1 2 q-7 21 -6 39 q0 16 -2 28 q-1 2 -1 3 q-1 -3 -3 -8 q-1 -1 -1 -1 q-1 0 -2 1 q-6 12 -8 34 q-1 3 2 1 q1 -3 8 2 q41 36 42 58 q1 4 5 3 q7 -1 16 -7 q7 -7 4 -12 q-4 -5 -10 -14 q27 -4 41 -5 q5 -6 0 -15 q-3 -4 -8 -12 q-6 -8 -9 -12 q10 -1 27 -1 q7 2 5 -10 q-1 -6 -3 -15 q-1 -3 -1 -5 q-4 -9 -6 -19 q-1 -16 -6 -26 q-2 -5 -5 -3 q-5 3 -15 3 l0 -2 q-2 -15 -2 -31 q0 -6 1 -13 q1 -1 3 -3 q26 -6 80 -7 q4 0 7 0 q31 -1 46 13 q1 2 3 1 q0 -1 1 -1 q0 -1 1 -3 q3 -7 2 -12 ZM196 193 q-3 -14 -4 -31 q0 -3 -1 -7 q18 1 38 1 q6 1 6 -5 q1 -10 -2 -31 q-2 -11 -6 -34 q-1 -5 -1 -8 q-4 -29 -12 -48 q-1 -2 -3 -6 q-2 -6 -3 -8 q-2 -3 -2 -3 q0 -1 -2 1 q-11 7 -17 26 q-2 3 1 5 q7 -4 11 27 q1 4 2 11 q4 25 5 37 q0 6 -5 6 q-5 0 -13 0 q-3 -28 -10 -45 q-9 -24 -21 -42 q-2 -3 -7 -9 q-10 -13 -14 -18 q-1 -2 -3 -3 q-1 0 -2 2 q-10 16 -11 30 q-1 3 0 4 q1 1 2 0 q5 -4 19 18 q18 25 22 61 l-6 0 q-9 0 -9 -4 q1 -2 -1 -2 q-1 0 -2 2 q-3 18 -3 31 q0 3 3 3 q3 -1 13 0 q5 0 8 0 q0 11 0 24 q2 20 0 27 q-1 4 4 3 q11 1 23 -2 q5 -1 3 -13 ZM41 131 q20 5 37 5 l4 0 q4 8 7 13 q2 2 1 3 q0 1 -2 1 q-4 1 -11 1 q-8 1 -12 1 q-6 -7 -22 -22 q1 1 -2 -2 ZM110 106 q0 6 -5 5 l-11 0 q-3 -16 -4 -29 q3 0 7 1 q4 0 6 0 q4 -1 5 6 q1 3 1 8 q1 6 1 9 ZM66 80 q2 13 3 29 q-2 0 -6 -1 q-3 0 -4 0 q-3 0 -3 -6 q0 -6 0 -19 q0 -4 3 -3 q3 0 7 0 Z" /><glyph glyph-name="" unicode="&#x533a;" d="M42 192 q3 -1 9 0 q4 0 6 0 q7 0 11 -1 q24 0 50 3 q27 3 55 2 q20 -1 40 -1 q2 0 5 1 q3 0 4 0 q5 2 6 -5 q2 -8 -1 -14 q-4 -6 -4 -12 q0 -3 0 -3 q0 -1 -2 0 q-6 2 -12 3 q-45 3 -91 0 q-24 -3 -46 -4 q-3 -34 -4 -69 q0 -34 2 -69 q0 -7 -1 -15 q5 0 18 2 q-9 -2 3 0 q-1 7 -7 14 q-3 4 -3 16 q0 5 0 8 q0 3 2 3 q7 -5 18 6 q16 14 31 31 q-31 34 -45 46 q-3 2 -2 3 q0 2 4 3 q2 1 11 2 q13 3 17 5 q9 1 13 -4 q3 -8 20 -30 q4 5 8 14 q2 3 3 4 q9 17 8 30 q0 2 3 2 q3 -1 13 -5 q11 -4 13 -5 q6 -6 2 -16 q-11 -19 -21 -33 q-4 -8 -10 -14 q3 -2 7 -7 q5 -5 7 -8 q1 -2 5 -5 q9 -10 11 -16 q2 -4 5 -11 q4 -7 5 -11 q2 -4 1 -6 q-2 -3 -5 -1 q-1 0 -4 1 q-7 2 -18 6 q-5 1 -16 15 q-3 4 -10 13 q-4 4 -6 6 q-17 -21 -39 -41 q-3 -2 -7 -6 q-7 -5 -9 -9 q8 0 19 2 q26 2 75 0 q8 0 12 0 q24 0 30 3 q4 2 5 2 q1 0 1 -4 q-1 -16 -6 -35 q-1 -4 -4 -2 q-1 2 -7 4 q-1 0 -1 0 q-23 5 -57 5 q-50 -3 -89 -6 q-12 -2 -14 -4 q-5 -7 -8 -1 q0 1 -1 2 q-3 8 -8 14 q-4 7 -7 14 q-2 6 2 6 q3 1 2 7 q0 6 0 17 q1 16 0 25 q-3 48 -1 108 q2 12 0 22 q-1 4 4 3 Z" /><glyph glyph-name="" unicode="&#x5347;" d="M193 191 q-4 -36 -4 -67 q-1 -5 -1 -11 q49 0 53 3 q2 2 2 1 q1 -1 1 -4 q3 -12 -7 -35 q-2 -5 -5 -2 q-10 7 -44 7 l0 -34 q0 -45 -6 -60 q-4 -8 -5 -15 q-2 -5 -8 0 q-12 14 -19 31 q-3 7 1 7 q3 -2 4 18 q3 30 3 54 q-6 0 -18 -1 q-23 -1 -35 -2 q-4 -47 -24 -77 q-13 -16 -19 -29 q-4 -5 -6 -2 q-16 22 -19 34 q0 2 0 2 q1 1 3 0 q11 -1 25 27 q4 11 10 43 q-15 -1 -24 -3 q-9 -2 -17 -2 q-8 0 -9 -5 q-1 -2 -2 -2 q0 0 -1 2 q-10 18 -7 37 q0 3 3 2 q2 0 7 0 q25 -1 53 1 q1 26 1 46 q-3 -1 -11 -4 q-7 -2 -11 -4 q-7 -2 -9 -6 q-1 -3 -3 -3 q-1 1 -2 4 q-9 25 -5 35 q1 3 2 4 q1 0 2 -3 q3 -4 17 1 q8 3 25 9 q17 6 25 9 q12 4 15 10 q3 4 7 0 q1 -3 7 -5 q10 -4 13 -16 q3 -6 -3 -8 q-5 -2 -15 -5 q-9 -2 -15 -4 q-1 0 -3 0 q-2 -1 -3 -1 l0 -2 q-2 -12 -4 -55 q8 1 26 1 q16 1 25 1 q0 24 0 50 q0 26 -2 43 q0 4 3 4 q3 0 10 -1 q6 0 8 0 q6 0 12 -3 q6 -1 3 -15 Z" /><glyph glyph-name="" unicode="&#x5361;" d="M143 199 q-1 -4 -3 -21 l17 0 q41 -2 49 1 q5 1 4 -4 q0 -14 -4 -26 q-1 -3 -6 -2 q-7 3 -45 3 q-2 0 -8 0 q-5 0 -8 -1 q0 -16 0 -31 q42 2 71 0 q15 0 21 3 q1 1 2 1 q1 0 1 -2 q0 -18 -7 -36 q-1 -2 -2 -2 q-1 -1 -2 1 q-6 5 -44 7 q-14 2 -37 0 q0 -1 0 -3 q-1 -2 -1 -3 q-2 -6 -2 -25 q0 -12 0 -21 q2 -46 -12 -64 q-3 -3 -4 -2 q-1 0 -3 3 q-14 19 -18 30 q-3 5 2 7 q4 4 4 19 q0 17 0 49 q-1 6 -1 9 q-27 0 -49 -2 q-24 -2 -23 -5 q-1 -2 -2 -2 q-1 0 -3 2 q-7 16 -5 32 q0 3 1 3 q1 1 3 -1 q0 0 1 0 q13 -1 28 0 q16 0 47 2 q-2 0 5 0 q0 17 -1 65 q0 25 0 30 q0 3 3 2 q4 -1 17 -1 q6 0 12 -3 q4 -3 2 -12 ZM152 63 q0 6 6 3 q32 -15 55 -18 q6 0 5 -4 q-5 -14 -10 -26 q-5 -6 -13 -3 q-2 1 -5 3 q-13 9 -20 12 q-10 6 -16 13 q-4 0 -2 20 Z" /><glyph glyph-name="" unicode="&#x538b;" d="M178 149 q-3 -12 -3 -31 q14 0 25 0 q23 -1 30 1 q4 0 5 -3 q1 -3 -2 -19 q-1 -6 -2 -9 q-1 -5 -6 -3 q-10 4 -52 4 q0 -13 0 -30 q0 -22 -2 -34 q17 0 29 -1 q43 -2 48 3 q3 2 5 1 q1 -1 0 -4 q-1 -6 -1 -14 q0 -4 -6 -16 q-1 -2 -1 -3 q-2 -4 -5 -2 q-10 9 -72 7 q-19 0 -73 -3 q-17 0 -16 -7 q0 -2 -1 -2 q-2 -1 -3 1 q-10 19 -7 24 q0 6 -1 10 q-1 2 3 2 q5 0 24 1 q6 1 10 1 q5 1 19 1 q12 1 19 1 q-3 6 -2 11 q1 6 1 47 q0 3 0 5 q-15 0 -30 -2 q-15 1 -14 -5 q-1 -3 -3 -4 q-1 0 -2 2 q-5 14 -6 36 q0 2 1 2 q1 1 3 -1 q4 -2 48 1 l2 0 q0 19 1 24 q0 11 0 17 q-1 2 0 3 q1 1 3 0 q3 0 11 0 q2 0 11 -2 q5 -1 8 -1 q5 -1 6 -3 q1 -2 -2 -6 ZM227 170 q0 -4 -4 -3 q-9 3 -41 3 q-39 0 -56 -1 q-20 0 -42 -2 q-1 -3 -1 -10 q-1 -6 -1 -9 q-3 -21 -5 -47 q-4 -48 -27 -88 q-6 -9 -14 -22 q-2 -4 -3 -6 q-1 -2 -2 -2 q-1 -1 -2 1 q-9 9 -20 37 q0 5 4 3 q13 -6 27 41 q14 47 10 108 q-2 7 -2 20 q0 2 1 2 q0 1 3 0 q3 0 8 1 q13 2 53 3 q43 1 83 0 q28 0 31 1 q4 2 4 -3 q1 -9 -4 -27 ZM225 55 q-5 -18 -17 -27 q-4 -4 -5 0 q-2 5 -8 9 q-9 11 -9 39 q0 3 3 2 q10 0 17 -10 q7 -6 15 -9 q4 0 4 -4 Z" /></font>
</defs>
</svg>
